<svg width="392" height="100" viewBox="0 0 392 100" fill="none" xmlns="http://www.w3.org/2000/svg">
<g opacity="0.25" clip-path="url(#clip0_2201_9908)">
<path d="M12.6505 100L-29.4492 140V138.4L10.9665 100L-9.24135 80.8005L-8.39935 80.0005L12.6505 100Z" fill="#39B077"/>
<path d="M-20.6074 150H-18.9234L33.7012 99.9995L2.12643 69.9995L1.28444 70.7995L32.0172 99.9995L-20.6074 150Z" fill="#39B077"/>
<path d="M0.443359 150H2.12735L54.752 100L12.6523 60L11.8103 60.8L53.068 100L0.443359 150Z" fill="#39B077"/>
<path d="M21.4922 150H23.1762L75.8008 100L23.1762 50L22.3342 50.8L74.1168 100L21.4922 150Z" fill="#39B077"/>
<path d="M2.12558 50L-29.4492 80V78.4L0.441589 50H2.12558Z" fill="#39B077"/>
<path d="M23.1754 50L-29.4492 100V98.4L21.4914 50H23.1754Z" fill="#39B077"/>
<path d="M12.6505 0L-29.4492 40V38.4L10.9665 0L12.6505 0Z" fill="#39B077"/>
<path d="M33.7012 0L-18.9234 50H-20.6074L32.0172 0L33.7012 0Z" fill="#39B077"/>
<path d="M54.75 0L2.1254 50H0.441406L53.0661 0L54.75 0Z" fill="#39B077"/>
<path d="M75.8008 0L23.1762 50H21.4922L74.1168 0L75.8008 0Z" fill="#39B077"/>
<path d="M147.791 150H149.475L202.1 100L191.575 90L190.733 90.8L200.416 100L147.791 150Z" fill="#39B077"/>
<path d="M168.84 150H170.524L223.148 100L202.099 80.0005L201.257 80.8005L221.465 100L168.84 150Z" fill="#39B077"/>
<path d="M189.891 150H191.575L244.199 99.9995L212.624 69.9995L211.782 70.7995L242.515 99.9995L189.891 150Z" fill="#39B077"/>
<path d="M210.941 150H212.625L265.25 100L223.15 60L222.308 60.8L263.566 100L210.941 150Z" fill="#39B077"/>
<path d="M231.99 150H233.674L286.299 100L233.674 50L232.832 50.8L284.615 100L231.99 150Z" fill="#39B077"/>
<path d="M148.632 130.8L149.474 130L117.899 100L170.523 50H168.84L116.215 100L148.632 130.8Z" fill="#39B077"/>
<path d="M138.108 140.8L138.95 140L96.85 100L149.475 50H147.791L95.166 100L138.108 140.8Z" fill="#39B077"/>
<path d="M159.157 120.8L159.999 120L138.95 100L191.574 50H189.89L137.266 100L159.157 120.8Z" fill="#39B077"/>
<path d="M169.683 110.8L170.525 110L160 100L212.625 50H210.941L158.316 100L169.683 110.8Z" fill="#39B077"/>
<path d="M180.207 100.8L233.674 50H231.99L179.365 100L180.207 100.8Z" fill="#39B077"/>
<path d="M202.1 0L149.475 50H147.791L200.416 0L202.1 0Z" fill="#39B077"/>
<path d="M223.148 0L170.524 50H168.84L221.465 0L223.148 0Z" fill="#39B077"/>
<path d="M244.199 0L191.575 50H189.891L242.515 0L244.199 0Z" fill="#39B077"/>
<path d="M265.25 0L212.625 50H210.941L263.566 0L265.25 0Z" fill="#39B077"/>
<path d="M286.299 0L233.674 50H231.99L284.615 0L286.299 0Z" fill="#39B077"/>
<path d="M149.474 30L148.632 30.8L116.215 0L117.899 0L149.474 30Z" fill="#39B077"/>
<path d="M138.95 40L138.108 40.8L95.166 0L96.85 0L138.95 40Z" fill="#39B077"/>
<path d="M159.999 20L159.157 20.8L137.266 0L138.95 0L159.999 20Z" fill="#39B077"/>
<path d="M170.525 10L169.683 10.8L158.316 0L160 0L170.525 10Z" fill="#39B077"/>
<path d="M181.049 0L180.207 0.8L179.365 0L181.049 0Z" fill="#39B077"/>
<path d="M391.548 18.3994V19.9994L359.973 49.9994H358.289L391.548 18.3994Z" fill="#39B077"/>
<path d="M391.549 38.4009V40.0009L381.024 50.0009H379.34L391.549 38.4009Z" fill="#39B077"/>
<path d="M359.974 30L359.132 30.8L326.715 0L328.399 0L359.974 30Z" fill="#39B077"/>
<path d="M349.448 40L348.606 40.8L305.664 0L307.348 0L349.448 40Z" fill="#39B077"/>
<path d="M370.499 20L369.657 20.8L347.766 0L349.45 0L370.499 20Z" fill="#39B077"/>
<path d="M381.023 10L380.181 10.8L368.814 0L370.498 0L381.023 10Z" fill="#39B077"/>
<path d="M391.547 0L390.705 0.8L389.863 0L391.547 0Z" fill="#39B077"/>
<path d="M359.132 130.8L359.974 130L328.399 100L381.023 50H379.34L326.715 100L359.132 130.8Z" fill="#39B077"/>
<path d="M348.606 140.8L349.448 140L307.348 100L359.973 50H358.289L305.664 100L348.606 140.8Z" fill="#39B077"/>
<path d="M391.549 60.0004L349.45 100L370.499 120L369.657 120.8L347.766 100L391.549 58.4004V60.0004Z" fill="#39B077"/>
<path d="M391.55 79.9999L370.5 99.9999L381.025 110L380.183 110.8L368.816 99.9999L391.55 78.3999V79.9999Z" fill="#39B077"/>
<path d="M391.547 98.3994V99.9994L390.705 100.799L389.863 99.9994L391.547 98.3994Z" fill="#39B077"/>
<path d="M85.486 9.2007L32.8613 59.2007L33.7038 60.0011L86.3284 10.0011L85.486 9.2007Z" fill="#39B077"/>
<path d="M96.0094 19.2002L43.3848 69.2002L44.2272 70.0006L96.8519 20.0007L96.0094 19.2002Z" fill="#39B077"/>
<path d="M106.533 29.2002L53.9082 79.2002L54.7507 80.0006L107.375 30.0006L106.533 29.2002Z" fill="#39B077"/>
<path d="M117.058 39.2002L64.4336 89.2002L65.2761 90.0006L117.901 40.0006L117.058 39.2002Z" fill="#39B077"/>
<path d="M127.584 49.2007L74.959 99.2007L75.8014 100.001L128.426 50.0011L127.584 49.2007Z" fill="#39B077"/>
<path d="M295.982 9.20168L243.357 59.2017L244.2 60.0021L296.825 10.0021L295.982 9.20168Z" fill="#39B077"/>
<path d="M306.505 19.2012L253.881 69.2012L254.723 70.0016L307.348 20.0016L306.505 19.2012Z" fill="#39B077"/>
<path d="M317.031 29.2012L264.406 79.2012L265.249 80.0016L317.873 30.0016L317.031 29.2012Z" fill="#39B077"/>
<path d="M327.558 39.2022L274.934 89.2021L275.776 90.0026L328.401 40.0026L327.558 39.2022Z" fill="#39B077"/>
<path d="M338.082 49.2007L285.457 99.2007L286.299 100.001L338.924 50.0012L338.082 49.2007Z" fill="#39B077"/>
</g>
<defs>
<clipPath id="clip0_2201_9908">
<rect width="392" height="100" fill="white"/>
</clipPath>
</defs>
</svg>
