<svg width="242" height="457" viewBox="0 0 242 457" fill="none" xmlns="http://www.w3.org/2000/svg">
<g opacity="0.25">
<path d="M-104.406 342.75H-100.75L13.4997 228.5L-100.75 114.25L-102.578 116.078L9.84375 228.5L-104.406 342.75Z" fill="#39B077"/>
<path d="M13.4999 457L-100.75 342.75L-102.578 344.578L9.84387 457H13.4999Z" fill="#39B077"/>
<path d="M219.15 342.75L104.9 457H101.244L215.494 342.75H219.15Z" fill="#39B077"/>
<path d="M173.451 342.75L59.2009 457H55.5449L169.795 342.75H173.451Z" fill="#39B077"/>
<path d="M241.999 361.944V365.6L150.599 457H146.943L241.999 361.944Z" fill="#39B077"/>
<path d="M242.001 407.644L192.645 457H196.301L242.001 411.3V407.644Z" fill="#39B077"/>
<path d="M242 453.344V457H238.344L242 453.344Z" fill="#39B077"/>
<path d="M13.4997 0L-100.75 114.25H-104.406L9.84375 0H13.4997Z" fill="#39B077"/>
<path d="M242.001 42.0439V45.6999L173.451 114.25H169.795L242.001 42.0439Z" fill="#39B077"/>
<path d="M242 87.7441V91.4001L219.15 114.25H215.494L242 87.7441Z" fill="#39B077"/>
<path d="M173.45 68.55L171.622 70.378L101.244 0H104.9L173.45 68.55Z" fill="#39B077"/>
<path d="M150.601 91.4L148.773 93.228L55.5449 0H59.2009L150.601 91.4Z" fill="#39B077"/>
<path d="M196.299 45.7L194.471 47.528L146.943 0H150.599L196.299 45.7Z" fill="#39B077"/>
<path d="M219.151 22.85L217.323 24.678L192.645 0H196.301L219.151 22.85Z" fill="#39B077"/>
<path d="M242 0L240.172 1.828L238.344 0H242Z" fill="#39B077"/>
<path d="M242.001 270.544V274.2L173.451 342.75H169.795L242.001 270.544Z" fill="#39B077"/>
<path d="M242 316.244V319.9L219.15 342.75H215.494L242 316.244Z" fill="#39B077"/>
<path d="M171.622 298.878L173.45 297.05L104.9 228.5L219.15 114.25H215.494L101.244 228.5L171.622 298.878Z" fill="#39B077"/>
<path d="M148.773 321.728L150.601 319.9L59.2009 228.5L173.451 114.25H169.795L55.5449 228.5L148.773 321.728Z" fill="#39B077"/>
<path d="M241.999 137.1L150.599 228.5L196.299 274.2L194.471 276.028L146.943 228.5L241.999 133.444V137.1Z" fill="#39B077"/>
<path d="M242.001 182.8L196.301 228.5L219.151 251.35L217.323 253.178L192.645 228.5L242.001 179.144V182.8Z" fill="#39B077"/>
<path d="M242 224.844V228.5L240.172 230.328L238.344 228.5L242 224.844Z" fill="#39B077"/>
<path d="M34.5234 21.0254L-79.7266 135.275L-77.8975 137.104L36.3524 22.8544L34.5234 21.0254Z" fill="#39B077"/>
<path d="M57.3711 43.875L-56.8789 158.125L-55.0499 159.954L59.2001 45.704L57.3711 43.875Z" fill="#39B077"/>
<path d="M80.2207 66.7256L-34.0293 180.976L-32.2003 182.805L82.0497 68.5546L80.2207 66.7256Z" fill="#39B077"/>
<path d="M103.072 89.5753L-11.1777 203.825L-9.34872 205.654L104.901 91.4043L103.072 89.5753Z" fill="#39B077"/>
<path d="M125.922 112.425L11.6719 226.675L13.5009 228.504L127.751 114.254L125.922 112.425Z" fill="#39B077"/>
<path d="M34.5234 249.525L-79.7266 363.775L-77.8975 365.604L36.3524 251.354L34.5234 249.525Z" fill="#39B077"/>
<path d="M57.3711 272.375L-56.8789 386.625L-55.0499 388.454L59.2001 274.204L57.3711 272.375Z" fill="#39B077"/>
<path d="M80.2207 295.226L-34.0293 409.476L-32.2003 411.305L82.0497 297.055L80.2207 295.226Z" fill="#39B077"/>
<path d="M103.072 318.075L-11.1777 432.325L-9.34872 434.154L104.901 319.904L103.072 318.075Z" fill="#39B077"/>
<path d="M125.922 340.925L11.6719 455.175L13.5009 457.004L127.751 342.754L125.922 340.925Z" fill="#39B077"/>
</g>
</svg>
