<svg width="240" height="457" viewBox="0 0 240 457" fill="none" xmlns="http://www.w3.org/2000/svg">
<g opacity="0.25" clip-path="url(#clip0_2201_10252)">
<path d="M45.7 228.5L0 274.2V270.544L42.044 228.5L21.022 207.478L22.85 205.65L45.7 228.5Z" fill="#39B077"/>
<path d="M91.4 228.5L0 319.9V316.244L87.744 228.5L43.872 184.628L45.7 182.8L91.4 228.5Z" fill="#39B077"/>
<path d="M19.1934 342.75H22.8494L137.099 228.5L68.5494 159.95L66.7214 161.778L133.443 228.5L19.1934 342.75Z" fill="#39B077"/>
<path d="M64.8945 342.75H68.5505L182.801 228.5L91.4005 137.1L89.5725 138.928L179.145 228.5L64.8945 342.75Z" fill="#39B077"/>
<path d="M110.594 342.75H114.25L228.5 228.5L114.25 114.25L112.422 116.078L224.844 228.5L110.594 342.75Z" fill="#39B077"/>
<path d="M22.85 114.25L0 137.1V133.444L19.194 114.25H22.85Z" fill="#39B077"/>
<path d="M68.55 114.25L0 182.8V179.144L64.894 114.25H68.55Z" fill="#39B077"/>
<path d="M114.25 114.25L0 228.5V224.844L110.594 114.25H114.25Z" fill="#39B077"/>
<path d="M45.6995 457H42.0435L21.0215 435.978L22.8495 434.15L45.6995 457Z" fill="#39B077"/>
<path d="M91.3991 457H87.7431L43.8711 413.128L45.6991 411.3L91.3991 457Z" fill="#39B077"/>
<path d="M137.101 457H133.445L66.7227 390.278L68.5507 388.45L137.101 457Z" fill="#39B077"/>
<path d="M182.8 457H179.144L89.5723 367.428L91.4003 365.6L182.8 457Z" fill="#39B077"/>
<path d="M228.5 457H224.844L112.422 344.578L114.25 342.75L228.5 457Z" fill="#39B077"/>
<path d="M22.85 342.75L0 365.6V361.944L19.194 342.75H22.85Z" fill="#39B077"/>
<path d="M68.55 342.75L0 411.3V407.644L64.894 342.75H68.55Z" fill="#39B077"/>
<path d="M114.25 342.75L0 457V453.344L110.594 342.75H114.25Z" fill="#39B077"/>
<path d="M45.7 0L0 45.7V42.044L42.044 0H45.7Z" fill="#39B077"/>
<path d="M91.4 0L0 91.4V87.744L87.744 0H91.4Z" fill="#39B077"/>
<path d="M137.099 0L22.8494 114.25H19.1934L133.443 0H137.099Z" fill="#39B077"/>
<path d="M182.801 0L68.5505 114.25H64.8945L179.145 0H182.801Z" fill="#39B077"/>
<path d="M228.5 0L114.25 114.25H110.594L224.844 0H228.5Z" fill="#39B077"/>
<path d="M249.525 21.0235L135.275 135.273L137.104 137.102L251.354 22.8525L249.525 21.0235Z" fill="#39B077"/>
<path d="M272.373 43.8731L158.123 158.123L159.952 159.952L274.202 45.7021L272.373 43.8731Z" fill="#39B077"/>
<path d="M295.223 66.7227L180.973 180.973L182.802 182.802L297.052 68.5517L295.223 66.7227Z" fill="#39B077"/>
<path d="M318.074 89.5733L203.824 203.823L205.653 205.652L319.903 91.4023L318.074 89.5733Z" fill="#39B077"/>
<path d="M340.924 112.423L226.674 226.673L228.503 228.502L342.753 114.252L340.924 112.423Z" fill="#39B077"/>
<path d="M249.525 249.523L135.275 363.773L137.104 365.602L251.354 251.352L249.525 249.523Z" fill="#39B077"/>
<path d="M272.373 272.373L158.123 386.623L159.952 388.452L274.202 274.202L272.373 272.373Z" fill="#39B077"/>
<path d="M295.223 295.223L180.973 409.473L182.802 411.302L297.052 297.052L295.223 295.223Z" fill="#39B077"/>
<path d="M318.074 318.073L203.824 432.323L205.653 434.152L319.903 319.902L318.074 318.073Z" fill="#39B077"/>
<path d="M340.924 340.923L226.674 455.173L228.503 457.002L342.753 342.752L340.924 340.923Z" fill="#39B077"/>
</g>
<defs>
<clipPath id="clip0_2201_10252">
<rect width="240" height="457" fill="white"/>
</clipPath>
</defs>
</svg>
