<svg width="611" height="624" viewBox="0 0 611 624" fill="none" xmlns="http://www.w3.org/2000/svg">
<g opacity="0.7" clip-path="url(#clip0_2201_1348)">
<g clip-path="url(#clip1_2201_1348)">
<g>
<path d="M787.124 531.546C768.829 473.315 720.596 428.157 666.052 400.798C611.508 373.434 550.638 361.691 490.41 351.896C430.183 342.1 369.158 333.83 311.95 312.603C240.821 286.213 177.248 239.795 130.434 180.079C90.6337 129.305 63.3341 70.0858 30.3157 14.6602C-2.69759 -40.7704 -43.6369 -94.4145 -100.855 -124.197" stroke="#39B077" stroke-width="0.25" stroke-miterlimit="10"/>
<path d="M790.435 529.077C770.269 474.976 722.427 434.153 668.73 409.8C615.014 385.457 555.424 375.566 496.305 366.223C435.019 356.708 373.888 345.046 318 320.673C314.393 319.102 310.811 317.476 307.259 315.8C248.552 288.095 196.837 246.304 155.266 195.319C150.881 189.945 146.612 184.465 142.454 178.89C107.193 131.573 80.4752 78.0998 49.1775 28.6158C45.7663 23.2212 42.3049 17.8819 38.7834 12.5978C2.96083 -41.1818 -41.2743 -90.982 -98.9887 -121.989" stroke="#39B077" stroke-width="0.45" stroke-miterlimit="10"/>
<path d="M793.751 526.608C771.709 476.632 724.263 440.145 671.415 418.808C618.526 397.486 560.235 389.301 502.204 380.554C439.88 371.16 378.629 356.272 324.06 328.747C320.538 326.976 317.052 325.149 313.595 323.272C256.488 292.265 207.452 247.558 166.994 194.692C162.73 189.122 158.557 183.456 154.473 177.7C119.84 128.859 92.1337 74.557 58.4532 26.1368C54.7811 20.8577 51.0489 15.6589 47.2514 10.5354C8.62466 -41.5883 -38.9113 -87.5546 -97.1173 -119.781" stroke="#39B077" stroke-width="0.64" stroke-miterlimit="10"/>
<path d="M797.062 524.134C773.143 478.288 726.094 446.132 674.093 427.81C622.027 409.509 565.03 403.126 508.099 394.881C444.721 385.703 383.364 367.492 330.115 336.821C326.678 334.844 323.282 332.822 319.926 330.749C264.419 296.44 218.067 248.818 178.718 194.07C174.569 188.304 170.496 182.452 166.488 176.521C132.486 126.154 103.787 71.0242 67.7236 23.6679C63.7907 18.5042 59.7926 13.4459 55.7142 8.48293C14.2883 -41.9947 -36.5486 -84.1222 -95.2462 -117.573" stroke="#39B077" stroke-width="0.84" stroke-miterlimit="10"/>
<path d="M800.373 521.664C774.578 479.948 727.92 452.128 676.767 436.817C625.529 421.537 569.816 416.97 513.983 409.212C449.551 400.26 388.085 378.712 336.159 344.895C332.813 342.717 329.507 340.494 326.242 338.22C272.335 300.609 228.667 250.071 190.426 193.441C186.398 187.48 182.42 181.443 178.487 175.331C145.112 123.433 115.42 67.4856 76.9788 21.1881C72.785 16.1398 68.516 11.222 64.1617 6.42467C19.9516 -42.402 -34.191 -80.6956 -93.3802 -115.371" stroke="#39B077" stroke-width="1.04" stroke-miterlimit="10"/>
<path d="M803.683 519.191C776.018 481.6 729.751 458.115 679.446 445.821C629.035 433.561 574.602 430.822 519.877 423.54C454.387 414.829 392.82 389.934 342.214 352.965C338.953 350.586 335.738 348.162 332.573 345.688C280.266 304.775 239.281 251.322 202.155 192.81C198.247 186.653 194.364 180.425 190.506 174.143C157.764 120.719 127.078 63.9438 86.2592 18.7101C81.8046 13.7773 77.2647 9.00499 72.6345 4.36319C25.6152 -42.8125 -31.8283 -77.2672 -91.5091 -113.162" stroke="#39B077" stroke-width="1.23" stroke-miterlimit="10"/>
<path d="M807 516.722C777.458 483.261 731.587 464.107 682.13 454.823C632.542 445.585 579.393 444.687 525.777 437.867C459.228 429.406 397.556 401.154 348.274 361.039C345.099 358.46 341.979 355.835 338.909 353.166C288.202 308.951 249.901 252.576 213.883 192.193C210.091 185.84 206.308 179.427 202.526 172.968C170.411 118.014 138.737 60.4161 95.5349 16.2462C90.8194 11.4288 86.0087 6.79702 81.1026 2.3158C31.2791 -43.219 -29.4652 -73.8348 -89.6377 -110.954" stroke="#39B077" stroke-width="1.43" stroke-miterlimit="10"/>
<path d="M810.31 514.248C778.892 484.912 733.418 470.099 684.808 463.826C636.048 457.608 584.178 458.562 531.671 452.194C464.059 443.994 402.291 412.375 354.329 369.108C351.239 366.328 348.209 363.503 345.239 360.633C296.133 313.116 260.516 253.826 225.607 191.561C221.935 185.017 218.247 178.413 214.54 171.774C183.052 115.295 150.385 56.8682 104.805 13.7622C99.8339 9.06023 94.7472 4.56898 89.5652 0.253359C36.9425 -43.6254 -27.1026 -70.4074 -87.7717 -108.746" stroke="#39B077" stroke-width="1.62" stroke-miterlimit="10"/>
<path d="M813.621 511.778C780.327 486.572 735.249 476.089 687.482 472.833C639.55 469.636 588.959 472.451 537.56 466.525C468.89 458.606 407.017 423.594 360.379 377.181C357.374 374.201 354.439 371.17 351.565 368.104C304.054 317.285 271.126 255.08 237.33 190.932C233.774 184.193 230.187 177.403 226.56 170.589C195.704 112.584 162.043 53.3295 114.081 11.2873C108.849 6.70073 103.491 2.34998 98.0331 -1.80506C42.6062 -44.0329 -24.7398 -66.9759 -85.9005 -106.539" stroke="#39B077" stroke-width="1.82" stroke-miterlimit="10"/>
<path d="M816.932 509.306C781.767 488.229 737.075 482.077 690.161 481.836C643.052 481.661 593.74 486.352 543.455 480.853C473.716 473.225 411.753 434.816 366.434 385.257C363.519 382.075 360.67 378.843 357.896 375.582C311.985 321.461 281.741 256.34 249.054 190.311C245.617 183.376 242.126 176.396 238.574 169.406C208.345 109.87 173.696 49.7977 123.351 8.81436C117.858 4.34318 112.235 0.132942 106.496 -3.86151C48.2698 -44.4434 -22.377 -63.5475 -84.0344 -104.33" stroke="#39B077" stroke-width="2.02" stroke-miterlimit="10"/>
<path d="M820.248 506.836C783.206 489.884 738.911 488.073 692.845 490.838C646.563 493.683 598.525 500.262 549.354 495.179C478.552 487.862 416.488 446.036 372.494 393.325C369.664 389.938 366.91 386.51 364.232 383.048C319.921 325.625 292.361 257.589 260.782 189.678C257.461 182.547 254.07 175.381 250.594 168.215C220.992 107.154 185.35 46.2539 132.627 6.33444C126.873 1.97868 120.978 -2.09105 114.964 -5.92492C53.9333 -44.8508 -20.0143 -60.116 -82.1632 -102.123" stroke="#39B077" stroke-width="2.21" stroke-miterlimit="10"/>
<path d="M823.559 504.362C784.641 491.54 740.742 494.06 695.524 499.84C650.069 505.702 603.306 514.177 555.248 509.505C483.377 502.52 421.224 457.256 378.544 401.394C375.8 397.806 373.136 394.178 370.557 390.515C327.847 329.79 302.966 258.838 272.501 189.046C269.3 181.719 266.004 174.368 262.603 167.021C233.633 104.43 196.998 42.7062 141.897 3.85058C135.882 -0.389763 129.717 -4.31898 123.426 -7.98725C59.5969 -45.2571 -17.6516 -56.6885 -80.2921 -99.9199" stroke="#39B077" stroke-width="2.41" stroke-miterlimit="10"/>
<path d="M826.87 501.894C786.076 493.202 742.573 500.052 698.197 508.849C653.571 517.731 608.082 528.114 561.138 523.838C488.198 517.199 425.949 468.478 384.593 409.474C381.935 405.686 379.366 401.857 376.883 397.998C335.773 333.971 313.575 260.099 284.224 188.43C281.139 180.907 277.943 173.37 274.617 165.848C246.274 101.731 208.651 39.1794 151.167 1.38767C144.892 -2.73726 138.456 -6.52095 131.889 -10.0337C65.2604 -45.6676 -15.2939 -53.2601 -78.4261 -97.7109" stroke="#39B077" stroke-width="2.61" stroke-miterlimit="10"/>
<path d="M830.181 499.424C787.516 494.857 744.404 506.048 700.876 517.856C657.073 529.759 612.857 542.124 567.032 538.169C493.014 532.007 430.685 479.703 390.648 417.548C388.08 413.558 385.597 409.529 383.214 405.469C343.704 338.14 324.19 261.352 295.948 187.801C292.983 180.083 289.883 172.355 286.632 164.663C258.921 99.015 220.299 35.6407 160.438 -1.08726C153.901 -5.09676 147.194 -8.73994 140.347 -12.0921C70.9242 -46.075 -12.931 -49.8286 -76.5547 -95.5039" stroke="#39B077" stroke-width="2.8" stroke-miterlimit="10"/>
<path d="M833.496 496.951C744.103 496.073 662.054 559.477 572.931 552.497C493.034 546.239 427.464 483.568 389.555 412.942C351.645 342.311 334.815 262.608 307.681 187.175C280.547 111.742 239.256 36.284 169.718 -3.56523C93.9948 -46.9522 -4.24256 -41.7735 -74.6887 -93.2949" stroke="#39B077" stroke-width="3" stroke-miterlimit="10"/>
</g>
<g>
<path d="M783.426 264.634C736.728 303.915 671.795 316.082 611.097 309.845C550.395 303.612 492.746 280.805 436.683 256.7C380.621 232.595 324.705 206.775 265.052 193.935C190.884 177.969 112.335 182.954 40.784 208.161C-20.0505 229.596 -74.8748 264.871 -132.486 293.874C-190.096 322.883 -253.432 346.127 -317.687 340.497" stroke="#39725E" stroke-width="0.25" stroke-miterlimit="10"/>
<path d="M784.893 268.496C738.834 303.288 676.559 312.008 618.19 303.692C559.809 295.356 504.232 271.674 449.348 247.784C392.543 222.874 334.717 199.858 274.487 190.381C270.602 189.767 266.707 189.213 262.812 188.718C198.415 180.536 132.354 187.992 69.9125 208.652C63.3284 210.829 56.7852 213.156 50.2838 215.624C-4.86471 236.582 -56.1131 267.324 -109.083 292.24C-114.857 294.957 -120.643 297.6 -126.451 300.164C-185.544 326.271 -249.596 344.501 -314.928 339.638" stroke="#39725E" stroke-width="0.45" stroke-miterlimit="10"/>
<path d="M786.363 272.36C740.937 302.664 681.324 307.941 625.289 297.536C569.229 287.097 515.664 262.675 462.019 238.866C404.403 213.296 344.743 192.937 283.934 186.827C280.012 186.428 276.091 186.095 272.168 185.821C207.348 181.283 141.981 192.637 79.4685 215.483C72.881 217.89 66.3184 220.425 59.7835 223.085C4.34487 245.667 -48.1817 276.576 -102.59 299.315C-108.522 301.794 -114.462 304.173 -120.416 306.453C-180.985 329.657 -245.763 342.88 -312.164 338.78" stroke="#39725E" stroke-width="0.64" stroke-miterlimit="10"/>
<path d="M787.828 276.226C743.036 302.039 686.084 303.876 632.383 291.383C578.638 278.838 527.133 253.592 474.683 229.951C416.295 203.632 354.762 186.019 293.377 183.271C289.417 183.092 285.466 182.972 281.523 182.917C216.28 182.024 151.611 197.28 89.0239 222.309C82.4286 224.942 75.8509 227.688 69.2852 230.537C13.5606 254.745 -40.2483 285.819 -96.0954 306.379C-102.185 308.621 -108.274 310.738 -114.379 312.733C-176.425 333.044 -241.926 341.255 -309.4 337.924" stroke="#39725E" stroke-width="0.84" stroke-miterlimit="10"/>
<path d="M789.295 280.087C745.138 301.409 690.844 299.799 639.475 285.222C588.05 270.575 538.604 244.486 487.342 221.025C428.187 193.95 364.769 179.092 302.811 179.709C298.82 179.748 294.837 179.846 290.862 180.008C225.196 182.761 161.226 201.918 98.5634 229.13C91.9646 231.993 85.3677 234.947 78.7684 237.988C22.751 263.824 -32.3349 295.054 -89.6192 313.443C-95.8672 315.448 -102.109 317.301 -108.357 319.007C-171.866 336.43 -238.097 339.631 -306.642 337.068" stroke="#39725E" stroke-width="1.04" stroke-miterlimit="10"/>
<path d="M790.759 283.953C747.239 300.79 695.602 295.734 646.568 279.07C597.463 262.319 550.077 235.377 500.006 212.109C440.087 184.263 374.787 172.173 312.251 176.158C308.223 176.412 304.209 176.728 300.211 177.113C234.122 183.51 170.85 206.568 108.117 235.966C101.514 239.059 94.8954 242.225 88.268 245.451C31.9646 272.913 -24.4037 304.307 -83.1225 320.522C-89.5286 322.288 -95.9205 323.874 -102.318 325.3C-167.31 339.821 -234.264 338.01 -303.879 336.212" stroke="#39725E" stroke-width="1.23" stroke-miterlimit="10"/>
<path d="M792.23 287.818C749.344 300.163 700.367 291.668 653.665 272.919C606.876 254.063 561.562 226.258 512.674 203.197C451.997 174.569 384.806 165.255 321.697 172.605C317.634 173.074 313.593 173.61 309.57 174.212C243.058 184.254 180.482 211.218 117.678 242.79C111.068 246.11 104.434 249.486 97.7757 252.901C41.1795 281.99 -16.4643 313.548 -76.6218 327.585C-83.186 329.114 -89.7309 330.435 -96.2753 331.578C-162.751 343.207 -230.428 336.385 -301.115 335.355" stroke="#39725E" stroke-width="1.43" stroke-miterlimit="10"/>
<path d="M793.694 291.684C751.441 299.542 705.129 287.598 660.758 266.766C616.29 245.806 573.049 217.127 525.339 194.281C463.905 164.862 394.825 158.336 331.137 169.053C327.038 169.737 322.965 170.492 318.919 171.317C251.984 185.003 190.106 215.868 127.228 249.623C120.617 253.169 113.961 256.757 107.269 260.364C50.3826 291.078 -8.54355 322.8 -70.1355 334.662C-76.8535 335.956 -83.5557 337.01 -90.244 337.865C-158.192 346.594 -226.595 334.764 -298.355 334.496" stroke="#39725E" stroke-width="1.62" stroke-miterlimit="10"/>
<path d="M795.161 295.544C753.543 298.911 709.891 283.528 667.85 260.605C625.702 237.542 584.54 207.981 538.002 185.357C475.826 155.133 404.836 151.412 340.576 165.494C336.441 166.393 332.338 167.372 328.267 168.413C260.905 185.742 199.73 220.511 136.78 256.452C130.161 260.224 123.49 264.023 116.772 267.822C59.5998 300.162 -0.608779 332.048 -63.6394 341.732C-70.5155 342.789 -77.3707 343.579 -84.2055 344.15C-153.632 349.98 -222.758 333.138 -295.591 333.639" stroke="#39725E" stroke-width="1.82" stroke-miterlimit="10"/>
<path d="M796.625 299.41C755.646 298.288 714.644 279.46 674.943 254.452C635.111 229.283 596.035 198.826 550.666 176.442C487.744 145.397 414.855 144.493 350.018 161.938C345.851 163.055 341.712 164.249 337.621 165.509C269.836 186.483 209.359 225.153 146.334 263.277C139.712 267.279 133.019 271.29 126.27 275.277C68.8044 309.245 7.32311 341.29 -57.1489 348.801C-64.1831 349.62 -71.1871 350.149 -78.1727 350.434C-149.077 353.37 -218.926 331.517 -292.832 332.779" stroke="#39725E" stroke-width="2.02" stroke-miterlimit="10"/>
<path d="M798.096 303.274C757.75 297.665 719.413 275.388 682.04 248.3C644.529 221.029 607.541 189.665 563.335 167.528C499.684 135.65 424.874 137.574 359.462 158.388C355.257 159.724 351.094 161.135 346.975 162.616C278.767 187.234 218.988 229.806 155.888 270.112C149.258 274.342 142.55 278.563 135.77 282.739C78.0148 318.33 15.2511 350.54 -50.6554 355.875C-57.8477 356.457 -65.0048 356.722 -72.1368 356.723C-144.517 356.756 -215.089 329.891 -290.068 331.922" stroke="#39725E" stroke-width="2.21" stroke-miterlimit="10"/>
<path d="M799.561 307.139C759.849 297.039 724.172 271.323 689.134 242.147C653.94 212.777 619.045 180.498 575.999 158.612C511.625 125.88 434.893 130.655 368.898 154.833C364.657 156.385 360.462 158.013 356.32 159.717C287.689 187.981 228.605 234.451 165.433 276.943C158.8 281.402 152.072 285.831 145.259 290.2C87.215 327.422 23.1715 359.792 -44.1695 362.952C-51.5198 363.296 -58.8299 363.297 -66.1058 363.01C-139.958 360.142 -211.256 328.27 -287.306 331.069" stroke="#39725E" stroke-width="2.41" stroke-miterlimit="10"/>
<path d="M801.028 311.001C761.951 296.409 728.934 267.254 696.226 235.987C663.352 204.514 630.556 171.311 588.662 149.689C523.572 116.091 444.904 123.731 378.34 151.27C374.063 153.037 369.84 154.886 365.674 156.806C296.619 188.715 238.231 239.09 174.991 283.764C168.35 288.45 161.607 293.09 154.763 297.647C96.4287 336.492 31.1071 369.03 -37.6727 370.012C-45.181 370.119 -52.6416 369.851 -60.0666 369.285C-135.402 363.533 -207.427 326.647 -284.547 330.21" stroke="#39725E" stroke-width="2.61" stroke-miterlimit="10"/>
<path d="M802.496 314.862C764.055 295.785 733.699 263.179 703.322 229.829C672.764 196.249 642.107 162.06 601.33 140.768C535.586 106.189 454.927 116.807 387.782 147.714C383.474 149.698 379.216 151.762 375.026 153.906C305.548 189.459 247.858 243.736 184.543 290.592C177.898 295.508 171.134 300.36 164.261 305.101C105.639 345.577 39.0329 378.273 -31.1814 377.08C-38.8478 376.949 -46.4614 376.417 -54.0372 375.565C-130.843 366.919 -203.591 325.021 -281.783 329.353" stroke="#39725E" stroke-width="2.8" stroke-miterlimit="10"/>
<path d="M803.965 318.729C728.089 271.43 692.923 173.861 613.999 131.854C543.245 94.1954 454.285 111.816 384.387 151.01C314.486 190.208 257.494 248.386 194.104 297.426C130.714 346.465 55.3688 387.917 -24.6839 384.157C-111.854 380.056 -191.938 322.896 -279.023 328.492" stroke="#39725E" stroke-width="3" stroke-miterlimit="10"/>
</g>
</g>
</g>
<defs>
<clipPath id="clip0_2201_1348">
<rect width="624" height="611" fill="white" transform="matrix(1.39071e-07 1 1 -1.39071e-07 0 0)"/>
</clipPath>
<clipPath id="clip1_2201_1348">
<rect width="1058" height="1458" fill="white" transform="matrix(1.39071e-07 1 1 -1.39071e-07 -442 -244)"/>
</clipPath>
</defs>
</svg>
