<svg width="23" height="23" viewBox="0 0 23 23" fill="none" xmlns="http://www.w3.org/2000/svg">
<g id="&#240;&#159;&#166;&#134; icon &#34;linkedin&#34;">
<path id="Vector" d="M0 6.17009H4.8984V22.1841H0V6.17009ZM18.7929 7.15919C19.7663 7.69299 20.567 8.50154 21.195 9.58484C21.823 10.6681 22.137 11.775 22.137 12.9054V22.1841H17.1915V12.9054C17.1915 12.6542 17.0973 12.3716 16.9089 12.0576C16.7205 11.7436 16.5478 11.5395 16.3908 11.4453C16.1396 11.2883 15.7942 11.2098 15.3546 11.2098C14.915 11.2098 14.5696 11.2726 14.3184 11.3982L12.2931 12.3873V22.1841H7.34759V6.17009H12.2931V6.92369C13.2665 6.48409 14.3655 6.27999 15.5901 6.31139C16.8147 6.34279 17.8823 6.62539 18.7929 7.15919ZM2.4492 0C3.14 0 3.7209 0.2355 4.1919 0.706499C4.6629 1.1775 4.8984 1.7584 4.8984 2.4492C4.8984 3.14 4.6629 3.72875 4.1919 4.21545C3.7209 4.70215 3.14 4.9455 2.4492 4.9455C1.7584 4.9455 1.1775 4.70215 0.706499 4.21545C0.2355 3.72875 0 3.14 0 2.4492C0 1.7584 0.2355 1.1775 0.706499 0.706499C1.1775 0.2355 1.7584 0 2.4492 0Z" fill="#6D6D6D"/>
</g>
</svg>
