<svg width="165" height="56" viewBox="0 0 165 56" fill="none" xmlns="http://www.w3.org/2000/svg">
<path d="M0.507175 28.5951L2.14135 28.4633C3.99341 28.3773 4.59548 27.9071 4.68149 26.141L5.32369 4.29465C4.97965 3.65244 4.20557 3.30267 3.12759 3.17653L1.3214 3.00451L1.18952 2.3623H9.10236L17.4453 24.2488H17.5313L26.0462 2.3623H33.8272L33.701 3.00451L31.2068 3.13065C30.0886 3.2568 29.7446 3.60657 29.7045 3.8646L30.1746 26.6972C30.2205 27.9873 30.4785 28.3314 32.1127 28.4575L33.8731 28.5894L34.0049 29.2316H22.9957L23.1276 28.5894L25.4499 28.4174C26.6139 28.3314 26.912 27.8555 26.8662 26.6112L26.3501 4.33478H26.2239L16.5049 28.9736H15.8168L6.83172 5.32102C6.65971 4.93685 6.2698 4.54694 6.14365 4.32905L5.62759 26.1754C5.54158 27.8497 6.3558 28.3715 8.63792 28.4518L10.0542 28.5837L10.1861 29.2259H0.381027L0.507175 28.5837V28.5951Z" fill="black"/>
<path d="M46.2189 26.6633L46.1329 26.6175C44.5446 28.2516 42.7384 29.7138 40.6742 29.7138C38.0939 29.7138 36.0756 27.8216 36.0756 25.4133C36.0756 22.3571 38.5297 20.3388 46.4827 18.4064L46.5285 16.9443C46.6547 12.5979 44.7224 11.3537 42.2682 11.3537C40.548 11.3537 38.7017 12.3456 38.7017 12.8158C38.7017 13.1197 39.6937 13.8078 39.6937 14.8801C39.6937 15.7803 38.9655 16.6002 37.8015 16.6002C36.7235 16.6002 35.9093 15.958 35.9093 14.9259C35.9093 12.8216 40.6857 10.1553 44.04 10.1553C47.9104 10.1553 49.7568 11.6576 49.4987 16.95L49.0687 26.1071C49.0286 27.3973 49.4987 27.8675 50.3588 27.8675C51.001 27.8675 51.6948 27.3113 52.3829 26.6633L52.727 27.0475C51.8267 28.1656 50.5366 29.7539 48.9425 29.7539C47.4403 29.7539 46.3221 28.6759 46.2361 26.6576L46.2189 26.6633ZM46.2189 25.8491L46.4368 19.1002C40.462 20.5624 39.0859 22.3227 39.0859 24.6048C39.0859 26.5831 40.4162 27.7872 42.1363 27.7872C43.6845 27.7872 44.9345 27.0532 46.2189 25.8491Z" fill="black"/>
<path d="M53.7465 28.5955L54.8646 28.5497C55.9827 28.4637 56.4128 28.3776 56.4128 27.9075V15.31C56.4128 12.9877 56.1146 12.5577 54.8646 12.3455L53.5344 12.1276L53.5745 11.6976L59.3772 10.2354L59.2912 16.9441H59.3772C60.9713 12.5175 62.7316 10.1494 65.18 10.1494C66.6823 10.1494 67.6284 11.1815 67.6284 12.2996C67.6284 13.4178 66.9002 14.404 65.6502 14.404C64.6181 14.404 63.6318 13.6701 63.4598 12.2079C61.7396 12.724 60.4954 14.7423 59.3314 18.4006V27.9877C59.3314 28.3318 59.5034 28.4579 61.0057 28.5439L62.7717 28.5898L62.9036 29.232H53.6146L53.7408 28.5898L53.7465 28.5955Z" fill="black"/>
<path d="M79.417 26.6633L79.331 26.6175C77.7427 28.2516 75.9365 29.7138 73.8723 29.7138C71.292 29.7138 69.2679 27.8216 69.2679 25.4133C69.2679 22.3571 71.7221 20.3388 79.6751 18.4064L79.7152 16.9443C79.8413 12.5979 77.909 11.3537 75.4606 11.3537C73.7404 11.3537 71.8941 12.3456 71.8941 12.8158C71.8941 13.1197 72.8861 13.8078 72.8861 14.8801C72.8861 15.7803 72.1521 16.6002 70.9938 16.6002C69.9159 16.6002 69.1016 15.958 69.1016 14.9259C69.1016 12.8216 73.878 10.1553 77.2266 10.1553C81.0971 10.1553 82.9434 11.6576 82.6854 16.95L82.2553 26.1071C82.2095 27.3973 82.6854 27.8675 83.5455 27.8675C84.1877 27.8675 84.8815 27.3113 85.5638 26.6633L85.9079 27.0475C85.0019 28.1656 83.7118 29.7539 82.1235 29.7539C80.6212 29.7539 79.503 28.6759 79.417 26.6576V26.6633ZM79.417 25.8491L79.6349 19.1002C73.6601 20.5624 72.284 22.3227 72.284 24.6048C72.284 26.5831 73.62 27.7872 75.3402 27.7872C76.8884 27.7872 78.1326 27.0532 79.4228 25.8491H79.417Z" fill="black"/>
<path d="M89.1824 25.327L89.4003 12.5116L86.0459 12.4256L86.1778 11.6974L91.9404 6.88086L92.4565 7.01274L92.4106 10.7971H98.7753L98.2592 12.4313H92.4106C92.4106 12.4313 92.1124 24.8568 92.1124 24.9027C92.0666 26.9669 93.1904 27.913 95.0367 27.913C96.539 27.913 97.6629 27.1848 98.695 26.4107L98.953 26.8408C97.359 28.3889 95.5528 29.8511 93.4484 29.8511C91.0402 29.8511 89.148 28.6871 89.1881 25.3327L89.1824 25.327Z" fill="black"/>
<path d="M100.192 28.5952L101.27 28.5494C102.348 28.4633 102.772 28.3773 102.772 27.9071V4.16858C102.772 2.79244 102.554 2.40826 101.436 2.19037L99.8477 1.84633L99.8936 1.41629L105.742 0V13.7615L105.828 13.8074C107.675 12.3051 110.129 10.195 113.007 10.195C114.343 10.195 115.501 10.625 116.362 11.4392C117.348 12.4713 117.778 13.8876 117.778 15.7397V27.953C117.778 28.2512 117.818 28.4289 119.584 28.5551L120.616 28.601L120.742 29.2432H112.015L112.147 28.601L113.305 28.5551C114.595 28.4691 114.808 28.2512 114.808 27.9129V16.7259C114.808 13.6697 113.431 12.4255 110.937 12.4255C108.873 12.4255 107.067 13.4576 105.731 14.6617V27.9932C105.731 28.3372 105.949 28.4232 107.537 28.5494L108.655 28.5952L108.787 29.2374H100.06L100.192 28.5952Z" fill="black"/>
<path d="M122.336 20.0806C122.336 14.5359 126.551 10.1494 132.055 10.1494C137.56 10.1494 141.556 14.318 141.556 19.7825C141.556 25.2469 137.388 29.8455 131.923 29.8455C126.459 29.8455 122.336 25.6311 122.336 20.0864V20.0806ZM138.122 20.4247C138.122 17.1563 137.388 14.1919 135.759 12.5577C134.813 11.6116 133.563 10.8776 131.889 10.8776C128.191 10.8776 125.782 14.8341 125.782 19.4327C125.782 22.8272 126.556 25.8375 128.236 27.5176C129.137 28.4637 130.427 29.1059 132.061 29.1059C135.627 29.1059 138.127 25.1494 138.127 20.4189L138.122 20.4247Z" fill="black"/>
<path d="M143.839 28.5954L144.957 28.5496C146.075 28.4636 146.505 28.3776 146.505 27.9074V15.3099C146.505 12.9876 146.207 12.5576 144.957 12.3454L143.581 12.1275L143.627 11.6975L149.476 10.2353L149.39 13.8018L149.516 13.842C151.362 12.2938 153.816 10.1895 156.7 10.1895C158.031 10.1895 159.235 10.5736 160.055 11.4337C161.041 12.42 161.471 13.8821 161.471 15.7743V27.9418C161.471 28.2399 161.557 28.3718 163.277 28.5438L164.355 28.5897L164.481 29.2319H155.794L155.926 28.5897L157.044 28.5438C158.335 28.4578 158.547 28.2399 158.547 27.9016V16.7262C158.547 13.67 157.171 12.4257 154.636 12.4257C152.612 12.4257 150.806 13.4578 149.43 14.6619V27.9934C149.43 28.3374 149.688 28.4234 151.236 28.5496L152.354 28.5954L152.48 29.2376H143.707L143.839 28.5954Z" fill="black"/>
<path d="M32.1131 51.2128C32.1131 48.4793 33.8094 46.6787 36.3472 46.6787C38.5066 46.6787 39.9288 47.84 40.2811 49.9994H38.3174C38.0825 48.9295 37.404 48.4206 36.3733 48.4206C35.0293 48.4206 34.2791 49.3992 34.2791 51.115V51.2976C34.2791 53.0199 35.0098 53.992 36.3341 53.992C37.4301 53.992 38.1347 53.4962 38.3369 52.2306H40.3202C40.0593 54.6509 38.474 55.7339 36.2689 55.7339C33.7833 55.7339 32.1131 53.9333 32.1131 51.2259V51.2128Z" fill="black"/>
<path d="M51.8743 46.8604H54.2163L57.2891 55.5371H55.0775L54.3338 53.3647H51.3263L50.5695 55.5371H48.6971L51.8743 46.8604ZM53.8836 51.9033L52.8789 48.9089L51.809 51.9033H53.8902H53.8836Z" fill="black"/>
<path d="M66.5213 46.8604H69.7246C72.2102 46.8604 73.3453 47.7737 73.3453 49.6852C73.3453 51.5967 72.1188 52.6144 69.5941 52.6144H68.6286V55.5437H66.5213V46.8669V46.8604ZM69.555 51.1988C70.8467 51.1727 71.3034 50.6638 71.3034 49.6852C71.3034 48.7066 70.8075 48.3152 69.568 48.3152H68.6286V51.2053H69.555V51.1988Z" fill="black"/>
<path d="M82.8182 46.8604H84.9189V55.5371H82.8182V46.8604Z" fill="black"/>
<path d="M96.7991 48.5044H94.3135V46.8604H101.372V48.5044H98.8998V55.5371H96.7991V48.5044Z" fill="black"/>
<path d="M111.988 46.8604H114.33L117.402 55.5371H115.191L114.447 53.3647H111.44L110.683 55.5371H108.81L111.988 46.8604ZM113.997 51.9033L112.992 48.9089L111.922 51.9033H113.997Z" fill="black"/>
<path d="M126.64 46.8604H128.748V53.9323H132.447V55.5371H126.647V46.8604H126.64Z" fill="black"/>
<path d="M0 38.2207H164.914" stroke="#39B077" stroke-width="0.432844"/>
</svg>
