<svg width="191" height="65" viewBox="0 0 191 65" fill="none" xmlns="http://www.w3.org/2000/svg">
<path d="M0.585173 33.0314L2.47289 32.879C4.6123 32.7797 5.30778 32.2365 5.40713 30.1965L6.14897 4.96066C5.75156 4.21882 4.85737 3.81478 3.61214 3.66906L1.52572 3.47036L1.37338 2.72852H10.5139L20.1512 28.0107H20.2506L30.0866 2.72852H39.0748L38.929 3.47036L36.0478 3.61607C34.7562 3.76179 34.3588 4.16583 34.3124 4.46389L34.8555 30.839C34.9085 32.3293 35.2066 32.7267 37.0943 32.8724L39.1278 33.0247L39.2801 33.7666H26.5628L26.7152 33.0247L29.3977 32.826C30.7423 32.7267 31.0867 32.1769 31.0337 30.7396L30.4376 5.00703H30.2919L19.0649 33.4685H18.2701L7.89097 6.14628C7.69227 5.7025 7.24187 5.2521 7.09615 5.0004L6.50002 30.2362C6.40067 32.1703 7.34121 32.773 9.9774 32.8658L11.6134 33.0181L11.7658 33.76H0.439453L0.585173 33.0181V33.0314Z" fill="white"/>
<path d="M53.3887 30.7997L53.2893 30.7467C51.4546 32.6345 49.3682 34.3235 46.9837 34.3235C44.0031 34.3235 41.6716 32.1377 41.6716 29.3558C41.6716 25.8254 44.5064 23.4939 53.6933 21.2618L53.7463 19.5728C53.892 14.5521 51.6599 13.1148 48.825 13.1148C46.8379 13.1148 44.7052 14.2607 44.7052 14.8038C44.7052 15.1549 45.851 15.9497 45.851 17.1883C45.851 18.2282 45.0098 19.1754 43.6653 19.1754C42.42 19.1754 41.4795 18.4335 41.4795 17.2413C41.4795 14.8104 46.9969 11.7305 50.8717 11.7305C55.3426 11.7305 57.4754 13.4658 57.1773 19.5794L56.6806 30.1572C56.6342 31.6476 57.1773 32.1907 58.1709 32.1907C58.9127 32.1907 59.7142 31.5482 60.509 30.7997L60.9064 31.2435C59.8665 32.5351 58.3762 34.3698 56.5349 34.3698C54.7995 34.3698 53.5079 33.1246 53.4085 30.7931L53.3887 30.7997ZM53.3887 29.8592L53.6404 22.0632C46.7386 23.7523 45.1489 25.7857 45.1489 28.4219C45.1489 30.707 46.6856 32.098 48.6727 32.098C50.461 32.098 51.905 31.2501 53.3887 29.8592Z" fill="white"/>
<path d="M62.0848 33.0317L63.3763 32.9787C64.6679 32.8793 65.1647 32.78 65.1647 32.2368V17.6848C65.1647 15.0023 64.8203 14.5055 63.3763 14.2605L61.8397 14.0088L61.886 13.512L68.5891 11.823L68.4897 19.5726H68.5891C70.4305 14.4592 72.4639 11.7236 75.2922 11.7236C77.0275 11.7236 78.1204 12.9159 78.1204 14.2075C78.1204 15.4991 77.2792 16.6383 75.8353 16.6383C74.643 16.6383 73.5038 15.7905 73.3051 14.1015C71.318 14.6976 69.8807 17.0291 68.5361 21.255V32.3296C68.5361 32.727 68.7348 32.8727 70.4702 32.9721L72.5103 33.025L72.6626 33.7669H61.9324L62.0781 33.025L62.0848 33.0317Z" fill="white"/>
<path d="M91.739 30.7997L91.6397 30.7467C89.805 32.6345 87.7185 34.3235 85.334 34.3235C82.3534 34.3235 80.0153 32.1377 80.0153 29.3558C80.0153 25.8254 82.8502 23.4939 92.0371 21.2618L92.0835 19.5728C92.2292 14.5521 89.997 13.1148 87.1688 13.1148C85.1817 13.1148 83.0489 14.2607 83.0489 14.8038C83.0489 15.1549 84.1948 15.9497 84.1948 17.1883C84.1948 18.2282 83.347 19.1754 82.009 19.1754C80.7638 19.1754 79.8232 18.4335 79.8232 17.2413C79.8232 14.8104 85.3407 11.7305 89.2088 11.7305C93.6797 11.7305 95.8125 13.4658 95.5145 19.5794L95.0177 30.1572C94.9647 31.6476 95.5145 32.1907 96.508 32.1907C97.2499 32.1907 98.0513 31.5482 98.8395 30.7997L99.2369 31.2435C98.1904 32.5351 96.7001 34.3698 94.8654 34.3698C93.13 34.3698 91.8384 33.1246 91.739 30.7931V30.7997ZM91.739 29.8592L91.9907 22.0632C85.089 23.7523 83.4993 25.7857 83.4993 28.4219C83.4993 30.707 85.0426 32.098 87.0297 32.098C88.8181 32.098 90.2554 31.2501 91.7457 29.8592H91.739Z" fill="white"/>
<path d="M103.018 29.2563L103.27 14.4526L99.3954 14.3532L99.5477 13.512L106.204 7.94824L106.801 8.10058L106.748 12.4721H114.1L113.504 14.3599H106.748C106.748 14.3599 106.403 28.7131 106.403 28.7661C106.35 31.1506 107.648 32.2435 109.781 32.2435C111.517 32.2435 112.815 31.4023 114.007 30.5081L114.305 31.0049C112.464 32.7933 110.377 34.4823 107.946 34.4823C105.165 34.4823 102.979 33.1377 103.025 29.2629L103.018 29.2563Z" fill="white"/>
<path d="M115.736 33.0318L116.982 32.9788C118.227 32.8794 118.717 32.7801 118.717 32.2369V4.81534C118.717 3.22568 118.465 2.7819 117.174 2.53021L115.339 2.13279L115.392 1.63602L122.148 0V15.8966L122.247 15.9496C124.38 14.2142 127.215 11.7767 130.54 11.7767C132.083 11.7767 133.421 12.2735 134.415 13.214C135.554 14.4063 136.051 16.0423 136.051 18.1817V32.2899C136.051 32.6343 136.097 32.8397 138.137 32.9854L139.33 33.0384L139.475 33.7802H129.394L129.547 33.0384L130.885 32.9854C132.375 32.886 132.62 32.6343 132.62 32.2436V19.321C132.62 15.7906 131.03 14.3533 128.149 14.3533C125.765 14.3533 123.678 15.5455 122.135 16.9365V32.3363C122.135 32.7337 122.387 32.8331 124.221 32.9788L125.513 33.0318L125.665 33.7736H115.584L115.736 33.0318Z" fill="white"/>
<path d="M141.316 23.1957C141.316 16.7907 146.185 11.7236 152.543 11.7236C158.902 11.7236 163.519 16.539 163.519 22.8512C163.519 29.1635 158.703 34.4756 152.391 34.4756C146.079 34.4756 141.316 29.6073 141.316 23.2023V23.1957ZM159.551 23.5931C159.551 19.8176 158.703 16.3933 156.822 14.5055C155.729 13.4126 154.285 12.5648 152.351 12.5648C148.079 12.5648 145.297 17.1351 145.297 22.4472C145.297 26.3684 146.191 29.8457 148.132 31.7864C149.172 32.8793 150.662 33.6212 152.55 33.6212C156.67 33.6212 159.558 29.0509 159.558 23.5865L159.551 23.5931Z" fill="white"/>
<path d="M166.155 33.0322L167.446 32.9792C168.738 32.8798 169.235 32.7805 169.235 32.2373V17.6854C169.235 15.0028 168.89 14.506 167.446 14.261L165.857 14.0093L165.91 13.5125L172.666 11.8235L172.566 15.9434L172.712 15.9897C174.845 14.2014 177.68 11.7705 181.011 11.7705C182.548 11.7705 183.939 12.2143 184.886 13.2078C186.025 14.3471 186.522 16.0361 186.522 18.2219V32.2771C186.522 32.6215 186.621 32.7739 188.609 32.9726L189.854 33.0256L190 33.7674H179.965L180.117 33.0256L181.409 32.9726C182.899 32.8732 183.144 32.6215 183.144 32.2307V19.3214C183.144 15.791 181.554 14.3537 178.627 14.3537C176.289 14.3537 174.202 15.5459 172.613 16.9369V32.3367C172.613 32.7341 172.911 32.8335 174.699 32.9792L175.991 33.0322L176.136 33.774H166.002L166.155 33.0322Z" fill="white"/>
<path d="M37.0957 59.1585C37.0957 56.0009 39.0551 53.9209 41.9866 53.9209C44.4811 53.9209 46.1239 55.2623 46.5309 57.7568H44.2625C43.9912 56.5209 43.2075 55.933 42.0168 55.933C40.4643 55.933 39.5977 57.0634 39.5977 59.0454V59.2564C39.5977 61.246 40.4417 62.3688 41.9716 62.3688C43.2376 62.3688 44.0515 61.7961 44.2851 60.3341H46.5761C46.2747 63.13 44.4434 64.381 41.8962 64.381C39.0249 64.381 37.0957 62.301 37.0957 59.1736V59.1585Z" fill="white"/>
<path d="M59.923 54.1309H62.6285L66.178 64.1539H63.6232L62.7641 61.6443H59.29L58.4158 64.1539H56.2529L59.923 54.1309ZM62.2441 59.9563L61.0836 56.4972L59.8476 59.9563H62.2517H62.2441Z" fill="white"/>
<path d="M76.8416 54.1309H80.5418C83.4131 54.1309 84.7244 55.1859 84.7244 57.394C84.7244 59.6021 83.3076 60.7777 80.3911 60.7777H79.2758V64.1614H76.8416V54.1384V54.1309ZM80.3459 59.1424C81.8381 59.1122 82.3656 58.5244 82.3656 57.394C82.3656 56.2636 81.7928 55.8114 80.361 55.8114H79.2758V59.1499H80.3459V59.1424Z" fill="white"/>
<path d="M95.6671 54.1309H98.0937V64.1539H95.6671V54.1309Z" fill="white"/>
<path d="M111.817 56.03H108.945V54.1309H117.099V56.03H114.243V64.1539H111.817V56.03Z" fill="white"/>
<path d="M129.362 54.1309H132.068L135.617 64.1539H133.063L132.204 61.6443H128.729L127.855 64.1539H125.692L129.362 54.1309ZM131.684 59.9563L130.523 56.4972L129.287 59.9563H131.684Z" fill="white"/>
<path d="M146.289 54.1309H148.723V62.3H152.996V64.1539H146.297V54.1309H146.289Z" fill="white"/>
<path d="M0 44.1504H190.5" stroke="#39B077" stroke-width="0.5"/>
</svg>
