<svg width="191" height="65" viewBox="0 0 191 65" fill="none" xmlns="http://www.w3.org/2000/svg">
<g id="Group 573">
<g id="Group">
<path id="Vector" d="M0.585173 33.0314L2.47289 32.879C4.6123 32.7797 5.30778 32.2365 5.40713 30.1965L6.14897 4.96066C5.75156 4.21882 4.85737 3.81478 3.61214 3.66906L1.52572 3.47036L1.37338 2.72852H10.5139L20.1512 28.0107H20.2506L30.0866 2.72852H39.0748L38.929 3.47036L36.0478 3.61607C34.7562 3.76179 34.3588 4.16583 34.3124 4.46389L34.8555 30.839C34.9085 32.3293 35.2066 32.7267 37.0943 32.8724L39.1278 33.0247L39.2801 33.7666H26.5628L26.7152 33.0247L29.3977 32.826C30.7423 32.7267 31.0867 32.1769 31.0337 30.7396L30.4376 5.00703H30.2919L19.0649 33.4685H18.2701L7.89097 6.14628C7.69227 5.7025 7.24187 5.2521 7.09615 5.0004L6.50002 30.2362C6.40067 32.1703 7.34121 32.773 9.9774 32.8658L11.6134 33.0181L11.7658 33.76H0.439453L0.585173 33.0181V33.0314Z" fill="black"/>
<path id="Vector_2" d="M53.3877 30.7997L53.2883 30.7467C51.4536 32.6345 49.3672 34.3235 46.9827 34.3235C44.0021 34.3235 41.6706 32.1377 41.6706 29.3558C41.6706 25.8254 44.5055 23.4939 53.6924 21.2618L53.7454 19.5728C53.8911 14.5521 51.659 13.1148 48.8241 13.1148C46.837 13.1148 44.7042 14.2607 44.7042 14.8038C44.7042 15.1549 45.8501 15.9497 45.8501 17.1883C45.8501 18.2282 45.0089 19.1754 43.6643 19.1754C42.4191 19.1754 41.4785 18.4335 41.4785 17.2413C41.4785 14.8104 46.996 11.7305 50.8707 11.7305C55.3417 11.7305 57.4745 13.4658 57.1764 19.5794L56.6796 30.1572C56.6333 31.6476 57.1764 32.1907 58.1699 32.1907C58.9118 32.1907 59.7132 31.5482 60.508 30.7997L60.9055 31.2435C59.8656 32.5351 58.3753 34.3698 56.5339 34.3698C54.7985 34.3698 53.5069 33.1246 53.4076 30.7931L53.3877 30.7997ZM53.3877 29.8592L53.6394 22.0632C46.7376 23.7523 45.148 25.7857 45.148 28.4219C45.148 30.707 46.6846 32.098 48.6717 32.098C50.4601 32.098 51.904 31.2501 53.3877 29.8592Z" fill="black"/>
<path id="Vector_3" d="M62.0849 33.0317L63.3765 32.9787C64.6681 32.8793 65.1649 32.78 65.1649 32.2368V17.6848C65.1649 15.0023 64.8204 14.5055 63.3765 14.2605L61.8398 14.0088L61.8862 13.512L68.5892 11.823L68.4899 19.5726H68.5892C70.4306 14.4592 72.4641 11.7236 75.2923 11.7236C77.0277 11.7236 78.1206 12.9159 78.1206 14.2075C78.1206 15.4991 77.2794 16.6383 75.8354 16.6383C74.6432 16.6383 73.504 15.7905 73.3052 14.1015C71.3182 14.6976 69.8809 17.0291 68.5363 21.255V32.3296C68.5363 32.727 68.735 32.8727 70.4704 32.9721L72.5104 33.025L72.6628 33.7669H61.9326L62.0783 33.025L62.0849 33.0317Z" fill="black"/>
<path id="Vector_4" d="M91.74 30.7997L91.6407 30.7467C89.8059 32.6345 87.7195 34.3235 85.335 34.3235C82.3544 34.3235 80.0163 32.1377 80.0163 29.3558C80.0163 25.8254 82.8512 23.4939 92.0381 21.2618L92.0844 19.5728C92.2302 14.5521 89.998 13.1148 87.1698 13.1148C85.1827 13.1148 83.0499 14.2607 83.0499 14.8038C83.0499 15.1549 84.1958 15.9497 84.1958 17.1883C84.1958 18.2282 83.348 19.1754 82.01 19.1754C80.7648 19.1754 79.8242 18.4335 79.8242 17.2413C79.8242 14.8104 85.3416 11.7305 89.2098 11.7305C93.6807 11.7305 95.8135 13.4658 95.5155 19.5794L95.0187 30.1572C94.9657 31.6476 95.5155 32.1907 96.509 32.1907C97.2508 32.1907 98.0523 31.5482 98.8405 30.7997L99.2379 31.2435C98.1914 32.5351 96.7011 34.3698 94.8663 34.3698C93.131 34.3698 91.8394 33.1246 91.74 30.7931V30.7997ZM91.74 29.8592L91.9917 22.0632C85.09 23.7523 83.5003 25.7857 83.5003 28.4219C83.5003 30.707 85.0436 32.098 87.0307 32.098C88.819 32.098 90.2563 31.2501 91.7467 29.8592H91.74Z" fill="black"/>
<path id="Vector_5" d="M103.018 29.2563L103.269 14.4526L99.3945 14.3532L99.5469 13.512L106.204 7.94824L106.8 8.10058L106.747 12.4721H114.099L113.503 14.3599H106.747C106.747 14.3599 106.402 28.7131 106.402 28.7661C106.349 31.1506 107.647 32.2435 109.78 32.2435C111.516 32.2435 112.814 31.4023 114.006 30.5081L114.304 31.0049C112.463 32.7933 110.376 34.4823 107.946 34.4823C105.164 34.4823 102.978 33.1377 103.024 29.2629L103.018 29.2563Z" fill="black"/>
<path id="Vector_6" d="M115.737 33.0318L116.982 32.9788C118.228 32.8794 118.718 32.7801 118.718 32.2369V4.81534C118.718 3.22568 118.466 2.7819 117.175 2.53021L115.34 2.13279L115.393 1.63602L122.149 0V15.8966L122.248 15.9496C124.381 14.2142 127.216 11.7767 130.541 11.7767C132.084 11.7767 133.422 12.2735 134.416 13.214C135.555 14.4063 136.052 16.0423 136.052 18.1817V32.2899C136.052 32.6343 136.098 32.8397 138.138 32.9854L139.33 33.0384L139.476 33.7802H129.395L129.547 33.0384L130.885 32.9854C132.376 32.886 132.621 32.6343 132.621 32.2436V19.321C132.621 15.7906 131.031 14.3533 128.15 14.3533C125.765 14.3533 123.679 15.5455 122.136 16.9365V32.3363C122.136 32.7337 122.387 32.8331 124.222 32.9788L125.514 33.0318L125.666 33.7736H115.585L115.737 33.0318Z" fill="black"/>
<path id="Vector_7" d="M141.316 23.1957C141.316 16.7907 146.185 11.7236 152.543 11.7236C158.902 11.7236 163.519 16.539 163.519 22.8512C163.519 29.1635 158.703 34.4756 152.391 34.4756C146.079 34.4756 141.316 29.6073 141.316 23.2023V23.1957ZM159.551 23.5931C159.551 19.8176 158.703 16.3933 156.822 14.5055C155.729 13.4126 154.285 12.5648 152.351 12.5648C148.079 12.5648 145.297 17.1351 145.297 22.4472C145.297 26.3684 146.191 29.8457 148.132 31.7864C149.172 32.8793 150.662 33.6212 152.55 33.6212C156.67 33.6212 159.558 29.0509 159.558 23.5865L159.551 23.5931Z" fill="black"/>
<path id="Vector_8" d="M166.155 33.0322L167.447 32.9792C168.739 32.8798 169.235 32.7805 169.235 32.2373V17.6854C169.235 15.0028 168.891 14.506 167.447 14.261L165.857 14.0093L165.91 13.5125L172.666 11.8235L172.567 15.9434L172.713 15.9897C174.846 14.2014 177.681 11.7705 181.012 11.7705C182.549 11.7705 183.94 12.2143 184.887 13.2078C186.026 14.3471 186.523 16.0361 186.523 18.2219V32.2771C186.523 32.6215 186.622 32.7739 188.609 32.9726L189.855 33.0256L190 33.7674H179.966L180.118 33.0256L181.41 32.9726C182.9 32.8732 183.145 32.6215 183.145 32.2307V19.3214C183.145 15.791 181.555 14.3537 178.628 14.3537C176.29 14.3537 174.203 15.5459 172.613 16.9369V32.3367C172.613 32.7341 172.912 32.8335 174.7 32.9792L175.992 33.0322L176.137 33.774H166.003L166.155 33.0322Z" fill="black"/>
</g>
<g id="Group_2">
<path id="Vector_9" d="M37.0957 59.1585C37.0957 56.0009 39.0551 53.9209 41.9866 53.9209C44.4811 53.9209 46.1239 55.2623 46.5309 57.7568H44.2625C43.9912 56.5209 43.2075 55.933 42.0168 55.933C40.4643 55.933 39.5977 57.0634 39.5977 59.0454V59.2564C39.5977 61.246 40.4417 62.3688 41.9716 62.3688C43.2376 62.3688 44.0515 61.7961 44.2851 60.3341H46.5761C46.2747 63.13 44.4434 64.381 41.8962 64.381C39.0249 64.381 37.0957 62.301 37.0957 59.1736V59.1585Z" fill="black"/>
<path id="Vector_10" d="M59.924 54.1309H62.6294L66.1789 64.1539H63.6242L62.7651 61.6443H59.2909L58.4168 64.1539H56.2539L59.924 54.1309ZM62.2451 59.9563L61.0845 56.4972L59.8486 59.9563H62.2526H62.2451Z" fill="black"/>
<path id="Vector_11" d="M76.8418 54.1309H80.542C83.4133 54.1309 84.7245 55.1859 84.7245 57.394C84.7245 59.6021 83.3078 60.7777 80.3913 60.7777H79.2759V64.1614H76.8418V54.1384V54.1309ZM80.3461 59.1424C81.8382 59.1122 82.3657 58.5244 82.3657 57.394C82.3657 56.2636 81.793 55.8114 80.3611 55.8114H79.2759V59.1499H80.3461V59.1424Z" fill="black"/>
<path id="Vector_12" d="M95.668 54.1309H98.0946V64.1539H95.668V54.1309Z" fill="black"/>
<path id="Vector_13" d="M111.817 56.03H108.945V54.1309H117.099V56.03H114.243V64.1539H111.817V56.03Z" fill="black"/>
<path id="Vector_14" d="M129.361 54.1309H132.067L135.616 64.1539H133.062L132.203 61.6443H128.728L127.854 64.1539H125.691L129.361 54.1309ZM131.683 59.9563L130.522 56.4972L129.286 59.9563H131.683Z" fill="black"/>
<path id="Vector_15" d="M146.289 54.1309H148.723V62.3H152.996V64.1539H146.297V54.1309H146.289Z" fill="black"/>
</g>
<path id="Line 20" d="M0 44.1504H190.5" stroke="#39B077" stroke-width="0.5"/>
</g>
</svg>
