<svg width="1012" height="518" viewBox="0 0 1012 518" fill="none" xmlns="http://www.w3.org/2000/svg">
<path d="M452.272 167.173L447.848 173.037L444.9 175.97L439.003 179.194L438.117 181.834C438.117 181.834 435.757 184.18 436.053 185.648C436.349 187.115 436.349 189.753 436.349 189.753C436.349 189.753 432.221 193.565 430.451 194.738C428.681 195.91 426.321 198.55 426.321 198.55C426.321 198.55 424.847 200.31 423.963 200.897C423.078 201.482 421.604 203.242 420.424 205.002C419.243 206.762 418.064 207.933 417.475 208.813C416.885 209.692 415.115 211.746 414.231 214.972C413.346 218.199 410.987 222.01 410.987 222.01L410.396 223.476C410.692 228.462 410.69 229.341 411.281 231.101C411.871 232.86 412.462 232.273 411.871 236.086C411.281 239.897 411.281 241.364 410.692 243.124C410.102 244.882 408.332 248.108 407.744 249.576C407.153 251.042 408.923 253.68 408.923 253.68C408.923 253.68 409.809 257.494 409.218 258.373C408.628 259.254 409.513 261.013 409.513 261.013C409.513 261.013 413.051 263.065 414.232 264.239C415.411 265.412 417.476 267.172 417.771 268.051C418.067 268.932 420.425 273.037 420.72 273.917C421.015 274.796 423.374 278.021 423.964 278.902C424.554 279.782 427.503 283.008 427.503 283.008C427.503 283.008 431.337 285.939 432.222 287.112C433.107 288.285 435.761 288.871 436.644 289.751C437.53 290.63 439.593 290.336 440.773 291.218C441.953 292.097 444.312 290.63 445.492 291.218C446.671 291.804 449.917 290.632 450.801 290.045C451.685 289.459 453.749 287.407 455.224 288.285C456.698 289.163 457.583 288.285 458.763 288.578C459.941 288.871 461.711 287.407 462.89 287.407C464.071 287.407 467.019 286.233 467.903 286.233C468.789 286.233 471.738 284.471 472.918 284.471C474.096 284.471 475.572 283.301 477.046 283.886C478.52 284.471 477.93 282.715 480.584 283.593C483.239 284.471 484.123 283.593 485.008 284.471C485.893 285.352 487.074 284.474 487.958 285.647C488.843 286.818 490.317 287.697 490.611 288.871C490.905 290.045 492.675 291.219 492.675 291.219L494.445 291.511C494.445 291.511 496.806 289.752 497.394 290.926C497.984 292.099 500.638 291.807 500.638 291.807L503.292 294.738L504.177 295.911C504.177 295.911 505.947 300.604 505.651 302.363C505.356 304.122 505.356 307.934 504.472 308.813C503.588 309.694 502.998 313.506 502.998 313.506C502.998 313.506 501.818 314.679 504.472 317.025C507.126 319.373 508.897 321.424 509.781 322.595C510.667 323.769 513.026 326.996 513.318 329.048C513.615 331.1 514.204 332.273 515.385 334.913C516.564 337.552 518.038 337.845 518.333 340.78C518.629 343.711 519.217 343.712 518.922 345.763C518.627 347.816 517.743 348.11 518.627 349.575C519.512 351.042 520.69 353.682 520.397 354.562C520.103 355.441 519.512 359.253 519.512 359.253L518.922 361.013L516.269 366.001L514.499 368.638C513.909 370.69 512.73 372.743 513.025 375.676C513.318 378.609 511.551 378.608 513.909 381.539C516.269 384.473 517.447 387.699 518.922 390.339C520.397 392.977 521.282 395.617 521.575 397.376C521.871 399.136 523.051 399.723 523.64 402.069C524.229 404.415 524.525 405.586 524.525 407.053C524.525 408.519 524.229 412.333 524.821 413.212C525.409 414.092 525.705 416.733 526 417.905C526.295 419.079 525.114 419.372 526.884 421.426C528.654 423.478 529.834 424.65 531.013 426.117C532.192 427.584 531.897 426.997 532.783 429.05C533.667 431.102 534.846 432.277 535.142 434.035C535.437 435.794 535.731 440.192 536.616 442.246C537.501 444.299 538.68 446.352 538.68 446.352C538.68 446.352 541.925 448.405 543.105 448.111C544.282 447.818 546.643 445.181 548.414 446.059C550.184 446.939 551.658 446.059 553.132 446.059C554.606 446.059 556.081 444.299 557.556 444.299C559.03 444.299 561.094 441.953 562.275 442.54C563.455 443.125 564.927 441.951 566.403 440.486C567.878 439.021 568.762 437.849 571.415 435.502C574.07 433.156 573.775 433.154 575.544 431.689C577.314 430.221 579.084 426.995 581.148 426.409C583.211 425.823 583.801 423.772 584.39 422.305C584.981 420.838 585.275 419.959 586.16 418.785C587.046 417.613 586.455 419.082 587.93 415.267C589.406 411.453 591.177 409.989 592.651 409.108C594.125 408.229 595.01 406.47 595.894 406.175C596.778 405.881 598.254 407.055 597.664 404.415C597.076 401.777 597.664 397.965 597.076 397.085C596.485 396.203 595.599 399.136 595.895 394.736C596.193 390.339 599.434 385.939 599.434 385.939C599.434 385.939 603.857 380.368 605.333 379.488C606.808 378.609 607.101 377.729 609.168 376.556C611.23 375.384 615.654 372.451 615.654 370.984C615.654 369.517 617.424 365.705 617.424 364.824C617.424 363.945 617.424 363.065 616.836 358.079C616.245 353.096 617.424 354.267 615.656 349.575C613.887 344.884 613.589 339.018 612.412 337.552C611.231 336.085 611.821 332.272 611.821 331.1C611.821 329.928 613.887 326.995 614.771 325.822C615.656 324.649 619.489 319.956 619.489 319.956C619.489 319.956 625.387 313.212 627.451 309.987C629.516 306.76 631.58 303.828 633.054 302.656C634.529 301.483 638.068 298.841 640.132 295.909C642.196 292.978 646.325 287.407 646.621 286.525C646.914 285.647 649.273 282.714 649.273 282.714C649.273 282.714 652.517 278.9 653.108 276.848C653.696 274.795 656.644 263.358 656.054 263.944C655.467 264.532 651.927 265.117 650.747 265.41C649.569 265.705 652.518 266.876 643.964 266.291C635.413 265.703 630.99 267.17 630.99 267.17C628.334 266.583 626.271 269.516 625.385 265.41C624.501 261.306 623.91 258.96 622.142 256.027C620.372 253.094 619.192 251.921 616.54 248.108C613.887 244.297 614.179 246.055 611.819 243.124C609.461 240.192 608.87 241.07 607.396 237.259C605.922 233.447 604.743 234.914 602.973 229.634C601.203 224.354 600.024 223.767 599.139 220.836C598.254 217.904 597.076 217.022 596.485 214.384C595.895 211.744 589.114 198.256 588.228 197.375C587.342 196.497 585.868 191.802 586.163 192.683C586.459 193.563 590.588 196.495 590.588 196.495C590.588 196.495 592.946 195.615 593.832 195.615C594.716 195.615 598.255 198.842 598.255 200.013C598.255 201.187 604.451 206.76 605.923 210.865C607.397 214.97 609.17 217.903 609.462 219.076C609.755 220.248 612.706 224.941 613.887 226.702C615.065 228.462 618.898 231.979 619.488 233.74C620.078 235.5 625.683 241.364 625.683 245.176C625.683 248.989 628.334 253.973 628.631 255.146C628.927 256.319 634.233 257.787 634.233 257.787L641.312 256.027C641.312 256.027 651.927 249.281 653.108 249.281C654.286 249.281 663.726 244.882 663.726 244.882C663.726 244.882 667.558 241.364 670.211 239.312C672.866 237.259 675.815 233.448 676.406 231.686C676.994 229.926 678.174 229.634 680.533 226.993C682.893 224.354 686.137 221.715 684.073 219.955C682.008 218.196 680.828 218.783 677.88 215.85C674.93 212.918 675.225 213.505 673.16 209.691C671.095 205.88 673.455 201.48 669.031 205.88C664.609 210.279 666.377 211.451 661.953 212.333C657.531 213.211 655.76 216.144 653.696 213.211C651.632 210.279 649.569 212.039 648.387 207.639C647.208 203.24 646.322 202.946 646.029 201.188C645.735 199.428 646.029 199.428 643.669 195.028C641.311 190.63 643.079 183.885 644.553 187.697C646.029 191.509 648.387 192.096 652.222 194.735C656.054 197.374 657.826 199.428 661.363 199.721C664.902 200.013 667.851 199.721 668.441 200.306C669.031 200.894 669.62 200.014 671.095 200.599C672.571 201.187 673.158 199.721 673.749 202.065C674.338 204.412 677.582 204.705 679.056 206.171C680.532 207.636 680.532 207.051 684.367 207.636C688.201 208.224 693.51 208.224 693.51 208.224L699.111 207.93L705.6 208.514C705.6 208.514 710.32 211.154 711.498 211.154C712.677 211.154 712.972 214.381 715.921 216.14C718.871 217.9 719.46 218.192 721.229 220.246C723.002 222.299 722.704 223.178 725.063 225.231C727.424 227.285 731.259 224.939 731.848 224.061C732.435 223.18 735.384 221.714 734.797 224.061C734.207 226.406 737.744 225.525 736.86 231.099C735.975 236.669 735.384 235.203 736.86 239.016C738.334 242.829 744.822 254.558 745.118 258.078C745.414 261.597 747.181 260.424 747.476 263.651C747.772 266.876 749.54 268.049 749.54 270.395C749.54 272.742 751.606 273.327 751.9 275.088C752.197 276.848 755.44 275.38 756.324 275.088C757.21 274.794 761.337 270.981 761.337 270.981C761.337 270.981 763.11 270.396 762.812 267.462C762.516 264.532 762.812 265.117 762.812 260.719C762.812 256.32 761.043 256.32 761.928 251.923C762.812 247.524 765.171 244.883 765.761 242.831C766.351 240.779 768.711 237.26 769.889 236.966C771.068 236.672 777.557 233.448 779.033 231.393C780.506 229.341 782.866 226.995 785.226 224.649C787.584 222.304 791.713 219.371 792.598 220.251C793.483 221.13 793.188 220.837 794.663 220.837C796.137 220.837 798.792 222.011 800.855 222.304C802.92 222.597 807.05 227.582 807.934 230.222C808.819 232.862 808.229 232.274 811.473 236.087C814.717 239.898 817.666 237.552 817.666 242.245C817.666 246.938 817.666 246.643 819.142 248.404C820.616 250.164 822.384 245.178 824.153 245.765C825.922 246.353 826.217 245.179 827.691 249.871C829.165 254.564 830.049 254.564 830.346 259.255C830.64 263.947 830.05 259.549 830.05 263.359C830.05 267.173 829.754 267.466 830.346 270.984C830.935 274.506 832.997 275.678 832.705 276.265C832.705 276.265 834.474 271.28 833.883 267.759C833.296 264.242 833.883 259.257 835.358 257.791C836.832 256.323 838.309 254.858 839.486 258.67C840.667 262.481 841.257 259.55 843.91 263.948C846.565 268.348 848.924 267.466 849.219 269.52C849.513 271.573 850.991 271.867 853.052 273.625C855.117 275.385 856.886 273.333 859.246 271.573C861.607 269.813 868.092 263.361 868.389 260.721C868.683 258.083 871.337 258.668 866.618 251.925C861.899 245.18 861.899 242.834 856.886 238.728C851.876 234.623 848.925 234.33 852.76 229.051C856.594 223.771 858.364 220.253 860.722 221.721C863.082 223.186 867.208 222.892 867.208 228.759C867.208 234.623 866.029 241.075 870.157 234.037C874.285 226.999 876.352 222.893 875.17 224.068C873.992 225.241 877.824 221.722 877.824 221.722C877.824 221.722 878.12 219.082 883.135 217.91C888.146 216.734 889.62 216.149 891.391 215.27C893.16 214.389 898.174 208.524 899.059 205.885C899.943 203.246 902.303 198.554 901.713 196.502C901.124 194.447 898.173 184.479 897.583 184.771C896.995 185.065 897.29 185.065 893.458 180.96C889.621 176.854 886.968 173.922 886.379 172.161C885.789 170.401 884.314 170.108 886.082 167.763C887.854 165.418 888.738 165.711 889.033 163.657C889.327 161.605 891.685 159.845 887.262 161.312C882.84 162.778 886.082 161.9 882.249 161.607C878.415 161.312 868.39 163.659 873.404 157.501C878.415 151.343 879.888 147.532 880.774 147.532C881.661 147.532 886.084 142.545 886.377 147.237C886.673 151.929 888.441 150.755 888.737 153.688C889.033 156.621 894.93 150.463 894.93 150.463C894.93 150.463 896.994 151.049 898.468 152.515C899.943 153.981 899.943 158.674 899.943 158.674C899.943 158.674 898.764 157.207 902.008 159.553C905.253 161.901 908.79 160.726 908.79 165.712C908.79 170.697 908.79 170.991 910.854 172.164C912.921 173.337 914.982 172.752 916.754 171.285C918.523 169.819 921.471 164.539 921.471 164.539C921.471 164.539 921.766 162.486 917.048 159.553C912.33 156.622 909.38 154.57 907.613 153.103C905.842 151.637 906.433 147.238 908.2 145.477C909.973 143.717 910.854 142.837 910.265 140.492C909.674 138.144 911.151 136.385 915.574 136.679C919.997 136.973 920.881 136.387 920.881 136.387C920.881 136.387 921.768 136.972 921.768 135.213C921.768 133.454 927.37 125.242 925.894 125.242C924.42 125.242 926.193 123.19 925.305 119.964C924.42 116.737 928.254 111.753 925.011 109.407C921.767 107.06 920.881 105.886 918.818 102.368C916.754 98.848 917.046 98.263 909.38 97.3822C901.713 96.5028 898.174 99.1424 896.404 96.7972C894.634 94.4507 893.751 100.315 892.572 93.2768C891.393 86.2386 894.342 81.5456 894.342 81.5456C894.342 81.5456 899.06 78.6141 900.238 76.5608C901.417 74.5075 906.135 73.628 909.973 75.0951C913.806 76.5608 919.407 76.2677 924.128 77.1497C928.846 78.0278 928.551 80.9606 930.911 77.1497C933.269 73.3349 930.911 71.5773 932.68 69.5239C934.451 67.4706 936.513 64.2446 937.987 66.2967C939.461 68.3513 942.415 70.4021 944.774 67.7624C947.133 65.1241 948.017 64.8309 948.017 64.8309L949.194 66.0048C949.194 66.0048 951.848 64.5365 951.848 67.1748C951.848 69.8158 954.504 72.7486 953.029 74.8006C951.552 76.8553 949.491 76.5608 949.491 81.5456C949.491 86.5331 949.491 85.6523 952.732 89.759C955.978 93.8631 958.041 90.344 958.631 94.7439C959.222 99.1424 959.809 98.2643 963.055 101.196C966.299 104.127 965.707 104.127 968.068 105.887C970.428 107.648 971.608 109.408 971.608 106.475C971.608 103.542 971.903 102.077 971.608 99.4369C971.311 96.7985 973.968 94.7439 972.195 90.3453C970.427 85.9468 971.902 86.2399 968.363 83.014C964.823 79.7894 962.463 83.6016 961.287 78.9086C960.106 74.2169 966.888 72.1636 968.659 71.5773C970.428 70.9923 973.08 67.4719 973.669 69.8184C974.26 72.1636 969.247 80.6688 977.8 71.5773C986.351 62.487 982.519 66.2993 982.519 66.2993C982.519 66.2993 986.942 65.713 987.826 66.2993C988.709 66.8869 991.073 63.6596 990.184 63.9541C989.3 64.2485 980.751 59.2611 980.751 59.2611L974.555 55.7433C974.555 55.7433 976.621 54.2762 978.095 54.5707C979.571 54.8638 979.867 51.6379 981.342 51.3434C982.816 51.0503 992.842 53.3981 994.908 54.5707C996.971 55.7433 1004.34 56.0364 1003.46 55.4501C1002.57 54.8625 997.856 51.3447 997.56 50.1708C997.266 48.9982 986.943 46.6517 983.7 46.9449C980.455 47.2367 977.508 48.1162 974.854 47.2367C972.198 46.3573 968.366 44.0108 966.301 44.0108C964.237 44.0108 938.286 39.026 937.107 39.3191C935.928 39.6123 934.156 45.1834 933.272 44.3039C932.388 43.4245 930.914 43.4232 926.783 42.2506C922.657 41.078 917.052 40.1972 909.678 39.6123C902.307 39.026 897.295 40.1986 895.23 37.8521C893.165 35.5069 888.743 36.3863 883.729 36.0919C878.717 35.8 872.818 36.0919 870.164 36.0919C867.509 36.0919 861.318 35.8 859.843 35.5056C858.368 35.2111 856.599 33.1591 854.83 32.8672C853.059 32.5728 853.354 31.9878 849.816 31.4015C846.277 30.8139 846.572 27.0029 845.393 30.2276C844.214 33.4548 844.802 32.5741 843.033 33.7467C841.263 34.9206 839.494 37.2658 838.314 37.2658C837.136 37.2658 832.418 37.5589 831.531 36.9726C830.645 36.3863 829.171 35.8 826.222 35.8C823.273 35.8 823.273 36.0919 819.439 35.5056C815.605 34.9193 812.656 35.2111 809.117 33.4535C805.578 31.6933 805.578 30.5207 802.629 30.8139C799.683 31.1083 799.683 30.2276 795.551 30.2276C791.424 30.2276 786.412 32.5741 783.756 32.8672C781.104 33.1604 775.205 32.5728 773.141 31.6933C771.074 30.8139 770.486 28.7618 762.817 29.64C755.15 30.5207 750.727 30.5207 752.201 28.1742C753.676 25.829 755.445 23.4825 756.329 23.1894C757.215 22.8962 759.277 21.4305 757.802 20.8442C756.329 20.2566 754.854 19.3784 751.317 19.084C747.776 18.7908 748.07 20.2566 742.763 19.6703C737.456 19.084 745.713 17.6182 734.803 17.9114C723.891 18.2058 721.237 19.084 720.058 19.084C718.877 19.084 717.402 16.7388 714.454 20.2566C711.505 23.7757 707.374 25.8277 701.478 26.1209C695.581 26.4153 695.284 25.5346 689.683 27.5866C684.08 29.6387 680.539 27.0003 681.72 31.692C682.898 36.3837 684.374 38.1439 684.374 39.0233C684.374 39.9028 681.72 45.7684 678.477 42.2493C675.23 38.7302 669.333 24.947 671.988 34.3317C674.641 43.715 680.538 46.9423 674.937 48.408C669.335 49.8738 669.922 47.8217 669.037 47.2341C668.154 46.6478 669.037 42.5424 668.742 40.1959C668.446 37.8507 667.858 36.3837 666.679 35.2111C665.501 34.0372 665.793 32.2783 663.435 31.692C661.075 31.1057 663.14 29.9318 659.306 29.9318C655.473 29.9318 652.23 27.5853 653.114 32.8646C653.997 38.1426 654.882 34.6248 657.24 39.6096C659.598 44.5945 664.023 41.0754 660.78 44.5945C657.536 48.1136 648.985 46.941 646.92 45.4752C644.855 44.0082 645.446 46.0615 641.609 43.4219C637.776 40.7822 638.958 38.7289 634.534 40.7822C630.111 42.8356 628.636 46.6478 626.866 45.1808C625.096 43.7137 620.969 47.2328 619.493 45.4752C618.018 43.715 612.119 43.715 610.942 45.4752C609.761 47.2341 606.222 46.941 601.209 49.2875C596.197 51.6327 597.669 49.5793 591.477 54.5655C585.283 59.5503 581.744 63.6557 579.681 60.4298C577.617 57.2051 566.409 51.6327 570.834 50.7519C575.258 49.8725 577.322 48.1136 579.681 50.1656C582.041 52.2177 585.876 51.6327 586.463 50.1656C587.053 48.6986 589.708 47.2328 586.168 45.4739C582.629 43.7137 582.335 44.8863 576.732 42.8343C571.128 40.7809 576.732 41.3685 569.064 40.1946C561.396 39.022 558.151 38.4357 556.087 37.8494C554.025 37.2631 551.075 37.8494 548.127 37.5563C545.176 37.2631 543.114 36.6768 540.458 36.97C537.805 37.2631 536.331 36.6769 532.791 39.3165C529.25 41.9561 526.596 43.1287 524.238 45.1808C521.879 47.2328 515.687 51.3395 513.917 52.8066C512.147 54.2723 505.954 58.964 505.364 60.7242C504.775 62.4844 505.954 63.9502 503.594 65.1228C501.234 66.2954 498.876 66.2954 497.106 66.5885C495.336 66.8817 497.106 63.9489 495.336 66.8817C493.567 69.8145 494.157 80.3717 495.631 78.9047C497.105 77.4376 496.22 72.7473 502.708 77.1471C509.197 81.5443 513.326 80.958 513.03 85.0634C512.735 89.1688 517.453 88.8757 518.043 89.7564C518.633 90.6346 521.582 88.5825 521.582 88.5825C521.582 88.5825 528.07 84.4771 528.07 82.4251C528.07 80.3717 532.198 75.68 532.198 75.68C532.198 75.68 529.248 74.2143 529.248 71.2815C529.248 68.35 530.135 67.468 530.723 64.5352C531.313 61.6037 527.479 64.5365 536.327 58.9627C545.172 53.3916 545.763 57.2051 545.763 57.2051C545.763 57.2051 546.941 58.3777 545.467 60.1366C543.993 61.8968 541.338 66.5898 540.749 67.1748C540.158 67.7624 543.403 72.4541 544.876 72.4541C546.351 72.4541 549.301 71.2802 551.071 71.5734C552.841 71.8678 555.789 70.6952 556.673 71.2815C557.559 71.8678 559.622 73.6267 558.147 75.0938C556.673 76.5595 553.428 78.3184 551.071 77.7334C548.71 77.1484 545.171 73.0404 547.236 78.906C549.301 84.7716 546.941 86.2373 545.171 85.9442C543.403 85.651 539.568 82.7195 540.158 87.1181C540.749 91.5153 536.326 94.4481 535.44 94.4481C534.554 94.4481 532.787 94.155 532.787 94.155C532.787 94.155 530.131 93.8605 528.658 93.8605C527.183 93.8605 524.234 95.3263 523.349 96.5002C522.464 97.6728 521.285 96.7946 519.811 96.7946C518.337 96.7946 519.811 95.0344 516.861 94.4481C513.913 93.8618 512.143 93.2755 510.374 94.4481C508.604 95.6207 505.951 96.207 504.771 95.3276C503.592 94.4481 505.362 92.3935 503.001 93.5687C500.642 94.7413 498.872 97.9672 497.988 98.2617C497.103 98.5535 500.642 98.2617 497.103 98.5535C493.565 98.848 492.091 99.7287 490.321 100.314C488.55 100.901 490.91 104.419 487.666 105.592C484.422 106.764 486.783 104.126 483.538 106.764C480.294 109.405 479.703 111.75 478.525 112.044C477.344 112.338 477.64 112.923 474.986 113.216C472.331 113.509 472.628 113.802 471.151 114.096C469.677 114.389 471.447 114.976 468.203 114.389C464.958 113.802 462.599 114.976 463.189 116.149C463.778 117.322 474.69 120.548 466.433 120.254C458.176 119.961 460.83 121.427 462.599 122.6C464.369 123.772 465.252 124.945 466.138 125.239C467.024 125.532 468.496 129.053 468.496 129.053C468.496 129.053 470.856 128.758 469.382 130.812C467.908 132.865 469.972 133.451 468.496 136.091C467.023 138.731 467.023 136.97 465.843 137.557C464.664 138.142 462.894 140.196 459.649 138.436C456.405 136.676 454.048 135.797 450.213 135.505C446.379 135.21 449.032 134.625 446.379 136.676C443.724 138.731 443.135 141.076 443.431 143.714C443.726 146.353 444.021 149.873 443.135 151.633C442.251 153.392 442.251 155.152 442.839 157.792C443.43 160.43 445.2 161.605 445.2 161.605C445.2 161.605 449.328 162.19 450.213 162.485C451.097 162.778 452.867 161.899 455.225 163.363C457.585 164.83 459.945 165.418 461.419 163.657C462.893 161.899 468.791 159.845 470.563 158.086C472.331 156.326 473.511 155.741 472.626 153.981C471.742 152.221 474.396 147.822 475.87 146.943C477.344 146.063 480.588 145.183 480.588 145.183L484.127 139.905C484.127 139.905 487.076 136.677 488.55 136.972C490.024 137.265 498.281 140.199 497.693 136.387C497.103 132.573 498.283 131.401 499.167 132.866C500.051 134.332 502.411 133.746 502.411 133.746C502.411 133.746 503.59 133.161 504.475 134.04C505.359 134.918 506.538 138.733 508.308 139.611C510.078 140.492 511.552 141.372 512.733 141.957C513.912 142.544 515.092 141.957 517.452 144.01C519.81 146.063 522.17 147.237 522.464 148.115C522.761 148.995 524.825 151.048 524.825 151.048C524.825 151.048 526.888 151.634 526.299 152.808C525.709 153.981 522.761 157.501 521.286 158.086C519.811 158.673 515.978 157.499 517.452 158.673C518.925 159.845 520.991 161.312 521.875 160.431C522.761 159.552 528.362 153.686 528.362 153.686C528.362 153.686 528.067 153.98 528.362 152.219C528.658 150.462 528.362 148.408 529.837 149.288C531.311 150.169 532.197 151.341 532.787 150.169C533.376 148.995 533.966 149.582 532.491 148.703C531.015 147.822 527.478 142.837 525.708 142.544C523.938 142.25 519.513 139.317 519.513 139.317C519.513 139.317 518.63 138.437 516.565 136.092C514.5 133.746 513.912 134.332 513.32 132.279C512.731 130.227 510.96 127.587 514.205 128.173C517.451 128.76 519.513 130.812 522.462 132.572C525.412 134.332 524.823 134.917 527.476 136.677C530.13 138.437 530.427 140.198 532.489 139.905C534.553 139.611 536.914 141.077 536.914 143.717C536.914 146.356 537.502 149.288 538.092 149.876C538.683 150.463 540.45 151.636 541.041 152.808C541.631 153.981 542.811 156.914 543.694 158.086C544.58 159.259 545.464 160.14 546.349 161.607C547.233 163.072 547.528 161.312 548.412 161.9C549.298 162.486 550.477 162.192 550.477 161.019C550.477 159.846 550.771 157.793 550.771 157.793C550.771 157.793 554.902 156.621 553.722 156.033C552.542 155.447 549.002 151.928 549.298 150.755C549.593 149.582 549.298 147.237 550.771 147.53C552.246 147.822 553.721 150.462 556.965 148.115C560.209 145.769 564.043 144.596 562.862 148.115C561.685 151.634 563.16 152.219 562.862 156.033C562.569 159.846 564.044 158.673 566.109 160.726C568.173 162.779 569.647 163.074 571.121 163.659C572.596 164.246 574.954 163.953 577.315 164.246C579.675 164.539 581.149 163.366 583.214 163.953C585.276 164.539 589.995 163.659 590.881 164.246C591.767 164.833 595.306 163.074 595.599 165.126C595.894 167.179 597.074 164.833 596.19 169.524C595.306 174.216 594.125 177.442 594.125 177.442C590.881 183.601 589.702 185.068 588.227 185.361C586.754 185.654 585.868 186.534 583.215 186.24C580.561 185.946 577.317 186.24 573.483 185.361C569.649 184.48 562.57 186.24 559.622 184.48C556.673 182.721 552.545 184.187 550.773 182.135C549.004 180.082 546.056 180.375 544.876 179.202C543.697 178.03 543.107 174.805 543.107 179.497C543.107 184.19 540.453 184.481 539.863 186.828C539.272 189.173 540.746 188.001 537.502 187.707C534.258 187.413 533.374 189.173 528.656 185.655C523.936 182.136 521.578 182.136 519.22 180.669C516.859 179.202 514.5 183.308 512.142 178.617C509.782 173.924 506.538 177.736 506.243 173.924C505.949 170.111 506.243 170.406 506.538 168.06C506.836 165.713 510.077 163.661 508.603 162.782C507.128 161.902 508.307 160.435 506.243 161.316C504.178 162.196 501.231 162.489 498.871 163.368C496.511 164.249 504.178 163.368 492.678 164.249C481.177 165.128 477.931 166.301 477.931 166.301C477.931 166.301 477.047 165.715 475.572 166.887C474.098 168.06 472.033 169.82 469.969 168.941C467.906 168.06 466.725 168.353 464.956 168.647C463.186 168.941 462.008 167.182 459.944 168.647C457.879 170.112 455.52 170.7 454.635 170.112C453.717 169.513 452.237 167.167 452.237 167.167L452.272 167.173Z" fill="#B3D1C9"/>
<path d="M649.56 360.131C648.676 363.358 645.432 368.048 645.432 368.048L639.532 370.981C639.532 370.981 637.471 372.741 636.289 373.034C635.11 373.326 632.161 374.794 632.161 374.794C632.161 374.794 629.508 374.207 630.391 376.845C631.275 379.485 631.571 382.712 631.275 383.59C630.982 384.471 630.982 386.231 630.982 388.578C630.982 390.923 630.097 393.854 628.622 394.441C627.148 395.028 625.673 395.615 625.968 397.668C626.264 399.721 626.264 405.879 626.264 405.879L630.099 411.744C630.099 411.744 631.278 410.865 633.638 410.865C635.995 410.865 638.356 408.814 638.356 408.814C638.356 408.814 641.011 409.398 640.714 406.175C640.419 402.947 641.896 399.136 641.598 398.256C641.305 397.376 644.254 393.563 644.254 392.684C644.254 391.804 647.203 387.701 647.203 386.233C647.203 384.767 649.267 382.42 649.562 380.663C649.856 378.901 650.151 374.797 650.741 373.625C651.332 372.452 651.627 371.278 651.627 370.105C651.627 368.933 651.627 366.586 651.627 366.586L649.53 360.124L649.56 360.131Z" fill="#B3D1C9"/>
<path d="M880.471 399.726C879.586 400.897 878.997 413.509 878.407 414.975C877.818 416.44 876.637 424.066 877.229 425.824C877.818 427.585 878.702 434.036 878.114 436.089C877.523 438.141 878.409 444.593 876.932 444.3C875.459 444.005 874.871 444.594 874.871 445.473C874.871 446.353 876.932 448.111 876.932 448.111C876.932 448.111 880.474 448.112 881.947 447.818C883.421 447.525 886.371 446.058 888.73 446.058C891.09 446.058 892.565 444.297 894.628 444.297C896.692 444.297 901.117 442.833 902.296 443.418C903.475 444.003 905.244 439.899 907.309 440.78C909.374 441.659 913.798 438.726 915.862 438.726C917.924 438.726 918.811 435.499 921.171 436.088C923.529 436.674 927.954 434.915 930.019 435.792C932.08 436.674 935.326 432.861 936.8 435.792C938.276 438.726 942.7 439.899 942.7 441.365C942.7 442.83 942.401 446.058 942.401 446.058L945.942 445.763C945.942 445.763 951.543 442.244 952.43 442.244C953.314 442.244 955.379 439.312 955.379 440.78C955.379 442.244 953.608 445.473 953.019 446.937C952.43 448.404 953.608 450.164 953.608 450.164C953.608 450.164 956.56 451.63 955.379 454.268C954.199 456.908 955.673 456.323 955.379 458.374C955.083 460.427 955.379 459.546 956.556 460.719C957.737 461.893 959.804 463.949 961.571 463.653C963.342 463.359 963.929 461.601 965.405 462.48C966.879 463.36 969.827 462.774 970.711 463.947C971.599 465.119 965.11 468.052 976.316 463.068C987.522 458.081 988.699 456.908 990.174 455.148C991.653 453.389 993.422 451.63 994.599 450.456C995.779 449.283 994.896 449.577 998.432 446.937C1001.97 444.299 1001.97 445.471 1005.22 440.485C1008.46 435.502 1010.82 433.741 1011.41 432.861C1012 431.98 1013.18 431.688 1013.47 428.166C1013.77 424.649 1016.13 421.423 1016.13 420.25C1016.13 419.079 1017.01 417.32 1016.72 415.265C1016.42 413.212 1017.9 410.282 1016.13 407.349C1014.36 404.415 1017.01 403.245 1014.36 402.068C1011.7 400.896 1009.93 401.483 1009.34 399.43C1008.75 397.377 1006.39 397.67 1005.51 392.098C1004.63 386.527 1001.09 385.938 1001.09 385.938C1001.09 385.938 997.548 384.473 998.432 383.888C999.319 383.3 999.613 379.193 999.319 378.021C999.023 376.848 999.023 374.209 998.14 372.451C997.256 370.689 996.665 368.346 995.78 366.291C994.896 364.239 993.422 363.651 992.831 361.306C992.24 358.961 991.356 358.079 991.062 357.494C990.765 356.908 990.174 353.976 989.587 357.199C988.998 360.425 987.816 366.583 987.816 366.583C987.816 366.583 985.456 371.57 984.572 373.036C983.687 374.5 982.803 378.314 981.329 378.02C979.854 377.726 978.967 379.488 977.79 379.192C976.61 378.898 974.841 379.487 973.956 378.607C973.072 377.726 970.712 375.381 969.532 375.087C968.353 374.795 967.468 372.45 966.583 372.45C965.696 372.45 964.223 370.395 964.519 369.222C964.813 368.05 965.107 365.411 965.403 364.238C965.697 363.065 967.468 360.424 967.468 360.424C967.468 360.424 967.468 358.665 965.993 358.665C964.519 358.665 964.223 358.665 960.979 358.371C957.736 358.076 956.853 357.784 955.67 357.784C954.493 357.784 956.852 357.198 953.606 358.078C950.364 358.96 948.888 361.305 946.823 363.358C944.762 365.41 946.53 364.823 944.762 365.41C942.99 365.998 943.287 363.943 942.107 367.17C940.926 370.396 942.698 371.274 941.809 371.862C940.925 372.45 934.734 369.81 934.734 369.81C934.734 369.81 936.208 369.516 935.028 368.05C933.85 366.583 932.669 364.532 930.902 365.411C929.129 366.291 927.654 366.879 926.477 368.344C925.297 369.81 925.297 370.983 924.412 372.155C923.528 373.328 921.17 373.328 920.874 374.502C920.579 375.676 920.579 378.607 919.696 378.9C918.811 379.195 918.517 377.73 917.632 377.436C916.748 377.143 917.041 374.796 916.453 376.263C915.863 377.729 915.274 377.435 914.389 379.781C913.502 382.128 913.209 384.181 912.324 384.474C911.44 384.768 912.325 385.06 909.669 386.527C907.017 387.993 906.426 387.993 902.594 389.753C898.761 391.514 899.646 391.513 896.991 391.805C894.338 392.1 893.746 392.979 891.977 393.272C890.206 393.566 889.029 393.857 887.258 395.618C885.489 397.378 884.015 397.963 882.836 398.257C881.657 398.552 880.53 399.703 880.53 399.703L880.471 399.726Z" fill="#B3D1C9"/>
<path d="M897.872 283.886C896.694 285.647 892.861 290.924 891.387 291.218C889.911 291.51 888.436 292.979 887.257 292.684C886.078 292.39 883.423 292.684 882.539 296.496C881.655 300.309 880.179 302.362 879.292 302.068C878.408 301.774 880.766 307.639 875.755 305.295C870.743 302.948 872.512 307.348 871.921 308.522C871.331 309.693 872.805 312.921 873.1 314.093C873.398 315.266 874.279 317.319 875.46 319.077C876.639 320.837 877.523 322.889 879.588 322.305C881.653 321.716 888.139 322.305 888.139 322.305C888.139 322.305 890.501 323.185 891.974 323.185C893.448 323.185 893.744 322.598 894.627 322.598C895.51 322.598 897.28 319.664 896.987 319.372C896.692 319.077 895.809 318.199 897.576 316.438C899.346 314.678 901.41 314.093 901.706 312.04C902.001 309.988 901.116 309.988 902.001 308.813C902.885 307.64 904.949 307.936 904.36 306.761C903.769 305.588 904.949 305.881 903.769 303.533C902.592 301.188 901.115 300.307 902.294 297.375C903.475 294.443 904.656 293.855 904.36 292.097C904.064 290.335 905.834 289.75 903.769 287.697C901.707 285.646 900.821 285.058 899.346 284.469L897.892 283.87L897.872 283.886Z" fill="#B3D1C9"/>
<path d="M955.677 313.214C956.859 312.921 960.986 309.988 961.282 315.267C961.577 320.545 961.869 319.078 963.642 322.011C965.41 324.944 966.587 325.826 968.652 324.359C970.715 322.891 973.075 322.891 973.665 320.254C974.256 317.614 974.256 317.614 976.024 317.614C977.797 317.614 978.384 317.321 979.272 318.496C980.155 319.666 980.742 318.493 984.579 320.547C988.412 322.6 991.655 322.011 994.017 324.066C996.377 326.118 997.556 325.827 1000.8 326.999C1004.04 328.171 1002.57 326.412 1005.52 329.638C1008.47 332.863 1007.29 333.742 1008.76 335.209C1010.24 336.675 1011.42 334.036 1010.83 337.555C1010.24 341.074 1006.11 337.555 1012.3 342.538C1018.49 347.526 1019.38 348.406 1021.44 349.871C1023.51 351.338 1024.98 353.098 1023.21 353.098C1021.44 353.098 1015.84 353.098 1015.25 352.217C1014.66 351.338 1012.01 350.75 1010.24 348.698C1008.47 346.647 1004.64 345.179 1003.75 343.42C1002.87 341.659 1001.69 341.074 1000.21 341.074C998.738 341.074 997.264 342.833 995.198 344.886C993.133 346.938 994.021 343.715 991.364 344.593C988.708 345.474 985.763 344.298 984.287 343.126C982.811 341.953 983.109 340.194 980.75 341.074C978.388 341.953 976.917 341.367 977.801 339.608C978.685 337.846 978.094 335.501 978.094 335.501C978.094 335.501 978.981 332.568 976.918 331.983C974.853 331.398 974.853 329.345 972.788 328.756C970.722 328.171 967.481 326.704 967.481 326.704C967.481 326.704 967.186 326.704 966.3 326.411C965.416 326.117 965.416 326.117 963.056 325.532C960.698 324.944 958.926 325.529 957.748 324.065C956.567 322.599 957.158 320.545 957.158 320.545C957.158 320.545 961.876 321.132 957.158 317.613L952.439 314.095C952.439 314.095 953.026 313.8 952.733 313.214C952.432 312.615 955.681 313.201 955.681 313.201L955.677 313.214Z" fill="#B3D1C9"/>
<path d="M822.966 288.862C822.966 288.862 824.44 290.331 826.8 290.036C829.158 289.742 830.926 294.728 832.404 296.487C833.877 298.247 834.764 299.126 838.006 301.18C841.249 303.232 840.954 299.42 845.379 305.578C849.802 311.736 847.737 307.925 849.802 311.736C851.866 315.552 853.046 317.603 854.225 318.485C855.403 319.364 856.29 321.708 856.586 322.589C856.88 323.468 858.943 326.107 858.943 326.987C858.943 327.867 859.534 330.213 857.765 332.265C855.995 334.319 854.52 334.612 854.52 334.612C854.52 334.612 850.981 332.852 849.802 331.093C848.622 329.334 847.149 327.867 845.083 324.349C843.019 320.829 840.659 317.016 839.48 315.257C838.301 313.496 836.531 311.736 835.647 309.978C834.762 308.217 832.403 302.94 831.223 302.352C830.044 301.765 829.748 300.007 827.683 297.954C825.621 295.9 825.914 294.142 825.03 292.969C824.146 291.796 822.082 289.154 822.082 289.154L822.947 288.868L822.966 288.862Z" fill="#B3D1C9"/>
<path d="M249.386 517.61C247.321 516.438 242.898 514.385 241.424 513.212C239.95 512.039 235.527 505.585 235.527 505.585L232.281 499.426C232.281 499.426 228.449 494.734 229.333 492.975C230.218 491.215 231.988 490.043 231.988 489.163C231.988 488.284 233.757 485.936 232.281 485.058C230.807 484.177 230.807 483.885 229.922 481.246C229.037 478.607 229.037 476.258 227.858 475.673C226.678 475.088 225.793 471.275 224.614 470.981C223.435 470.687 222.254 468.635 222.254 468.635L220.484 444.881C220.484 444.881 219.893 434.032 219.305 431.684C218.714 429.339 220.19 424.354 218.714 419.954C217.24 415.555 219.01 410.277 218.125 408.517C217.24 406.757 218.714 401.773 217.83 397.082C216.945 392.39 221.369 386.524 217.83 384.766C214.291 383.004 216.945 380.366 213.996 380.366C211.048 380.366 208.983 378.899 206.329 376.848C203.674 374.795 198.66 370.981 197.186 369.514C195.712 368.05 190.993 364.236 189.519 363.063C188.045 361.891 186.57 356.905 185.391 355.438C184.211 353.973 183.622 349.575 181.852 346.935C180.082 344.297 177.723 339.898 177.132 339.017C176.543 338.138 170.055 330.513 170.055 330.513L170.644 325.822C170.644 325.822 175.068 323.182 174.478 322.303C173.888 321.422 174.774 320.541 172.708 318.784C170.643 317.022 170.938 313.796 172.708 312.332C174.478 310.863 177.131 306.172 177.131 306.172L181.554 298.842C181.554 298.842 185.094 295.027 185.094 292.388C185.094 289.75 190.107 287.991 187.158 285.645C184.209 283.297 185.684 281.245 184.798 279.485C183.913 277.726 184.504 276.553 187.158 274.793C189.813 273.033 194.531 266.582 194.531 266.582C194.531 266.582 198.069 265.701 198.954 265.701C199.838 265.701 201.313 256.315 203.968 262.474C206.622 268.633 207.507 265.407 206.622 269.805C205.737 274.204 207.802 273.326 208.981 272.153C210.16 270.978 208.39 273.033 210.75 267.752C213.108 262.474 212.225 260.715 213.699 262.182C215.173 263.649 215.762 263.942 218.417 264.822C221.07 265.701 221.956 265.407 222.839 267.167C223.723 268.927 223.43 266.581 228.442 267.462C233.455 268.342 240.533 265.701 239.649 268.633C238.764 271.566 236.994 268.34 241.123 271.566C245.251 274.793 245.842 275.378 248.2 275.965C250.559 276.552 252.624 276.259 256.164 279.778C259.703 283.296 260.587 283.59 261.471 285.348C262.356 287.109 263.83 285.935 265.305 287.694C266.779 289.456 268.844 289.456 270.907 289.456C272.971 289.456 270.907 287.694 274.151 290.042C277.397 292.387 279.755 292.679 281.229 297.372C282.703 302.068 285.652 301.772 283.293 306.465C280.934 311.158 276.216 313.21 278.28 312.917C280.343 312.622 284.178 310.862 285.358 311.156C286.537 311.448 287.126 310.277 288.896 311.156C290.667 312.036 290.961 309.984 290.667 312.036C290.37 314.089 290.37 312.036 290.37 314.089C290.37 316.141 289.781 312.036 293.32 312.917C296.859 313.796 294.794 311.155 298.922 314.969C303.052 318.782 303.052 317.61 304.525 319.662C306 321.712 307.474 318.49 308.359 319.369C309.245 320.247 311.898 319.66 314.553 320.248C317.207 320.833 315.437 318.489 319.567 321.127C323.694 323.766 327.824 322.886 328.708 325.233C329.593 327.578 331.954 326.699 333.131 328.166C334.309 329.633 334.9 327.578 336.081 329.633C337.26 331.683 340.8 331.097 340.209 333.149C339.618 335.204 341.092 334.03 340.503 336.961C339.914 339.897 337.848 344.589 336.081 345.76C334.311 346.934 334.312 348.399 333.131 349.865C331.952 351.334 332.247 348.399 330.772 352.505C329.298 356.612 329.593 357.198 328.413 361.009C327.234 364.82 328.119 361.009 327.234 364.821C326.35 368.633 326.939 370.98 326.055 375.38C325.171 379.777 325.465 379.778 324.876 383.004C324.286 386.23 326.35 381.54 323.695 388.282C321.042 395.028 320.747 394.733 319.863 397.667C318.977 400.601 320.158 398.253 316.914 400.013C313.67 401.775 315.44 401.186 311.605 402.36C307.773 403.532 303.053 404.708 301.579 404.999C300.105 405.291 294.207 407.051 295.977 410.569C297.747 414.09 297.747 414.676 295.977 419.076C294.207 423.473 291.554 424.941 291.554 426.992C291.554 429.044 290.373 431.096 290.08 432.563C289.783 434.03 292.733 431.096 289.195 435.496C285.656 439.895 285.362 438.722 284.181 441.362C283.002 444 284.181 441.947 283.002 444C281.823 446.052 278.873 446.931 278.873 446.931C278.873 446.931 279.167 448.399 277.988 447.812C276.807 447.227 277.103 448.105 272.679 446.931C268.256 445.759 267.666 442.829 267.076 444.879C266.487 446.932 267.371 448.107 270.026 450.159C272.679 452.212 277.103 452.797 275.923 454.852C274.744 456.905 274.744 456.905 273.859 458.078C272.974 459.252 275.038 458.371 272.974 459.252C270.91 460.131 269.73 463.945 268.845 463.945C267.961 463.945 267.37 465.41 266.191 464.824C265.011 464.236 262.064 462.184 261.473 463.357C260.883 464.528 259.703 461.89 259.997 465.995C260.293 470.101 260.883 472.447 259.408 473.328C257.934 474.207 254.394 473.328 254.394 473.328L253.804 471.861L251.74 472.447C251.74 472.447 250.856 475.966 252.33 476.553C253.804 477.139 253.509 477.724 254.983 479.484C256.458 481.244 255.574 484.47 255.574 484.47C255.574 484.47 255.574 485.351 254.1 486.817C252.626 488.282 252.035 489.456 251.74 490.336C251.444 491.215 249.676 495.029 252.33 494.734C254.983 494.44 257.049 492.974 257.049 497.667C257.049 502.359 258.229 501.188 256.755 504.412C255.279 507.638 254.1 507.931 253.805 510.863C253.512 513.796 254.101 514.089 254.691 515.849C255.281 517.609 256.756 516.728 255.281 517.609C253.813 518.443 249.398 517.57 249.398 517.57L249.386 517.61Z" fill="#B3D1C9"/>
<path d="M173.304 278.896L171.24 275.964C171.24 275.964 170.356 274.203 168.881 273.911C167.405 273.619 164.161 269.806 164.161 269.806C164.161 269.806 162.687 268.633 162.687 266.581C162.687 264.528 161.507 261.303 162.391 257.784C163.277 254.266 163.572 249.866 163.277 248.692C162.981 247.52 164.751 247.227 162.687 246.053C160.622 244.88 156.494 244.587 153.839 244.587C151.186 244.587 147.941 245.468 147.351 245.759C146.762 246.053 150.595 236.962 151.185 235.497C151.775 234.031 154.429 227.578 154.429 226.7C154.429 225.819 155.313 225.526 153.545 224.354C151.776 223.18 148.827 222.594 147.057 223.474C145.288 224.354 145.583 222.301 144.109 225.819C142.635 229.339 141.159 233.151 139.389 233.738C137.62 234.325 134.082 236.084 134.082 236.084C134.082 236.084 129.658 235.791 128.183 235.498C126.709 235.205 120.516 231.979 119.337 229.927C118.157 227.873 117.568 223.474 117.568 221.423C117.568 219.37 120.811 213.212 120.516 211.745C120.221 210.279 123.761 204.414 123.465 203.533C123.169 202.653 124.055 199.721 124.939 198.548C125.823 197.375 130.248 195.908 131.427 194.736C132.606 193.562 134.671 192.097 136.735 191.51C138.798 190.922 140.57 190.337 142.044 190.337C143.518 190.337 147.351 187.111 147.941 190.337C148.532 193.562 151.186 192.389 152.66 192.682C154.134 192.977 154.43 194.443 156.789 190.63C159.148 186.817 161.507 185.644 161.507 186.524C161.507 187.404 165.34 186.232 165.93 187.111C166.52 187.991 167.7 186.524 169.764 188.284C171.829 190.044 174.776 190.337 174.482 191.215C174.187 192.095 175.661 192.095 175.661 192.976C175.661 193.855 176.841 190.922 176.841 196.2C176.841 201.48 178.315 204.706 178.315 204.706C178.315 204.706 180.379 209.105 181.263 208.225C182.148 207.345 183.916 205 183.916 205C183.916 205 186.866 203.24 184.802 197.081C182.737 190.924 184.213 189.163 183.623 187.11C183.032 185.057 183.032 183.883 186.571 181.244C190.11 178.606 198.661 172.741 200.726 171.568C202.79 170.395 207.508 167.169 207.508 167.169C207.508 167.169 209.277 166.29 209.573 163.943C209.868 161.598 215.47 157.492 215.766 156.319C216.062 155.146 219.896 152.215 219.896 152.215C219.896 152.215 224.023 149.867 223.728 148.403C223.433 146.937 229.037 144.299 229.922 144.299C230.806 144.299 235.525 145.763 235.525 143.123C235.525 140.485 235.525 139.897 238.475 137.552C241.422 135.207 245.256 131.687 246.731 131.687C248.205 131.687 253.219 129.05 255.283 128.462C257.348 127.874 263.836 124.942 257.938 128.462C252.039 131.98 255.873 129.928 254.693 132.86C253.516 135.792 252.629 139.606 258.232 135.206C263.836 130.807 263.54 129.926 265.605 129.635C267.67 129.341 266.194 130.514 270.618 129.047C275.042 127.581 275.337 126.995 275.337 126.995C275.337 126.995 277.402 125.235 276.221 124.357C275.042 123.476 277.402 122.303 272.977 124.062C268.554 125.822 268.849 126.115 265.9 125.235C262.952 124.355 258.527 124.647 261.771 121.714C265.015 118.783 269.144 117.902 266.489 116.729C263.836 115.557 257.053 117.024 256.169 117.316C255.283 117.609 253.219 117.023 251.449 117.316C249.681 117.609 250.27 114.972 251.449 114.384C252.63 113.797 256.464 112.036 261.182 110.864C265.9 109.691 277.402 109.398 280.055 109.398C282.708 109.398 286.247 109.986 288.312 108.519C290.375 107.053 294.505 104.708 295.095 103.533C295.686 102.36 298.044 100.601 298.044 100.601C298.044 100.601 300.697 97.9614 299.223 96.7888C297.749 95.6162 296.274 92.9765 295.095 93.5628C293.916 94.1491 294.801 97.6695 292.442 93.856C290.082 90.045 290.377 89.4574 289.198 88.578C288.018 87.6985 286.838 88.2835 287.724 84.1794C288.608 80.0741 288.313 78.3139 288.313 78.3139C288.313 78.3139 289.198 74.7961 288.313 74.5029C287.428 74.2085 286.839 73.3303 285.365 74.2085C283.89 75.0879 275.633 79.1946 273.864 80.0741C272.094 80.9535 269.735 76.555 270.619 74.5029C271.505 72.4483 270.914 73.6222 269.735 70.6907C268.555 67.7579 263.837 67.1703 262.067 67.1703C260.297 67.1703 256.17 64.5306 254.99 66.2908C253.81 68.0497 247.618 73.6209 246.437 74.2085C245.257 74.7961 243.489 69.2236 242.604 78.3139C241.719 87.4067 245.848 90.045 241.13 90.6313C236.412 91.2176 232.282 93.856 232.282 93.856C232.282 93.856 228.45 94.1504 228.45 96.4956C228.45 98.8434 226.976 104.413 225.205 105C223.436 105.587 219.011 104.708 217.537 102.948C216.064 101.187 217.832 94.7367 217.832 94.7367L220.487 92.0971C220.487 92.0971 201.613 89.1656 201.907 87.9917C202.203 86.8191 196.304 84.767 195.715 83.0068C195.125 81.2466 194.829 77.4344 195.42 75.9687C196.01 74.5029 203.972 67.4647 208.1 65.999C212.229 64.5319 219.306 61.3073 221.371 60.7197C223.436 60.1334 226.974 60.4265 228.154 58.9608C229.333 57.4937 229.628 54.8554 229.628 54.8554C229.628 54.8554 229.038 50.7487 230.218 51.335C231.397 51.9226 233.462 52.802 233.756 53.6815C234.053 54.5609 234.053 56.6143 236.116 54.2665C238.181 51.9213 240.835 51.0405 243.194 49.8692C245.554 48.6953 249.091 48.9898 251.157 47.8172C253.221 46.6446 256.76 45.4707 257.054 42.5379C257.349 39.6064 256.17 40.4859 254.695 40.1914C253.221 39.8996 255.284 40.4859 250.272 42.8311C245.257 45.1762 246.733 43.4174 243.194 45.1762C239.655 46.9364 239.359 47.2296 239.065 45.7638C238.769 44.2968 239.655 41.9516 239.655 41.9516C239.655 41.9516 239.951 41.6572 237.886 41.0722C235.821 40.4859 235.821 41.3653 235.527 38.727C235.232 36.0873 237.001 32.2751 234.053 33.4477C231.103 34.6203 228.45 32.5682 226.385 38.4325C224.32 44.2968 217.243 50.4568 215.473 48.9898C213.704 47.5241 213.409 47.2296 211.934 47.2296C210.458 47.2296 208.395 45.4707 205.74 45.1775C203.086 44.8844 195.123 44.8844 193.06 45.1775C190.995 45.472 188.637 44.005 186.866 45.7652C185.097 47.524 182.444 49.8705 182.444 50.7513C182.444 51.6307 179.789 47.524 178.905 47.8185C178.021 48.1116 175.66 46.6459 173.008 46.6459C170.353 46.6459 168.583 45.1789 167.7 45.1789C166.816 45.1789 168.583 42.8324 167.7 42.5392C166.816 42.2474 147.645 41.6598 147.645 41.6598C147.645 41.6598 141.453 39.3146 139.094 39.6077C136.735 39.9009 130.248 40.1927 125.233 41.0735C120.218 41.9529 112.846 44.8857 110.488 45.1789C108.128 45.4733 102.82 45.4733 101.936 44.0063C101.05 42.5405 102.231 42.8337 101.05 42.5405C99.871 42.2487 100.757 41.6611 98.1022 39.609C95.4477 37.5557 99.2827 35.7968 93.9737 35.7968C88.6661 35.7968 85.4221 35.5023 80.704 35.7968C75.9847 36.0899 66.2538 38.4351 65.0746 38.142C63.8955 37.8488 54.4581 39.609 52.9828 38.7296C51.5088 37.8488 44.135 41.9542 42.6623 41.6611C41.1884 41.3679 35.5846 41.9555 34.1107 42.835C32.6354 43.7157 25.5577 45.4733 27.9173 46.9404C30.2757 48.4061 29.9809 49.8718 30.2757 50.7526C30.5718 51.632 27.9173 53.6841 27.9173 53.6841C27.9173 53.6841 27.3264 53.6841 24.0837 52.5115C20.8396 51.3376 17.3008 50.7526 15.8255 51.632C14.3515 52.5115 11.6971 54.273 12.2866 55.4456C12.8775 56.6182 17.0047 59.2578 17.5956 58.3771C18.1852 57.4976 19.6605 55.7387 21.4292 56.0319C23.1993 56.3263 25.8538 54.8593 23.4941 57.7921C21.1344 60.7236 19.0696 62.1906 17.5956 62.4851C16.1216 62.7769 12.5828 63.0701 9.3387 63.3645C6.09333 63.659 6.38812 62.1919 3.44017 65.1247C0.49222 68.0562 -0.688271 66.2973 -1.27786 69.5233C-1.86745 72.7479 -2.45704 72.7479 -1.27786 73.6287C-0.0986806 74.5081 -3.63753 74.8013 -0.983066 75.6807C1.67009 76.5615 4.91415 77.4409 4.61935 78.3191C4.32325 79.1998 7.56861 77.1478 5.79853 79.4917C4.02845 81.8395 2.85058 83.8902 6.38812 81.545C9.92698 79.1998 11.9905 80.9574 14.9398 79.4917C17.8891 78.0259 20.8383 77.7328 22.6071 76.5602C24.3772 75.3863 25.2616 73.6287 27.916 72.7466C30.5705 71.8672 28.8004 73.0411 29.0952 74.5068C29.39 75.9726 29.0952 76.2657 30.8653 75.0918C32.6341 73.9192 32.6341 74.8 34.9937 73.3329C37.3521 71.8672 40.0066 70.4001 41.7766 71.2796C43.5454 72.1603 44.135 72.1603 45.3155 72.1603C46.4947 72.1603 43.8415 71.8659 46.4947 72.1603C49.1492 72.4522 45.3155 71.2796 54.162 73.3329C63.0098 75.385 65.3694 73.9192 65.9577 77.1452C66.5486 80.3711 67.7278 76.8507 69.2018 78.9041C70.6758 80.9561 71.5614 79.1985 72.4458 82.7163C73.3302 86.2367 72.4458 95.9132 71.8562 97.0858C71.2667 98.2584 70.9719 98.2584 71.2667 100.898C71.5615 103.536 75.1003 116.148 73.9211 117.026C72.7419 117.905 70.0875 118.199 70.0875 118.199L68.6135 123.477C68.6135 123.477 66.2551 127.876 64.1903 130.222C62.1254 132.567 59.4722 135.501 57.9969 137.552C56.523 139.606 55.3425 143.126 53.2789 145.178C51.2153 147.23 49.4453 146.351 50.0348 150.749C50.6244 155.148 50.0348 159.839 50.6244 163.067C51.2153 166.293 52.6893 170.691 53.8685 172.451C55.0477 174.21 55.9334 174.21 57.9969 175.676C60.0618 177.142 62.7163 178.903 62.4202 180.369C62.1254 181.835 62.715 190.927 62.715 190.927C62.715 190.927 64.4851 193.859 64.7785 197.085C65.0746 200.312 67.1382 203.537 67.1382 203.537L68.9083 207.35C68.9083 207.35 69.7927 207.645 70.9732 209.989C72.1524 212.335 72.1524 212.335 72.4471 213.507C72.7432 214.682 72.7432 214.387 72.7432 214.682C72.7432 214.974 72.4472 209.696 71.8576 208.229C71.268 206.763 71.268 205.004 70.6784 203.244C70.0888 201.483 70.9732 199.43 69.2044 196.792C67.4356 194.153 67.4356 193.859 66.5512 191.219C65.6669 188.581 64.4864 185.648 65.6669 185.061C66.846 184.476 67.7304 180.663 70.0901 185.061C72.4485 189.459 72.7446 188.288 73.0394 191.807C73.3328 195.326 74.2185 196.5 75.1029 197.964C75.9873 199.43 78.0509 204.418 79.2314 206.468C80.4105 208.522 79.2314 205.296 81.8845 209.401C84.539 213.507 84.8351 214.386 86.3091 217.612C87.7831 220.838 88.6687 220.838 89.5531 223.183C90.4375 225.531 89.8479 224.943 89.257 227.582C88.6674 230.22 89.8466 233.154 89.8466 233.154C89.8466 233.154 93.9751 234.62 94.2699 235.499C94.5646 236.379 98.6931 237.844 99.284 239.018C99.8736 240.192 103.707 241.657 103.707 241.657C103.707 241.657 106.951 243.71 108.129 244.296C109.31 244.883 112.85 245.47 112.85 245.47C112.85 245.47 115.208 246.058 116.093 246.35C116.977 246.643 119.631 246.643 119.631 246.643C119.631 246.643 121.991 244.884 122.875 245.47C123.76 246.055 125.825 244.296 126.709 245.762C127.594 247.229 129.364 247.229 130.248 248.403C131.132 249.576 132.017 249.576 133.492 251.041C134.967 252.507 136.441 252.214 137.915 253.387C139.389 254.559 140.568 254.559 142.339 254.559C144.107 254.559 144.107 254.559 145.288 254.854C146.466 255.147 147.057 253.973 148.236 255.441C149.415 256.907 150.299 257.786 151.184 259.252C152.068 260.718 154.133 260.718 154.428 263.064C154.723 265.41 155.312 265.119 155.312 267.17C155.312 269.223 156.491 270.103 157.377 270.69C158.26 271.275 161.504 274.207 161.504 274.207L165.927 275.087L169.466 277.727L173.2 278.9L173.304 278.896Z" fill="#B3D1C9"/>
<path d="M267.822 6.4619L285.516 4.26263C285.516 4.26263 291.708 4.26263 294.805 2.06335C297.901 -0.135918 294.805 -0.135917 304.095 -1.89481C313.384 -3.65501 310.731 -4.53446 315.597 -3.65501C320.462 -2.77426 321.789 -2.77426 327.098 -1.89481C332.405 -1.01537 333.733 -2.33389 338.597 -1.01537C343.464 0.304458 345.675 -0.135917 349.657 -0.135917H362.042C368.235 -0.135917 373.986 -3.65501 376.198 -1.45574C378.409 0.743531 379.736 -0.135917 387.257 0.743531C394.776 1.62298 397.874 -0.13722 400.97 0.743531C404.067 1.62298 409.376 0.304458 415.568 0.743531C421.76 1.1826 424.857 0.304458 427.069 0.304458C429.28 0.304458 431.491 -2.77556 434.588 -0.135917C437.685 2.50373 441.666 -1.01537 442.107 2.50373C442.55 6.02283 448.301 3.38318 442.55 6.02283C436.8 8.66247 437.684 8.2221 433.702 11.7412C429.722 15.2603 436.357 18.339 427.952 21.419C419.547 24.4978 418.22 19.6588 416.008 24.9381C413.796 30.2161 416.008 31.5359 415.566 34.1756C415.124 36.8139 414.239 37.2543 411.585 39.4536C408.932 41.6529 408.932 39.4536 402.738 40.7734C396.545 42.0932 392.122 43.4131 389.469 43.4131C386.814 43.4131 381.064 45.6123 379.294 46.4918C377.523 47.3725 382.391 48.691 373.1 51.3307C363.811 53.9703 361.598 53.5313 358.945 57.0491C356.29 60.5695 357.175 61.0098 355.406 63.2091C353.636 65.4084 348.328 74.2068 345.674 72.0075C343.021 69.8082 341.692 70.2473 339.48 68.048C337.269 65.8488 335.942 62.77 334.614 61.0098C333.287 59.2496 332.844 54.8511 332.403 52.2114C331.961 49.5718 327.978 43.4144 332.403 44.2938C336.826 45.1733 339.48 44.7342 340.808 43.8547C342.135 42.974 343.462 39.8953 343.462 39.8953C343.462 39.8953 343.021 35.0563 341.692 32.4167C340.365 29.777 341.251 27.5778 339.039 24.9394C336.827 22.2998 336.827 22.7402 333.73 20.1005C330.634 17.4609 331.518 16.141 326.652 15.702C321.786 15.2629 320.459 13.9418 318.689 14.3821C316.92 14.8212 311.17 11.3021 317.362 10.863C323.555 10.4227 329.305 11.3021 329.305 11.3021C329.305 11.3021 337.268 7.78302 334.614 7.34395C331.961 6.90358 338.595 2.94411 332.403 4.26393C326.209 5.58375 319.133 7.34395 317.363 7.78302C315.594 8.2221 311.17 8.66247 306.746 9.9823C302.325 11.3021 297.014 10.863 294.361 13.9418C291.707 17.0205 294.361 17.4609 291.707 17.0205C289.053 16.5814 293.918 13.9418 287.726 17.0205C281.533 20.1005 283.303 19.6601 280.207 18.7807C277.11 17.9012 274.898 16.5814 274.898 16.5814C274.898 16.5814 278.881 16.141 273.129 15.702C267.379 15.2629 267.379 15.2629 265.167 12.6219C262.956 9.9823 264.283 9.9823 265.609 9.10285C266.919 8.2221 267.81 6.4619 267.81 6.4619H267.822Z" fill="#B3D1C9"/>
<path d="M258.086 26.2559C255.874 28.4551 250.566 31.5352 251.894 32.855C253.221 34.1748 254.106 39.0137 256.76 37.6939C259.413 36.3741 256.317 31.9755 266.491 35.4946C276.666 39.0137 275.78 35.0556 277.992 40.3335C280.204 45.6115 281.972 49.5697 280.645 50.8908C279.319 52.2107 278.876 53.5305 274.452 54.8503C270.029 56.1701 268.258 57.9303 271.356 60.1283C274.452 62.3276 280.204 64.5268 282.857 65.848C285.511 67.1665 293.473 67.6082 289.492 63.2096C285.51 58.8111 290.376 57.4899 290.376 57.4899C290.376 57.4899 297.897 63.2096 295.243 56.6105C292.589 50.0127 290.819 50.0127 292.589 50.0127C294.359 50.0127 297.897 52.212 297.897 52.212L299.667 48.6929L297.897 42.9745L292.146 37.2561C292.146 37.2561 297.011 32.8576 290.376 31.9781C283.741 31.0987 284.183 31.0987 280.644 28.8981C277.105 26.6988 276.663 25.8194 270.027 27.1392C263.392 28.459 261.181 29.3385 261.181 29.3385L258.102 26.2559H258.086Z" fill="#B3D1C9"/>
<path d="M159.441 31.5358C162.096 28.8961 169.174 22.7387 171.828 24.4976C174.481 26.2565 178.462 23.1777 181.559 25.8174C184.655 28.457 188.194 31.5358 190.848 32.4152C193.503 33.2947 196.599 30.2159 199.253 31.5358C201.906 32.8556 211.196 24.9379 209.427 31.0967C207.657 37.2554 211.639 39.0143 206.772 39.4547C201.906 39.8951 196.599 43.4142 194.386 42.0943C192.174 40.7745 190.404 39.4547 186.865 41.2149C183.326 42.9738 185.096 42.9738 181.115 42.0943C177.134 41.2149 176.25 42.9738 175.366 41.654C174.48 40.3354 171.827 40.7745 172.268 36.815C172.71 32.8569 174.037 33.296 171.383 33.296C168.729 33.296 166.518 33.7363 164.748 32.4165C162.992 31.0967 159.455 31.5358 159.455 31.5358H159.441Z" fill="#B3D1C9"/>
</svg>
