<svg width="649" height="340" viewBox="0 0 649 340" fill="none" xmlns="http://www.w3.org/2000/svg">
<g clip-path="url(#clip0_3289_19675)">
<path d="M295.392 111.492L292.515 115.312L290.598 117.222L286.764 119.322L286.188 121.042C286.188 121.042 284.654 122.57 284.846 123.525C285.039 124.481 285.039 126.199 285.039 126.199C285.039 126.199 282.354 128.683 281.203 129.446C280.052 130.21 278.518 131.929 278.518 131.929C278.518 131.929 277.559 133.076 276.984 133.458C276.409 133.839 275.451 134.985 274.683 136.132C273.915 137.278 273.149 138.041 272.765 138.614C272.382 139.187 271.231 140.524 270.656 142.625C270.081 144.727 268.546 147.21 268.546 147.21L268.162 148.164C268.355 151.412 268.354 151.985 268.738 153.131C269.122 154.277 269.506 153.894 269.122 156.378C268.738 158.86 268.738 159.816 268.355 160.962C267.971 162.107 266.82 164.208 266.438 165.165C266.054 166.12 267.205 167.838 267.205 167.838C267.205 167.838 267.781 170.322 267.396 170.895C267.013 171.468 267.588 172.614 267.588 172.614C267.588 172.614 269.889 173.951 270.657 174.715C271.424 175.479 272.766 176.626 272.958 177.198C273.15 177.772 274.684 180.446 274.876 181.019C275.067 181.592 276.602 183.692 276.985 184.266C277.368 184.839 279.286 186.941 279.286 186.941C279.286 186.941 281.779 188.849 282.355 189.614C282.93 190.377 284.656 190.759 285.23 191.332C285.806 191.905 287.148 191.713 287.915 192.288C288.682 192.861 290.216 191.905 290.984 192.288C291.75 192.67 293.861 191.906 294.436 191.524C295.011 191.142 296.353 189.805 297.312 190.377C298.27 190.949 298.845 190.377 299.613 190.568C300.379 190.759 301.53 189.805 302.297 189.805C303.064 189.805 304.981 189.041 305.556 189.041C306.132 189.041 308.05 187.894 308.818 187.894C309.583 187.894 310.543 187.131 311.501 187.512C312.46 187.894 312.076 186.75 313.802 187.322C315.528 187.894 316.103 187.322 316.678 187.894C317.254 188.467 318.022 187.895 318.597 188.659C319.172 189.422 320.131 189.995 320.322 190.759C320.513 191.524 321.664 192.289 321.664 192.289L322.815 192.479C322.815 192.479 324.35 191.333 324.733 192.098C325.116 192.861 326.842 192.671 326.842 192.671L328.568 194.581L329.143 195.344C329.143 195.344 330.294 198.401 330.102 199.547C329.91 200.692 329.91 203.176 329.335 203.748C328.76 204.322 328.377 206.805 328.377 206.805C328.377 206.805 327.609 207.569 329.335 209.097C331.061 210.626 332.212 211.962 332.787 212.725C333.363 213.49 334.898 215.592 335.088 216.928C335.28 218.265 335.663 219.029 336.431 220.748C337.198 222.467 338.156 222.658 338.348 224.569C338.541 226.479 338.923 226.48 338.731 227.815C338.54 229.153 337.965 229.344 338.54 230.298C339.115 231.254 339.881 232.973 339.691 233.546C339.499 234.119 339.115 236.602 339.115 236.602L338.731 237.748L337.006 240.997L335.855 242.715C335.472 244.051 334.705 245.389 334.897 247.299C335.088 249.209 333.938 249.208 335.472 251.118C337.006 253.029 337.772 255.13 338.731 256.849C339.691 258.568 340.266 260.287 340.457 261.433C340.649 262.579 341.416 262.962 341.799 264.489C342.182 266.018 342.374 266.781 342.374 267.736C342.374 268.691 342.182 271.175 342.567 271.748C342.949 272.32 343.142 274.041 343.334 274.804C343.525 275.569 342.758 275.76 343.909 277.097C345.06 278.434 345.826 279.198 346.593 280.153C347.36 281.109 347.168 280.726 347.744 282.064C348.319 283.4 349.086 284.166 349.279 285.31C349.47 286.456 349.661 289.321 350.237 290.658C350.812 291.996 351.579 293.333 351.579 293.333C351.579 293.333 353.689 294.67 354.456 294.479C355.222 294.288 356.757 292.57 357.908 293.142C359.059 293.715 360.017 293.142 360.976 293.142C361.934 293.142 362.894 291.996 363.853 291.996C364.811 291.996 366.153 290.467 366.922 290.85C367.688 291.231 368.646 290.467 369.605 289.512C370.565 288.558 371.14 287.794 372.865 286.266C374.591 284.738 374.399 284.737 375.549 283.782C376.7 282.826 377.851 280.725 379.193 280.343C380.535 279.961 380.918 278.626 381.302 277.67C381.686 276.715 381.877 276.142 382.453 275.377C383.029 274.614 382.645 275.571 383.604 273.086C384.563 270.602 385.715 269.648 386.673 269.074C387.632 268.502 388.207 267.356 388.782 267.164C389.357 266.972 390.316 267.737 389.933 266.018C389.55 264.299 389.933 261.816 389.55 261.243C389.166 260.669 388.59 262.579 388.783 259.713C388.976 256.849 391.084 253.983 391.084 253.983C391.084 253.983 393.96 250.355 394.919 249.782C395.879 249.209 396.07 248.636 397.413 247.872C398.754 247.109 401.631 245.199 401.631 244.243C401.631 243.287 402.782 240.804 402.782 240.231C402.782 239.658 402.782 239.085 402.4 235.837C402.015 232.591 402.782 233.354 401.632 230.298C400.482 227.242 400.289 223.422 399.523 222.467C398.755 221.512 399.138 219.028 399.138 218.265C399.138 217.501 400.482 215.591 401.057 214.827C401.632 214.063 404.125 211.006 404.125 211.006C404.125 211.006 407.96 206.613 409.302 204.513C410.645 202.411 411.987 200.502 412.945 199.738C413.904 198.974 416.206 197.253 417.547 195.344C418.89 193.434 421.575 189.805 421.767 189.231C421.958 188.659 423.492 186.749 423.492 186.749C423.492 186.749 425.601 184.265 425.985 182.928C426.368 181.591 428.285 174.142 427.901 174.523C427.52 174.906 425.218 175.287 424.45 175.478C423.684 175.67 425.602 176.433 420.039 176.052C414.48 175.669 411.603 176.625 411.603 176.625C409.876 176.242 408.535 178.152 407.959 175.478C407.384 172.805 406.999 171.277 405.85 169.366C404.699 167.456 403.931 166.692 402.207 164.208C400.482 161.726 400.672 162.871 399.138 160.962C397.604 159.052 397.22 159.624 396.261 157.142C395.303 154.659 394.536 155.614 393.385 152.176C392.234 148.736 391.467 148.354 390.892 146.445C390.316 144.536 389.55 143.961 389.166 142.243C388.783 140.523 384.373 131.738 383.797 131.164C383.221 130.592 382.263 127.534 382.455 128.108C382.647 128.681 385.332 130.591 385.332 130.591C385.332 130.591 386.865 130.017 387.441 130.017C388.016 130.017 390.317 132.119 390.317 132.882C390.317 133.647 394.346 137.277 395.304 139.951C396.262 142.625 397.415 144.535 397.605 145.299C397.795 146.062 399.714 149.119 400.482 150.266C401.248 151.412 403.741 153.703 404.124 154.85C404.507 155.996 408.152 159.816 408.152 162.299C408.152 164.782 409.876 168.029 410.069 168.793C410.261 169.556 413.712 170.513 413.712 170.513L418.315 169.366C418.315 169.366 425.218 164.972 425.985 164.972C426.751 164.972 432.889 162.107 432.889 162.107C432.889 162.107 435.381 159.816 437.107 158.479C438.833 157.142 440.75 154.66 441.135 153.512C441.517 152.366 442.285 152.176 443.818 150.456C445.353 148.736 447.462 147.018 446.12 145.871C444.778 144.726 444.01 145.108 442.093 143.197C440.175 141.288 440.367 141.67 439.024 139.186C437.682 136.704 439.216 133.838 436.339 136.704C433.464 139.569 434.614 140.332 431.737 140.907C428.861 141.479 427.71 143.389 426.368 141.479C425.026 139.569 423.684 140.715 422.916 137.849C422.149 134.984 421.573 134.793 421.382 133.648C421.191 132.501 421.382 132.501 419.848 129.636C418.314 126.771 419.464 122.377 420.423 124.86C421.382 127.343 422.916 127.725 425.409 129.445C427.901 131.163 429.053 132.501 431.353 132.692C433.654 132.882 435.572 132.692 435.956 133.073C436.339 133.456 436.722 132.883 437.682 133.264C438.641 133.647 439.023 132.692 439.407 134.219C439.79 135.747 441.9 135.938 442.858 136.893C443.817 137.848 443.817 137.467 446.311 137.848C448.805 138.23 452.257 138.23 452.257 138.23L455.899 138.039L460.118 138.42C460.118 138.42 463.188 140.139 463.953 140.139C464.72 140.139 464.912 142.241 466.83 143.387C468.747 144.533 469.131 144.723 470.281 146.061C471.434 147.398 471.24 147.971 472.774 149.307C474.309 150.646 476.803 149.117 477.186 148.545C477.568 147.972 479.485 147.017 479.104 148.545C478.719 150.073 481.02 149.499 480.445 153.13C479.87 156.758 479.485 155.803 480.445 158.287C481.403 160.77 485.622 168.41 485.815 170.702C486.007 172.994 487.156 172.23 487.348 174.333C487.541 176.433 488.69 177.197 488.69 178.725C488.69 180.253 490.033 180.634 490.224 181.782C490.418 182.928 492.526 181.972 493.101 181.782C493.677 181.59 496.361 179.107 496.361 179.107C496.361 179.107 497.514 178.726 497.32 176.815C497.128 174.906 497.32 175.287 497.32 172.422C497.32 169.557 496.17 169.557 496.745 166.693C497.32 163.828 498.854 162.108 499.238 160.772C499.621 159.435 501.156 157.143 501.922 156.951C502.688 156.76 506.908 154.66 507.867 153.321C508.826 151.985 510.36 150.457 511.895 148.929C513.428 147.401 516.113 145.491 516.689 146.064C517.264 146.637 517.072 146.446 518.031 146.446C518.99 146.446 520.716 147.211 522.058 147.401C523.4 147.592 526.086 150.839 526.661 152.559C527.236 154.278 526.852 153.895 528.962 156.379C531.071 158.861 532.989 157.333 532.989 160.39C532.989 163.446 532.989 163.255 533.948 164.401C534.907 165.548 536.057 162.3 537.207 162.683C538.357 163.065 538.549 162.301 539.507 165.357C540.466 168.413 541.041 168.413 541.234 171.469C541.425 174.525 541.042 171.66 541.042 174.142C541.042 176.626 540.849 176.817 541.234 179.109C541.617 181.402 542.958 182.166 542.768 182.548C542.768 182.548 543.918 179.301 543.534 177.008C543.152 174.717 543.534 171.47 544.493 170.515C545.451 169.559 546.412 168.605 547.177 171.088C547.945 173.57 548.328 171.661 550.054 174.526C551.781 177.392 553.314 176.817 553.506 178.155C553.697 179.492 554.658 179.684 555.999 180.829C557.341 181.975 558.491 180.639 560.026 179.492C561.561 178.346 565.778 174.143 565.972 172.424C566.162 170.706 567.888 171.087 564.82 166.695C561.751 162.302 561.751 160.773 558.491 158.099C555.234 155.425 553.315 155.234 555.809 151.796C558.301 148.357 559.452 146.066 560.986 147.021C562.52 147.976 565.203 147.784 565.203 151.606C565.203 155.425 564.436 159.628 567.121 155.043C569.805 150.459 571.149 147.785 570.38 148.551C569.615 149.314 572.107 147.022 572.107 147.022C572.107 147.022 572.299 145.303 575.56 144.539C578.818 143.774 579.777 143.393 580.929 142.82C582.079 142.246 585.339 138.426 585.914 136.707C586.489 134.988 588.024 131.932 587.64 130.595C587.257 129.257 585.338 122.764 584.955 122.954C584.572 123.146 584.764 123.146 582.272 120.472C579.777 117.798 578.052 115.888 577.669 114.741C577.286 113.595 576.326 113.404 577.476 111.876C578.628 110.349 579.203 110.54 579.395 109.202C579.586 107.866 581.119 106.719 578.243 107.675C575.368 108.63 577.476 108.058 574.984 107.867C572.491 107.675 565.972 109.203 569.232 105.193C572.491 101.181 573.448 98.699 574.024 98.699C574.601 98.699 577.477 95.4513 577.668 98.5072C577.861 101.563 579.01 100.798 579.202 102.709C579.395 104.619 583.23 100.608 583.23 100.608C583.23 100.608 584.572 100.99 585.53 101.945C586.489 102.9 586.489 105.956 586.489 105.956C586.489 105.956 585.722 105.001 587.832 106.529C589.942 108.058 592.242 107.293 592.242 110.541C592.242 113.788 592.242 113.979 593.584 114.743C594.928 115.507 596.268 115.126 597.421 114.17C598.571 113.216 600.488 109.777 600.488 109.777C600.488 109.777 600.679 108.439 597.611 106.529C594.544 104.62 592.626 103.283 591.477 102.328C590.325 101.373 590.709 98.5081 591.858 97.3607C593.011 96.2142 593.584 95.6414 593.201 94.1139C592.817 92.5847 593.777 91.439 596.653 91.63C599.529 91.8218 600.104 91.4399 600.104 91.4399C600.104 91.4399 600.681 91.8209 600.681 90.6753C600.681 89.5296 604.323 84.1808 603.364 84.1808C602.405 84.1808 603.558 82.8442 602.98 80.743C602.405 78.641 604.898 75.395 602.79 73.8666C600.68 72.3382 600.104 71.5736 598.762 69.2823C597.421 66.9894 597.611 66.6083 592.626 66.0347C587.64 65.4618 585.339 67.1811 584.188 65.6536C583.037 64.1252 582.463 67.9449 581.696 63.3606C580.929 58.7764 582.847 55.7196 582.847 55.7196C582.847 55.7196 585.915 53.8102 586.681 52.4728C587.448 51.1354 590.516 50.5626 593.011 51.5181C595.504 52.4728 599.146 52.2819 602.215 52.8564C605.283 53.4284 605.092 55.3386 606.626 52.8564C608.16 50.3716 606.626 49.2268 607.776 47.8894C608.928 46.552 610.269 44.4508 611.227 45.7874C612.186 47.1256 614.106 48.4614 615.641 46.7421C617.174 45.0236 617.749 44.8327 617.749 44.8327L618.514 45.5973C618.514 45.5973 620.24 44.6409 620.24 46.3593C620.24 48.0795 621.967 49.9897 621.008 51.3263C620.048 52.6646 618.708 52.4728 618.708 55.7196C618.708 58.9682 618.708 58.3945 620.815 61.0694C622.926 63.7425 624.267 61.4504 624.651 64.3162C625.035 67.1811 625.417 66.6092 627.528 68.5186C629.637 70.428 629.252 70.428 630.787 71.5745C632.322 72.721 633.089 73.8674 633.089 71.9572C633.089 70.0469 633.281 69.0922 633.089 67.3729C632.896 65.6545 634.624 64.3162 633.471 61.4512C632.321 58.5863 633.28 58.7772 630.979 56.676C628.677 54.5757 627.143 57.0588 626.378 54.002C625.61 50.9461 630.02 49.6087 631.172 49.2268C632.322 48.8458 634.046 46.5528 634.43 48.0812C634.814 49.6087 631.554 55.1485 637.116 49.2268C642.676 43.306 640.184 45.789 640.184 45.789C640.184 45.789 643.06 45.4072 643.635 45.789C644.209 46.1718 645.746 44.0697 645.168 44.2615C644.593 44.4533 639.034 41.2048 639.034 41.2048L635.006 38.9135C635.006 38.9135 636.349 37.958 637.307 38.1497C638.267 38.3407 638.459 36.2395 639.419 36.0477C640.377 35.8568 646.896 37.386 648.24 38.1497C649.582 38.9135 654.375 39.1044 653.799 38.7226C653.224 38.3398 650.157 36.0486 649.964 35.2839C649.773 34.5202 643.061 32.9918 640.952 33.1828C638.842 33.3728 636.926 33.9457 635.2 33.3728C633.473 32.8 630.981 31.2717 629.638 31.2717C628.296 31.2717 611.422 28.0248 610.655 28.2158C609.888 28.4067 608.736 32.0354 608.161 31.4626C607.586 30.8898 606.628 30.8889 603.941 30.1252C601.259 29.3614 597.614 28.7877 592.819 28.4067C588.026 28.0248 584.767 28.7886 583.425 27.2602C582.082 25.7327 579.207 26.3055 575.946 26.1137C572.687 25.9236 568.851 26.1137 567.125 26.1137C565.399 26.1137 561.374 25.9236 560.414 25.7318C559.455 25.5401 558.305 24.2035 557.155 24.0134C556.003 23.8216 556.195 23.4406 553.894 23.0587C551.593 22.676 551.785 20.1937 551.018 22.2941C550.251 24.3961 550.634 23.8224 549.484 24.5862C548.333 25.3508 547.183 26.8783 546.415 26.8783C545.649 26.8783 542.581 27.0693 542.004 26.6874C541.428 26.3055 540.47 25.9236 538.552 25.9236C536.634 25.9236 536.634 26.1137 534.142 25.7318C531.649 25.35 529.731 25.5401 527.43 24.3953C525.129 23.2488 525.129 22.485 523.211 22.676C521.295 22.8677 521.295 22.2941 518.609 22.2941C515.925 22.2941 512.666 23.8224 510.939 24.0134C509.214 24.2043 505.379 23.8216 504.036 23.2488C502.693 22.676 502.31 21.3394 497.324 21.9113C492.338 22.485 489.462 22.485 490.42 20.9566C491.38 19.4291 492.53 17.9008 493.105 17.7098C493.681 17.5189 495.022 16.5642 494.062 16.1823C493.105 15.7996 492.145 15.2276 489.845 15.0358C487.543 14.8449 487.734 15.7996 484.284 15.4177C480.832 15.0358 486.201 14.0811 479.107 14.272C472.012 14.4638 470.286 15.0358 469.519 15.0358C468.752 15.0358 467.792 13.5083 465.875 15.7996C463.958 18.0917 461.271 19.4283 457.438 19.6192C453.603 19.811 453.41 19.2373 449.768 20.5739C446.125 21.9105 443.823 20.192 444.59 23.2479C445.356 26.3038 446.316 27.4503 446.316 28.0231C446.316 28.5959 444.59 32.4164 442.482 30.1243C440.37 27.8322 436.536 18.8546 438.262 24.9672C439.987 31.079 443.822 33.1811 440.18 34.1358C436.537 35.0905 436.918 33.7539 436.343 33.3711C435.769 32.9893 436.343 30.3153 436.152 28.7869C435.959 27.2594 435.576 26.3038 434.81 25.5401C434.044 24.7754 434.234 23.6298 432.7 23.2479C431.166 22.866 432.509 22.1014 430.016 22.1014C427.523 22.1014 425.414 20.5731 425.989 24.0117C426.564 27.4495 427.139 25.1582 428.672 28.405C430.206 31.6518 433.083 29.3597 430.974 31.6518C428.865 33.944 423.304 33.1802 421.961 32.2255C420.619 31.27 421.003 32.6074 418.508 30.8881C416.016 29.1688 416.784 27.8313 413.908 29.1688C411.032 30.5062 410.072 32.9893 408.921 32.0337C407.77 31.0782 405.087 33.3703 404.127 32.2255C403.168 31.079 399.333 31.079 398.567 32.2255C397.799 33.3711 395.498 33.1802 392.238 34.7086C388.979 36.2361 389.936 34.8987 385.91 38.1464C381.882 41.3932 379.581 44.0672 378.24 41.966C376.897 39.8657 369.61 36.2361 372.487 35.6624C375.364 35.0896 376.706 33.944 378.24 35.2806C379.774 36.6171 382.268 36.2361 382.65 35.2806C383.033 34.325 384.76 33.3703 382.458 32.2247C380.157 31.0782 379.965 31.8419 376.322 30.5053C372.678 29.1679 376.322 29.5506 371.336 28.786C366.35 28.0223 364.24 27.6404 362.898 27.2585C361.557 26.8766 359.638 27.2585 357.721 27.0676C355.803 26.8766 354.462 26.4948 352.735 26.6857C351.01 26.8766 350.051 26.4948 347.749 28.2141C345.447 29.9334 343.721 30.6971 342.188 32.0337C340.654 33.3703 336.628 36.0452 335.477 37.0007C334.326 37.9554 330.299 41.0113 329.915 42.1578C329.532 43.3043 330.299 44.259 328.764 45.0227C327.23 45.7865 325.696 45.7865 324.545 45.9774C323.394 46.1684 324.545 44.2581 323.394 46.1684C322.244 48.0786 322.628 54.955 323.586 53.9995C324.545 53.0439 323.97 49.9889 328.188 52.8547C332.407 55.7188 335.093 55.3369 334.9 58.0109C334.708 60.6849 337.776 60.494 338.16 61.0677C338.543 61.6396 340.461 60.303 340.461 60.303C340.461 60.303 344.68 57.629 344.68 56.2925C344.68 54.955 347.364 51.8991 347.364 51.8991C347.364 51.8991 345.446 50.9444 345.446 49.0342C345.446 47.1248 346.022 46.5503 346.405 44.64C346.788 42.7306 344.295 44.6409 350.049 41.0105C355.8 37.3817 356.185 39.8657 356.185 39.8657C356.185 39.8657 356.95 40.6294 355.992 41.7751C355.034 42.9216 353.307 45.9783 352.924 46.3593C352.54 46.7421 354.65 49.7979 355.608 49.7979C356.567 49.7979 358.485 49.0333 359.636 49.2243C360.787 49.4161 362.704 48.6523 363.279 49.0342C363.855 49.4161 365.197 50.5617 364.237 51.5173C363.279 52.472 361.168 53.6176 359.636 53.2366C358.101 52.8555 355.799 50.1798 357.142 54.0003C358.485 57.8208 356.95 58.7755 355.799 58.5846C354.65 58.3937 352.156 56.4842 352.54 59.3492C352.924 62.2133 350.048 64.1235 349.472 64.1235C348.896 64.1235 347.747 63.9326 347.747 63.9326C347.747 63.9326 346.02 63.7408 345.062 63.7408C344.103 63.7408 342.185 64.6955 341.61 65.4601C341.034 66.2239 340.267 65.6519 339.309 65.6519C338.351 65.6519 339.309 64.5054 337.391 64.1235C335.474 63.7417 334.323 63.3598 333.173 64.1235C332.022 64.8873 330.297 65.2692 329.529 64.6964C328.763 64.1236 329.914 62.7853 328.378 63.5507C326.845 64.3145 325.694 66.4157 325.119 66.6075C324.544 66.7976 326.845 66.6075 324.544 66.7976C322.243 66.9893 321.284 67.563 320.133 67.9441C318.982 68.3268 320.517 70.6181 318.407 71.3818C316.298 72.1456 317.833 70.4271 315.723 72.1456C313.613 73.8657 313.229 75.3933 312.463 75.5842C311.695 75.776 311.888 76.157 310.162 76.348C308.436 76.5389 308.628 76.7298 307.668 76.9208C306.71 77.1117 307.861 77.4945 305.751 77.1117C303.641 76.7298 302.108 77.4945 302.491 78.2582C302.874 79.022 309.969 81.1232 304.6 80.9322C299.231 80.7413 300.957 81.696 302.108 82.4597C303.259 83.2235 303.833 83.9873 304.409 84.1791C304.985 84.37 305.942 86.663 305.942 86.663C305.942 86.663 307.477 86.4712 306.518 87.8086C305.56 89.146 306.901 89.5279 305.942 91.2472C304.984 92.9666 304.984 91.8201 304.217 92.2019C303.45 92.583 302.299 93.9212 300.189 92.7748C298.079 91.6283 296.547 91.0555 294.053 90.8654C291.56 90.6736 293.286 90.2925 291.56 91.6283C289.834 92.9666 289.451 94.4941 289.643 96.2125C289.835 97.931 290.027 100.224 289.451 101.37C288.876 102.516 288.876 103.663 289.258 105.382C289.643 107.1 290.794 107.866 290.794 107.866C290.794 107.866 293.478 108.247 294.053 108.439C294.628 108.63 295.779 108.057 297.313 109.011C298.847 109.966 300.381 110.349 301.34 109.202C302.298 108.057 306.134 106.719 307.286 105.574C308.436 104.427 309.203 104.046 308.628 102.9C308.052 101.753 309.779 98.8882 310.737 98.3154C311.695 97.7426 313.805 97.1689 313.805 97.1689L316.106 93.7312C316.106 93.7312 318.024 91.6291 318.982 91.8209C319.941 92.0118 325.31 93.923 324.927 91.4399C324.544 88.956 325.311 88.1922 325.886 89.1469C326.461 90.1016 327.995 89.7197 327.995 89.7197C327.995 89.7197 328.762 89.3387 329.337 89.9115C329.912 90.4835 330.679 92.9682 331.83 93.5402C332.981 94.1139 333.939 94.6867 334.707 95.0677C335.473 95.4505 336.241 95.0677 337.775 96.4052C339.309 97.7426 340.843 98.5072 341.034 99.0792C341.228 99.652 342.569 100.989 342.569 100.989C342.569 100.989 343.911 101.371 343.528 102.136C343.144 102.9 341.228 105.193 340.268 105.574C339.309 105.956 336.817 105.191 337.775 105.956C338.733 106.719 340.077 107.675 340.652 107.101C341.228 106.528 344.87 102.708 344.87 102.708C344.87 102.708 344.678 102.899 344.87 101.752C345.062 100.608 344.87 99.2701 345.829 99.8429C346.787 100.417 347.363 101.18 347.747 100.417C348.13 99.652 348.514 100.035 347.554 99.4619C346.595 98.8882 344.295 95.6414 343.144 95.4505C341.993 95.2587 339.116 93.3484 339.116 93.3484C339.116 93.3484 338.541 92.7756 337.199 91.2481C335.856 89.7197 335.473 90.1016 335.088 88.7642C334.706 87.4276 333.554 85.7083 335.664 86.0902C337.775 86.472 339.116 87.8086 341.033 88.9551C342.951 90.1016 342.569 90.4826 344.294 91.6291C346.019 92.7756 346.212 93.9221 347.553 93.7312C348.895 93.5402 350.43 94.4949 350.43 96.2142C350.43 97.9335 350.813 99.8429 351.196 100.226C351.581 100.608 352.73 101.372 353.114 102.136C353.497 102.9 354.265 104.81 354.839 105.574C355.415 106.337 355.99 106.911 356.565 107.867C357.14 108.821 357.332 107.675 357.907 108.058C358.483 108.439 359.25 108.248 359.25 107.484C359.25 106.72 359.441 105.383 359.441 105.383C359.441 105.383 362.127 104.619 361.36 104.236C360.593 103.854 358.291 101.562 358.483 100.798C358.675 100.035 358.483 98.5072 359.441 98.6982C360.4 98.8882 361.359 100.608 363.469 99.0792C365.578 97.5508 368.071 96.7871 367.303 99.0792C366.537 101.371 367.497 101.752 367.303 104.236C367.113 106.72 368.072 105.956 369.415 107.293C370.756 108.63 371.715 108.822 372.673 109.203C373.633 109.586 375.166 109.395 376.701 109.586C378.236 109.777 379.194 109.012 380.537 109.395C381.878 109.777 384.946 109.203 385.522 109.586C386.098 109.968 388.399 108.822 388.59 110.159C388.782 111.496 389.55 109.968 388.975 113.024C388.399 116.08 387.632 118.181 387.632 118.181C385.522 122.192 384.756 123.148 383.796 123.339C382.839 123.53 382.263 124.103 380.538 123.912C378.812 123.72 376.702 123.912 374.209 123.339C371.716 122.765 367.113 123.912 365.196 122.765C363.279 121.619 360.594 122.574 359.442 121.238C358.292 119.9 356.375 120.091 355.608 119.327C354.841 118.564 354.458 116.463 354.458 119.519C354.458 122.576 352.732 122.766 352.348 124.294C351.964 125.822 352.922 125.058 350.813 124.867C348.703 124.675 348.128 125.822 345.061 123.531C341.992 121.238 340.458 121.238 338.925 120.283C337.39 119.327 335.856 122.001 334.323 118.946C332.788 115.89 330.679 118.373 330.487 115.89C330.295 113.406 330.487 113.598 330.679 112.07C330.872 110.542 332.98 109.205 332.021 108.632C331.062 108.059 331.829 107.104 330.487 107.677C329.144 108.25 327.227 108.441 325.693 109.014C324.159 109.588 329.144 109.014 321.666 109.588C314.187 110.161 312.077 110.924 312.077 110.924C312.077 110.924 311.502 110.542 310.543 111.306C309.584 112.07 308.242 113.216 306.9 112.644C305.558 112.07 304.79 112.261 303.64 112.453C302.489 112.644 301.723 111.498 300.381 112.453C299.038 113.406 297.504 113.789 296.928 113.406C296.332 113.016 295.369 111.489 295.369 111.489L295.392 111.492Z" fill="#BFDBCD"/>
<path d="M423.678 237.173C423.103 239.275 420.994 242.33 420.994 242.33L417.157 244.241C417.157 244.241 415.817 245.387 415.049 245.578C414.282 245.768 412.364 246.724 412.364 246.724C412.364 246.724 410.639 246.342 411.213 248.06C411.788 249.779 411.981 251.882 411.788 252.453C411.598 253.027 411.598 254.174 411.598 255.702C411.598 257.23 411.023 259.139 410.063 259.521C409.105 259.904 408.145 260.285 408.337 261.623C408.53 262.96 408.53 266.971 408.53 266.971L411.023 270.791C411.023 270.791 411.79 270.219 413.325 270.219C414.857 270.219 416.392 268.883 416.392 268.883C416.392 268.883 418.119 269.263 417.926 267.164C417.734 265.061 418.694 262.579 418.501 262.006C418.31 261.433 420.228 258.949 420.228 258.377C420.228 257.803 422.146 255.131 422.146 254.175C422.146 253.22 423.487 251.691 423.679 250.547C423.871 249.399 424.063 246.726 424.446 245.962C424.83 245.199 425.022 244.434 425.022 243.67C425.022 242.906 425.022 241.378 425.022 241.378L423.659 237.169L423.678 237.173Z" fill="#BFDBCD"/>
<path d="M573.825 262.963C573.25 263.726 572.866 271.94 572.483 272.895C572.1 273.85 571.332 278.817 571.717 279.962C572.1 281.109 572.675 285.31 572.292 286.648C571.908 287.984 572.484 292.187 571.524 291.996C570.566 291.804 570.184 292.188 570.184 292.76C570.184 293.333 571.524 294.478 571.524 294.478C571.524 294.478 573.827 294.479 574.785 294.287C575.743 294.096 577.661 293.141 579.196 293.141C580.73 293.141 581.689 291.994 583.03 291.994C584.373 291.994 587.25 291.04 588.017 291.421C588.783 291.802 589.934 289.129 591.276 289.703C592.619 290.276 595.496 288.366 596.838 288.366C598.179 288.366 598.756 286.263 600.29 286.647C601.824 287.029 604.701 285.883 606.043 286.454C607.383 287.029 609.495 284.545 610.453 286.454C611.412 288.366 614.289 289.129 614.289 290.084C614.289 291.039 614.095 293.141 614.095 293.141L616.397 292.949C616.397 292.949 620.039 290.657 620.616 290.657C621.191 290.657 622.534 288.747 622.534 289.703C622.534 290.657 621.382 292.76 620.999 293.714C620.616 294.669 621.382 295.816 621.382 295.816C621.382 295.816 623.301 296.77 622.534 298.489C621.766 300.208 622.725 299.827 622.534 301.163C622.341 302.5 622.534 301.926 623.299 302.69C624.067 303.455 625.411 304.794 626.56 304.601C627.712 304.41 628.094 303.265 629.053 303.838C630.011 304.41 631.928 304.029 632.503 304.793C633.081 305.556 628.861 307.466 636.148 304.22C643.435 300.972 644.2 300.208 645.159 299.062C646.121 297.916 647.271 296.77 648.036 296.006C648.804 295.242 648.229 295.433 650.529 293.714C652.83 291.995 652.83 292.759 654.941 289.511C657.051 286.265 658.583 285.119 658.968 284.545C659.352 283.971 660.119 283.781 660.31 281.487C660.502 279.196 662.035 277.095 662.035 276.331C662.035 275.568 662.61 274.423 662.419 273.084C662.227 271.747 663.186 269.838 662.035 267.928C660.884 266.017 662.61 265.255 660.884 264.489C659.158 263.725 658.008 264.108 657.625 262.77C657.241 261.433 655.706 261.624 655.131 257.995C654.556 254.366 652.255 253.983 652.255 253.983C652.255 253.983 649.954 253.028 650.529 252.647C651.106 252.264 651.297 249.589 651.106 248.826C650.913 248.062 650.913 246.343 650.339 245.198C649.764 244.05 649.38 242.524 648.805 241.185C648.229 239.849 647.271 239.466 646.887 237.939C646.503 236.411 645.927 235.837 645.737 235.456C645.543 235.074 645.159 233.164 644.777 235.264C644.394 237.365 643.625 241.376 643.625 241.376C643.625 241.376 642.091 244.624 641.516 245.579C640.941 246.533 640.366 249.017 639.407 248.825C638.448 248.634 637.871 249.781 637.106 249.589C636.339 249.397 635.189 249.78 634.614 249.208C634.038 248.634 632.504 247.106 631.736 246.915C630.97 246.724 630.395 245.197 629.819 245.197C629.242 245.197 628.284 243.859 628.477 243.095C628.668 242.331 628.859 240.613 629.052 239.848C629.243 239.084 630.395 237.364 630.395 237.364C630.395 237.364 630.395 236.218 629.435 236.218C628.477 236.218 628.284 236.218 626.175 236.027C624.066 235.835 623.492 235.645 622.723 235.645C621.958 235.645 623.491 235.263 621.381 235.836C619.272 236.41 618.313 237.938 616.97 239.275C615.63 240.612 616.78 240.229 615.63 240.612C614.478 240.995 614.671 239.656 613.903 241.758C613.136 243.859 614.288 244.431 613.71 244.814C613.135 245.197 609.109 243.478 609.109 243.478C609.109 243.478 610.068 243.286 609.3 242.331C608.534 241.376 607.767 240.04 606.617 240.613C605.465 241.185 604.505 241.568 603.74 242.523C602.973 243.478 602.973 244.241 602.398 245.005C601.823 245.769 600.289 245.769 600.097 246.534C599.905 247.298 599.905 249.207 599.331 249.398C598.756 249.59 598.564 248.636 597.989 248.445C597.414 248.254 597.605 246.725 597.222 247.681C596.839 248.636 596.455 248.444 595.88 249.972C595.303 251.5 595.113 252.838 594.538 253.029C593.963 253.221 594.538 253.411 592.811 254.366C591.086 255.321 590.702 255.321 588.21 256.467C585.718 257.614 586.293 257.614 584.567 257.804C582.842 257.996 582.457 258.569 581.307 258.76C580.155 258.951 579.39 259.141 578.238 260.287C577.088 261.434 576.129 261.815 575.363 262.006C574.596 262.198 573.863 262.948 573.863 262.948L573.825 262.963Z" fill="#BFDBCD"/>
<path d="M585.14 187.512C584.374 188.659 581.881 192.096 580.923 192.288C579.964 192.478 579.004 193.435 578.238 193.243C577.471 193.051 575.745 193.243 575.17 195.726C574.595 198.209 573.635 199.546 573.059 199.355C572.483 199.164 574.017 202.983 570.758 201.457C567.5 199.928 568.65 202.794 568.265 203.559C567.882 204.322 568.841 206.424 569.032 207.187C569.226 207.951 569.799 209.289 570.567 210.433C571.333 211.58 571.908 212.917 573.251 212.536C574.594 212.153 578.811 212.536 578.811 212.536C578.811 212.536 580.347 213.109 581.305 213.109C582.263 213.109 582.456 212.727 583.03 212.727C583.604 212.727 584.755 210.816 584.564 210.626C584.372 210.433 583.798 209.861 584.948 208.715C586.099 207.569 587.44 207.187 587.633 205.85C587.825 204.513 587.25 204.513 587.825 203.748C588.4 202.984 589.741 203.177 589.359 202.411C588.975 201.648 589.741 201.839 588.975 200.309C588.209 198.782 587.249 198.208 588.015 196.298C588.783 194.389 589.552 194.006 589.359 192.86C589.166 191.713 590.317 191.332 588.975 189.994C587.634 188.659 587.058 188.276 586.099 187.892L585.153 187.502L585.14 187.512Z" fill="#BFDBCD"/>
<path d="M622.73 206.615C623.499 206.424 626.182 204.513 626.375 207.952C626.567 211.39 626.757 210.434 627.909 212.344C629.059 214.255 629.824 214.829 631.167 213.874C632.509 212.917 634.043 212.917 634.427 211.2C634.811 209.48 634.811 209.48 635.961 209.48C637.114 209.48 637.495 209.289 638.073 210.055C638.647 210.817 639.029 210.053 641.523 211.391C644.016 212.728 646.125 212.344 647.661 213.683C649.195 215.019 649.962 214.83 652.071 215.593C654.18 216.357 653.221 215.211 655.139 217.312C657.057 219.413 656.291 219.985 657.248 220.941C658.206 221.896 658.975 220.176 658.591 222.469C658.206 224.761 655.523 222.468 659.55 225.714C663.576 228.963 664.152 229.537 665.493 230.491C666.837 231.446 667.795 232.593 666.646 232.593C665.493 232.593 661.851 232.593 661.469 232.019C661.084 231.446 659.359 231.063 658.207 229.727C657.058 228.391 654.565 227.435 653.991 226.289C653.414 225.142 652.647 224.761 651.689 224.761C650.731 224.761 649.772 225.906 648.429 227.244C647.086 228.58 647.663 226.481 645.936 227.053C644.209 227.626 642.294 226.861 641.333 226.097C640.374 225.333 640.568 224.188 639.034 224.761C637.498 225.333 636.541 224.952 637.116 223.806C637.691 222.659 637.307 221.131 637.307 221.131C637.307 221.131 637.884 219.221 636.542 218.84C635.199 218.459 635.199 217.121 633.857 216.738C632.513 216.357 630.405 215.401 630.405 215.401C630.405 215.401 630.214 215.401 629.638 215.21C629.063 215.018 629.063 215.018 627.528 214.637C625.995 214.255 624.843 214.636 624.077 213.682C623.309 212.727 623.693 211.39 623.693 211.39C623.693 211.39 626.761 211.772 623.693 209.479L620.625 207.188C620.625 207.188 621.007 206.996 620.816 206.615C620.62 206.224 622.733 206.606 622.733 206.606L622.73 206.615Z" fill="#BFDBCD"/>
<path d="M536.434 190.753C536.434 190.753 537.393 191.709 538.927 191.518C540.461 191.326 541.61 194.573 542.571 195.719C543.529 196.866 544.105 197.438 546.214 198.776C548.323 200.112 548.131 197.629 551.008 201.641C553.884 205.651 552.542 203.169 553.884 205.651C555.226 208.137 555.994 209.473 556.76 210.047C557.526 210.62 558.103 212.147 558.296 212.72C558.486 213.293 559.828 215.012 559.828 215.585C559.828 216.158 560.213 217.687 559.062 219.023C557.911 220.361 556.952 220.551 556.952 220.551C556.952 220.551 554.651 219.405 553.884 218.259C553.117 217.114 552.159 216.158 550.815 213.867C549.474 211.574 547.939 209.091 547.173 207.945C546.406 206.798 545.255 205.651 544.68 204.507C544.105 203.359 542.57 199.922 541.804 199.54C541.037 199.157 540.844 198.012 539.502 196.675C538.161 195.337 538.351 194.192 537.776 193.428C537.201 192.664 535.859 190.943 535.859 190.943L536.422 190.756L536.434 190.753Z" fill="#BFDBCD"/>
<path d="M163.464 339.746C162.121 338.982 159.245 337.645 158.287 336.881C157.328 336.117 154.452 331.913 154.452 331.913L152.342 327.902C152.342 327.902 149.85 324.846 150.425 323.7C151 322.554 152.151 321.79 152.151 321.217C152.151 320.644 153.301 319.115 152.342 318.543C151.383 317.969 151.383 317.779 150.807 316.06C150.232 314.342 150.232 312.812 149.465 312.43C148.698 312.049 148.123 309.566 147.356 309.375C146.589 309.183 145.822 307.846 145.822 307.846L144.671 292.374C144.671 292.374 144.286 285.308 143.904 283.778C143.52 282.251 144.479 279.004 143.52 276.138C142.561 273.273 143.712 269.836 143.136 268.689C142.561 267.543 143.52 264.297 142.945 261.241C142.37 258.185 145.246 254.364 142.945 253.219C140.643 252.071 142.37 250.353 140.452 250.353C138.535 250.353 137.192 249.397 135.466 248.062C133.74 246.724 130.48 244.24 129.521 243.285C128.563 242.331 125.494 239.847 124.536 239.083C123.577 238.319 122.618 235.072 121.851 234.116C121.084 233.162 120.701 230.297 119.55 228.578C118.399 226.86 116.865 223.995 116.481 223.421C116.098 222.848 111.879 217.882 111.879 217.882L112.262 214.826C112.262 214.826 115.138 213.107 114.755 212.534C114.372 211.96 114.948 211.387 113.604 210.242C112.261 209.095 112.453 206.993 113.604 206.039C114.755 205.083 116.48 202.027 116.48 202.027L119.357 197.253C119.357 197.253 121.658 194.768 121.658 193.05C121.658 191.331 124.918 190.185 123 188.657C121.083 187.128 122.042 185.791 121.466 184.645C120.89 183.499 121.274 182.735 123 181.589C124.726 180.442 127.794 176.241 127.794 176.241C127.794 176.241 130.095 175.667 130.67 175.667C131.246 175.667 132.205 169.554 133.931 173.565C135.657 177.577 136.232 175.475 135.657 178.34C135.081 181.205 136.424 180.633 137.19 179.87C137.957 179.104 136.806 180.442 138.341 177.003C139.874 173.565 139.3 172.42 140.258 173.375C141.217 174.331 141.6 174.522 143.326 175.094C145.051 175.667 145.627 175.475 146.202 176.622C146.777 177.768 146.586 176.24 149.845 176.814C153.105 177.387 157.707 175.667 157.132 177.577C156.557 179.487 155.406 177.386 158.091 179.487C160.775 181.589 161.159 181.97 162.693 182.353C164.226 182.735 165.569 182.544 167.871 184.836C170.172 187.127 170.747 187.319 171.322 188.464C171.897 189.611 172.856 188.846 173.815 189.992C174.774 191.139 176.116 191.139 177.458 191.139C178.8 191.139 177.458 189.992 179.568 191.521C181.678 193.049 183.211 193.239 184.17 196.296C185.128 199.354 187.046 199.161 185.512 202.218C183.978 205.275 180.91 206.611 182.252 206.421C183.594 206.229 186.088 205.082 186.854 205.274C187.621 205.464 188.004 204.701 189.155 205.274C190.306 205.847 190.498 204.51 190.306 205.847C190.114 207.184 190.114 205.847 190.114 207.184C190.114 208.521 189.731 205.847 192.032 206.421C194.333 206.993 192.99 205.273 195.675 207.757C198.36 210.241 198.36 209.477 199.318 210.814C200.277 212.15 201.235 210.051 201.811 210.623C202.387 211.195 204.112 210.813 205.838 211.196C207.564 211.577 206.413 210.05 209.099 211.769C211.783 213.487 214.468 212.914 215.043 214.443C215.618 215.97 217.153 215.397 217.919 216.353C218.685 217.308 219.069 215.97 219.837 217.308C220.604 218.644 222.906 218.262 222.521 219.599C222.137 220.937 223.096 220.172 222.712 222.082C222.33 223.994 220.986 227.05 219.837 227.813C218.686 228.577 218.687 229.532 217.919 230.487C217.152 231.443 217.344 229.532 216.385 232.206C215.426 234.881 215.618 235.263 214.851 237.745C214.084 240.227 214.66 237.745 214.084 240.228C213.509 242.711 213.893 244.239 213.318 247.105C212.743 249.969 212.934 249.97 212.551 252.071C212.168 254.173 213.509 251.117 211.783 255.509C210.058 259.903 209.866 259.711 209.291 261.622C208.715 263.533 209.483 262.004 207.374 263.15C205.264 264.297 206.415 263.914 203.922 264.678C201.43 265.442 198.361 266.208 197.402 266.398C196.444 266.588 192.608 267.734 193.759 270.026C194.91 272.319 194.91 272.701 193.759 275.566C192.608 278.43 190.883 279.387 190.883 280.723C190.883 282.059 190.116 283.396 189.925 284.351C189.732 285.307 191.65 283.396 189.35 286.262C187.049 289.126 186.857 288.363 186.089 290.082C185.323 291.8 186.089 290.463 185.322 291.8C184.556 293.137 182.638 293.71 182.638 293.71C182.638 293.71 182.829 294.665 182.062 294.284C181.294 293.903 181.487 294.474 178.61 293.71C175.734 292.946 175.35 291.038 174.967 292.373C174.584 293.71 175.159 294.475 176.885 295.812C178.61 297.149 181.487 297.53 180.719 298.869C179.953 300.206 179.953 300.206 179.378 300.97C178.802 301.734 180.144 301.161 178.802 301.734C177.46 302.307 176.692 304.791 176.117 304.791C175.542 304.791 175.158 305.746 174.391 305.364C173.624 304.981 171.707 303.645 171.323 304.408C170.94 305.171 170.172 303.453 170.364 306.127C170.556 308.801 170.94 310.329 169.981 310.903C169.022 311.476 166.72 310.903 166.72 310.903L166.337 309.947L164.995 310.329C164.995 310.329 164.42 312.621 165.378 313.003C166.337 313.385 166.145 313.766 167.103 314.913C168.063 316.059 167.488 318.16 167.488 318.16C167.488 318.16 167.488 318.734 166.529 319.689C165.571 320.643 165.187 321.408 164.995 321.981C164.802 322.554 163.652 325.038 165.378 324.846C167.103 324.654 168.447 323.699 168.447 326.756C168.447 329.812 169.214 329.049 168.255 331.149C167.296 333.251 166.529 333.442 166.338 335.351C166.147 337.261 166.53 337.452 166.913 338.599C167.297 339.745 168.256 339.171 167.297 339.745C166.343 340.288 163.472 339.72 163.472 339.72L163.464 339.746Z" fill="#BFDBCD"/>
<path d="M113.992 184.262L112.65 182.352C112.65 182.352 112.075 181.205 111.116 181.015C110.157 180.825 108.047 178.341 108.047 178.341C108.047 178.341 107.089 177.577 107.089 176.24C107.089 174.903 106.321 172.803 106.896 170.51C107.472 168.219 107.664 165.353 107.472 164.589C107.28 163.825 108.431 163.634 107.089 162.869C105.746 162.106 103.062 161.915 101.336 161.915C99.6104 161.915 97.5001 162.488 97.1167 162.679C96.7333 162.869 99.2261 156.949 99.6095 155.994C99.9929 155.039 101.719 150.836 101.719 150.264C101.719 149.69 102.294 149.499 101.144 148.736C99.9937 147.972 98.076 147.59 96.925 148.163C95.7748 148.736 95.9665 147.399 95.0081 149.69C94.0496 151.983 93.0903 154.466 91.9393 154.848C90.7892 155.231 88.4881 156.377 88.4881 156.377C88.4881 156.377 85.6119 156.186 84.6526 155.995C83.6941 155.804 79.6669 153.703 78.9002 152.366C78.1334 151.029 77.75 148.163 77.75 146.827C77.75 145.49 79.8586 141.479 79.6669 140.524C79.4753 139.569 81.7772 135.748 81.5847 135.175C81.3922 134.602 81.9681 132.692 82.5431 131.928C83.1182 131.164 85.9953 130.208 86.762 129.445C87.5288 128.68 88.8715 127.726 90.2133 127.344C91.5551 126.961 92.707 126.58 93.6654 126.58C94.6239 126.58 97.1167 124.479 97.5001 126.58C97.8843 128.68 99.6103 127.916 100.569 128.107C101.527 128.299 101.72 129.254 103.253 126.771C104.788 124.287 106.321 123.523 106.321 124.096C106.321 124.67 108.814 123.906 109.197 124.479C109.581 125.051 110.348 124.096 111.69 125.242C113.033 126.389 114.95 126.58 114.758 127.152C114.566 127.725 115.525 127.725 115.525 128.298C115.525 128.871 116.292 126.961 116.292 130.399C116.292 133.837 117.251 135.938 117.251 135.938C117.251 135.938 118.593 138.804 119.168 138.231C119.743 137.658 120.893 136.13 120.893 136.13C120.893 136.13 122.811 134.984 121.469 130.972C120.126 126.962 121.086 125.815 120.702 124.478C120.318 123.14 120.318 122.376 122.619 120.657C124.92 118.939 130.481 115.118 131.824 114.355C133.165 113.591 136.233 111.49 136.233 111.49C136.233 111.49 137.383 110.917 137.576 109.388C137.768 107.861 141.411 105.186 141.603 104.422C141.796 103.658 144.289 101.749 144.289 101.749C144.289 101.749 146.972 100.22 146.781 99.266C146.589 98.3113 150.233 96.5928 150.808 96.5928C151.383 96.5928 154.452 97.5467 154.452 95.8274C154.452 94.1089 154.452 93.7262 156.369 92.1987C158.286 90.6711 160.779 88.3782 161.738 88.3782C162.697 88.3782 165.957 86.6605 167.299 86.2778C168.642 85.8951 172.861 83.9848 169.025 86.2778C165.19 88.5691 167.682 87.2325 166.916 89.1428C166.15 91.0522 165.573 93.5361 169.217 90.6703C172.861 87.8053 172.668 87.2317 174.011 87.0416C175.353 86.8506 174.394 87.6144 177.27 86.6588C180.147 85.7041 180.339 85.3223 180.339 85.3223C180.339 85.3223 181.682 84.1758 180.914 83.6038C180.147 83.0301 181.682 82.2664 178.805 83.412C175.928 84.5585 176.12 84.7494 174.202 84.1758C172.285 83.603 169.408 83.793 171.518 81.8828C173.627 79.9734 176.312 79.3997 174.586 78.636C172.861 77.8722 168.45 78.8278 167.875 79.0178C167.299 79.2088 165.957 78.8269 164.806 79.0178C163.656 79.2088 164.039 77.4912 164.806 77.1084C165.574 76.7257 168.067 75.5792 171.134 74.8155C174.202 74.0517 181.682 73.8608 183.407 73.8608C185.132 73.8608 187.433 74.2435 188.776 73.2879C190.118 72.3332 192.803 70.8057 193.186 70.0403C193.571 69.2765 195.104 68.1309 195.104 68.1309C195.104 68.1309 196.829 66.4116 195.871 65.6478C194.913 64.884 193.953 63.1647 193.186 63.5466C192.42 63.9285 192.996 66.2215 191.461 63.7375C189.927 61.2553 190.119 60.8726 189.352 60.2998C188.585 59.7269 187.817 60.108 188.393 57.4348C188.968 54.7608 188.777 53.6143 188.777 53.6143C188.777 53.6143 189.352 51.323 188.777 51.1321C188.201 50.9403 187.818 50.3683 186.86 50.9403C185.901 51.5131 180.532 54.188 179.381 54.7608C178.23 55.3336 176.696 52.4687 177.271 51.1321C177.847 49.7938 177.463 50.5584 176.696 48.649C175.929 46.7388 172.861 46.356 171.71 46.356C170.559 46.356 167.876 44.6367 167.108 45.7832C166.341 46.9289 162.315 50.5576 161.547 50.9403C160.78 51.323 159.63 47.6935 159.055 53.6143C158.479 59.5369 161.164 61.2553 158.096 61.6372C155.028 62.0191 152.343 63.7375 152.343 63.7375C152.343 63.7375 149.851 63.9293 149.851 65.4569C149.851 66.9861 148.893 70.6139 147.741 70.9958C146.591 71.3785 143.713 70.8057 142.755 69.6592C141.797 68.5127 142.947 64.3112 142.947 64.3112L144.673 62.5919C144.673 62.5919 132.4 60.6825 132.591 59.9179C132.784 59.1541 128.948 57.8175 128.565 56.6711C128.182 55.5246 127.989 53.0415 128.373 52.0868C128.757 51.1321 133.934 46.5478 136.618 45.5931C139.303 44.6376 143.905 42.5372 145.248 42.1545C146.591 41.7726 148.891 41.9636 149.658 41.0089C150.425 40.0533 150.617 38.3349 150.617 38.3349C150.617 38.3349 150.233 35.66 151 36.0419C151.767 36.4246 153.11 36.9974 153.301 37.5702C153.494 38.1431 153.494 39.4805 154.836 37.9513C156.178 36.4238 157.904 35.8501 159.438 35.0872C160.972 34.3226 163.273 34.5144 164.616 33.7506C165.958 32.9868 168.259 32.2222 168.451 30.312C168.643 28.4026 167.876 28.9754 166.916 28.7836C165.958 28.5935 167.3 28.9754 164.04 30.5029C160.78 32.0304 161.739 30.8848 159.438 32.0304C157.137 33.1769 156.944 33.3679 156.754 32.4132C156.561 31.4576 157.137 29.9301 157.137 29.9301C157.137 29.9301 157.329 29.7383 155.987 29.3573C154.644 28.9754 154.644 29.5482 154.452 27.8298C154.261 26.1104 155.411 23.6274 153.494 24.3911C151.576 25.1549 149.851 23.8183 148.508 27.638C147.166 31.4576 142.563 35.4699 141.412 34.5144C140.262 33.5597 140.071 33.3679 139.111 33.3679C138.152 33.3679 136.81 32.2222 135.084 32.0313C133.358 31.8403 128.18 31.8403 126.839 32.0313C125.496 32.2231 123.963 31.2675 122.811 32.414C121.661 33.5597 119.935 35.088 119.935 35.6617C119.935 36.2345 118.209 33.5597 117.634 33.7514C117.059 33.9424 115.524 32.9877 113.8 32.9877C112.074 32.9877 110.923 32.0321 110.348 32.0321C109.773 32.0321 110.923 30.5038 110.348 30.3128C109.773 30.1227 97.3075 29.74 97.3075 29.74C97.3075 29.74 93.2812 28.2125 91.7477 28.4034C90.2133 28.5944 85.9953 28.7845 82.734 29.3581C79.4735 29.9309 74.6796 31.8412 73.1461 32.0321C71.6117 32.2239 68.1604 32.2239 67.5854 31.2684C67.0095 30.3137 67.7771 30.5046 67.0095 30.3137C66.2427 30.1236 66.8186 29.7409 65.0926 28.4043C63.3665 27.0668 65.8602 25.9212 62.408 25.9212C58.9568 25.9212 56.8473 25.7294 53.7794 25.9212C50.7107 26.1121 44.3832 27.6397 43.6165 27.4487C42.8497 27.2578 36.7131 28.4043 35.7538 27.8314C34.7953 27.2578 30.0005 29.9318 29.0429 29.7409C28.0845 29.5499 24.4407 29.9326 23.4822 30.5055C22.5229 31.0791 17.9207 32.2239 19.455 33.1795C20.9886 34.1342 20.7969 35.0889 20.9886 35.6625C21.1811 36.2354 19.455 37.5719 19.455 37.5719C19.455 37.5719 19.0708 37.5719 16.9622 36.8082C14.8528 36.0436 12.5517 35.6625 11.5924 36.2354C10.6339 36.8082 8.90784 37.9555 9.29122 38.7193C9.67545 39.483 12.3591 41.2024 12.7433 40.6287C13.1267 40.0559 14.086 38.9102 15.2362 39.1012C16.3872 39.293 18.1132 38.3374 16.5788 40.2477C15.0445 42.1571 13.7018 43.1126 12.7433 43.3044C11.7849 43.4945 9.48376 43.6854 7.37432 43.8772C5.26403 44.069 5.45572 43.1135 3.53882 45.0237C1.62193 46.9331 0.854315 45.7875 0.470935 47.8887C0.0875553 49.989 -0.295824 49.989 0.470935 50.5627C1.23769 51.1355 -1.06344 51.3264 0.662625 51.8993C2.38783 52.4729 4.49727 53.0457 4.30558 53.6177C4.11304 54.1914 6.22333 52.8548 5.07234 54.3815C3.92135 55.9107 3.15544 57.2464 5.45572 55.7189C7.75685 54.1914 9.09868 55.3362 11.0164 54.3815C12.9342 53.4268 14.8519 53.2358 16.0021 52.4721C17.1531 51.7075 17.7281 50.5627 19.4542 49.9881C21.1803 49.4153 20.0293 50.1799 20.2209 51.1346C20.4126 52.0893 20.2209 52.2803 21.3719 51.5157C22.5221 50.7519 22.5221 51.3256 24.0564 50.37C25.59 49.4153 27.316 48.4598 28.467 49.0326C29.6172 49.6063 30.0005 49.6063 30.7681 49.6063C31.5349 49.6063 29.8097 49.4145 31.5349 49.6063C33.261 49.7964 30.7681 49.0326 36.5205 50.37C42.2738 51.7066 43.8082 50.7519 44.1907 52.8531C44.5749 54.9543 45.3417 52.6613 46.3001 53.9987C47.2586 55.3353 47.8345 54.1905 48.4096 56.4818C48.9846 58.7748 48.4096 65.0775 48.0262 65.8413C47.6428 66.605 47.4511 66.605 47.6428 68.3243C47.8345 70.0428 50.1356 78.2575 49.3689 78.8294C48.6021 79.4014 46.8761 79.5932 46.8761 79.5932L45.9176 83.031C45.9176 83.031 44.3841 85.8959 43.0414 87.4243C41.6987 88.9518 39.9735 90.8629 39.0142 92.1987C38.0558 93.5361 37.2882 95.8291 35.9463 97.1656C34.6045 98.5022 33.4535 97.9294 33.8369 100.794C34.2203 103.659 33.8369 106.715 34.2203 108.817C34.6045 110.918 35.5629 113.783 36.3297 114.93C37.0965 116.076 37.6724 116.076 39.0142 117.03C40.3569 117.985 42.083 119.132 41.8904 120.087C41.6987 121.042 42.0821 126.964 42.0821 126.964C42.0821 126.964 43.2331 128.874 43.4239 130.975C43.6165 133.077 44.9583 135.177 44.9583 135.177L46.1093 137.661C46.1093 137.661 46.6844 137.853 47.452 139.38C48.2187 140.908 48.2187 140.908 48.4104 141.671C48.603 142.436 48.603 142.245 48.603 142.436C48.603 142.626 48.4104 139.189 48.027 138.233C47.6437 137.278 47.6437 136.133 47.2603 134.986C46.8769 133.84 47.452 132.502 46.3018 130.784C45.1517 129.065 45.1517 128.874 44.5766 127.154C44.0016 125.436 43.2339 123.526 44.0016 123.143C44.7683 122.762 45.3434 120.279 46.8778 123.143C48.4113 126.008 48.6038 125.245 48.7955 127.537C48.9863 129.829 49.5623 130.594 50.1373 131.548C50.7124 132.502 52.0542 135.751 52.8218 137.087C53.5886 138.424 52.8218 136.323 54.5471 138.997C56.2731 141.671 56.4657 142.244 57.4241 144.345C58.3826 146.446 58.9585 146.446 59.5335 147.974C60.1086 149.503 59.7252 149.12 59.341 150.839C58.9576 152.557 59.7244 154.468 59.7244 154.468C59.7244 154.468 62.4089 155.423 62.6006 155.996C62.7923 156.568 65.4768 157.523 65.861 158.288C66.2444 159.052 68.7372 160.006 68.7372 160.006C68.7372 160.006 70.8466 161.344 71.6126 161.726C72.3802 162.107 74.6822 162.49 74.6822 162.49C74.6822 162.49 76.2157 162.873 76.7907 163.063C77.3658 163.254 79.0919 163.254 79.0919 163.254C79.0919 163.254 80.6262 162.108 81.2013 162.49C81.7764 162.871 83.1191 161.726 83.6941 162.68C84.2692 163.636 85.4202 163.636 85.9953 164.4C86.5703 165.164 87.1454 165.164 88.1047 166.119C89.064 167.074 90.0225 166.883 90.9809 167.646C91.9393 168.41 92.7061 168.41 93.8571 168.41C95.0072 168.41 95.0072 168.41 95.7748 168.602C96.5408 168.793 96.925 168.028 97.6917 168.985C98.4585 169.939 99.0336 170.512 99.6086 171.467C100.184 172.422 101.526 172.422 101.718 173.95C101.91 175.477 102.293 175.288 102.293 176.624C102.293 177.961 103.06 178.534 103.636 178.917C104.21 179.298 106.319 181.207 106.319 181.207L109.196 181.781L111.497 183.5L113.925 184.264L113.992 184.262Z" fill="#BFDBCD"/>
<path d="M175.452 6.81426L186.958 5.38179C186.958 5.38179 190.984 5.38179 192.998 3.94931C195.011 2.51683 192.998 2.51684 199.039 1.37119C205.079 0.224704 203.354 -0.348117 206.518 0.224704C209.681 0.798373 210.544 0.798373 213.996 1.37119C217.448 1.94401 218.311 1.08521 221.474 1.94401C224.638 2.80367 226.076 2.51684 228.665 2.51684H236.719C240.746 2.51684 244.485 0.224704 245.923 1.65718C247.361 3.08966 248.225 2.51684 253.115 3.08966C258.004 3.66248 260.018 2.51599 262.031 3.08966C264.045 3.66248 267.497 2.80367 271.524 3.08966C275.55 3.37564 277.564 2.80367 279.002 2.80367C280.44 2.80367 281.878 0.797525 283.892 2.51684C285.906 4.23615 288.494 1.94401 288.781 4.23615C289.069 6.52828 292.808 4.80897 289.069 6.52828C285.33 8.24759 285.905 7.96075 283.316 10.2529C280.727 12.545 285.042 14.5503 279.576 16.5565C274.111 18.5618 273.248 15.41 271.81 18.8486C270.372 22.2864 271.81 23.146 271.523 24.8653C271.235 26.5838 270.66 26.8706 268.934 28.3031C267.209 29.7356 267.209 28.3031 263.181 29.1628C259.154 30.0224 256.278 30.8821 254.553 30.8821C252.827 30.8821 249.088 32.3145 247.937 32.8874C246.786 33.461 249.951 34.3198 243.909 36.0391C237.869 37.7585 236.43 37.4725 234.705 39.7638C232.979 42.0567 233.554 42.3436 232.404 43.776C231.253 45.2085 227.801 50.9393 226.075 49.5068C224.35 48.0743 223.486 48.3603 222.048 46.9278C220.61 45.4954 219.747 43.4901 218.884 42.3436C218.021 41.1971 217.733 38.3321 217.446 36.6128C217.159 34.8935 214.569 30.8829 217.446 31.4557C220.322 32.0286 222.048 31.7426 222.911 31.1697C223.774 30.5961 224.637 28.5908 224.637 28.5908C224.637 28.5908 224.35 25.439 223.486 23.7197C222.623 22.0004 223.199 20.5679 221.761 18.8494C220.323 17.1301 220.323 17.417 218.309 15.6976C216.296 13.9783 216.871 13.1187 213.707 12.8327C210.543 12.5467 209.68 11.6862 208.529 11.973C207.378 12.259 203.639 9.9669 207.666 9.68091C211.693 9.39408 215.432 9.9669 215.432 9.9669C215.432 9.9669 220.609 7.67477 218.884 7.38878C217.159 7.10195 221.472 4.52298 217.446 5.38264C213.419 6.24229 208.817 7.38878 207.666 7.67477C206.516 7.96075 203.639 8.24759 200.763 9.10724C197.888 9.9669 194.435 9.68091 192.709 11.6862C190.983 13.6915 192.709 13.9783 190.983 13.6915C189.258 13.4055 192.421 11.6862 188.395 13.6915C184.368 15.6977 185.519 15.4108 183.506 14.838C181.492 14.2652 180.054 13.4055 180.054 13.4055C180.054 13.4055 182.644 13.1187 178.904 12.8327C175.164 12.5467 175.164 12.5467 173.726 10.8266C172.288 9.10724 173.151 9.10724 174.013 8.53442C174.865 7.96075 175.445 6.81426 175.445 6.81426H175.452Z" fill="#BFDBCD"/>
<path d="M169.124 19.707C167.686 21.1395 164.234 23.1457 165.098 24.0053C165.961 24.865 166.536 28.0167 168.262 27.1571C169.987 26.2974 167.974 23.4325 174.589 25.7246C181.206 28.0167 180.63 25.4386 182.068 28.8764C183.506 32.3142 184.656 34.8923 183.793 35.7528C182.931 36.6125 182.643 37.4721 179.766 38.3318C176.89 39.1914 175.739 40.3379 177.753 41.7695C179.766 43.202 183.506 44.6345 185.231 45.495C186.957 46.3538 192.135 46.6415 189.545 43.7765C186.956 40.9116 190.121 40.0511 190.121 40.0511C190.121 40.0511 195.011 43.7765 193.286 39.4783C191.56 35.1808 190.409 35.1808 191.56 35.1808C192.71 35.1808 195.011 36.6133 195.011 36.6133L196.162 34.3212L195.011 30.5966L191.272 26.872C191.272 26.872 194.435 24.007 190.121 23.4342C185.806 22.8614 186.093 22.8614 183.792 21.428C181.491 19.9956 181.204 19.4227 176.889 20.2824C172.575 21.1421 171.136 21.7149 171.136 21.7149L169.134 19.707H169.124Z" fill="#BFDBCD"/>
<path d="M104.98 23.1462C106.707 21.4269 111.309 17.4163 113.035 18.562C114.76 19.7076 117.348 17.7023 119.362 19.4216C121.375 21.1409 123.677 23.1462 125.403 23.7191C127.129 24.2919 129.142 22.2866 130.868 23.1462C132.593 24.0059 138.634 18.8488 137.483 22.8602C136.332 26.8717 138.921 28.0173 135.757 28.3042C132.593 28.591 129.142 30.8831 127.703 30.0235C126.265 29.1638 125.114 28.3042 122.813 29.4506C120.512 30.5963 121.663 30.5963 119.073 30.0235C116.485 29.4507 115.91 30.5963 115.335 29.7366C114.759 28.8778 113.034 29.1638 113.321 26.5849C113.608 24.0067 114.471 24.2927 112.745 24.2927C111.02 24.2927 109.582 24.5796 108.431 23.7199C107.289 22.8602 104.989 23.1462 104.989 23.1462H104.98Z" fill="#BFDBCD"/>
<ellipse cx="83.0077" cy="53.3177" rx="3.8788" ry="3.86364" fill="#39B077"/>
<ellipse cx="83.0038" cy="53.3177" rx="3.8788" ry="3.86364" fill="#39B077"/>
<path d="M93.3658 53.3182C93.3658 59.0149 88.729 63.6364 83.0052 63.6364C77.2813 63.6364 72.6445 59.0149 72.6445 53.3182C72.6445 47.6215 77.2813 43 83.0052 43C88.729 43 93.3658 47.6215 93.3658 53.3182Z" stroke="#39B077"/>
<path d="M122.008 83.1521C122.008 85.1033 120.428 86.6841 118.481 86.6841C116.533 86.6841 114.953 85.1033 114.953 83.1521C114.953 81.2009 116.533 79.6201 118.481 79.6201C120.428 79.6201 122.008 81.2009 122.008 83.1521Z" fill="#39B077" stroke="#39B077"/>
<path d="M129.257 83.1529C129.257 89.1123 124.432 93.9424 118.48 93.9424C112.529 93.9424 107.703 89.1123 107.703 83.1529C107.703 77.1934 112.529 72.3633 118.48 72.3633C124.432 72.3633 129.257 77.1934 129.257 83.1529Z" stroke="#39B077"/>
<ellipse cx="154.375" cy="88.0902" rx="3.8788" ry="3.86364" fill="#39B077"/>
<path d="M164.737 88.0906C164.737 93.7874 160.1 98.4088 154.376 98.4088C148.652 98.4088 144.016 93.7874 144.016 88.0906C144.016 82.3939 148.652 77.7725 154.376 77.7725C160.1 77.7725 164.737 82.3939 164.737 88.0906Z" stroke="#39B077"/>
<ellipse cx="84.5546" cy="123.636" rx="3.8788" ry="3.86364" fill="#39B077"/>
<path d="M94.9166 123.637C94.9166 129.333 90.2798 133.955 84.556 133.955C78.8321 133.955 74.1953 129.333 74.1953 123.637C74.1953 117.94 78.8321 113.318 84.556 113.318C90.2798 113.318 94.9166 117.94 94.9166 123.637Z" stroke="#39B077"/>
<ellipse cx="40.8124" cy="113.33" rx="3.8788" ry="3.86364" fill="#39B077"/>
<path d="M51.1744 113.331C51.1744 119.028 46.5376 123.649 40.8138 123.649C35.0899 123.649 30.4531 119.028 30.4531 113.331C30.4531 107.634 35.0899 103.013 40.8138 103.013C46.5376 103.013 51.1744 107.634 51.1744 113.331Z" stroke="#39B077"/>
<ellipse cx="301.769" cy="104.318" rx="3.8788" ry="3.86364" fill="#39B077"/>
<path d="M312.131 104.318C312.131 110.015 307.495 114.636 301.771 114.636C296.047 114.636 291.41 110.015 291.41 104.318C291.41 98.6215 296.047 94 301.771 94C307.495 94 312.131 98.6215 312.131 104.318Z" stroke="#39B077"/>
<ellipse cx="484.785" cy="53.5316" rx="3.8788" ry="3.86364" fill="#39B077"/>
<path d="M495.147 53.532C495.147 59.2288 490.51 63.8502 484.786 63.8502C479.063 63.8502 474.426 59.2288 474.426 53.532C474.426 47.8353 479.063 43.2139 484.786 43.2139C490.51 43.2139 495.147 47.8353 495.147 53.532Z" stroke="#39B077"/>
<ellipse cx="452.199" cy="119.595" rx="3.8788" ry="3.86364" fill="#39B077"/>
<path d="M462.561 119.596C462.561 125.292 457.924 129.914 452.2 129.914C446.477 129.914 441.84 125.292 441.84 119.596C441.84 113.899 446.477 109.277 452.2 109.277C457.924 109.277 462.561 113.899 462.561 119.596Z" stroke="#39B077"/>
<ellipse cx="587.191" cy="97.3841" rx="3.8788" ry="3.86364" fill="#39B077"/>
<path d="M597.553 97.3846C597.553 103.081 592.917 107.703 587.193 107.703C581.469 107.703 576.832 103.081 576.832 97.3846C576.832 91.6879 581.469 87.0664 587.193 87.0664C592.917 87.0664 597.553 91.6879 597.553 97.3846Z" stroke="#39B077"/>
<ellipse cx="126.91" cy="190.785" rx="3.8788" ry="3.86364" fill="#39B077"/>
<path d="M137.272 190.785C137.272 196.482 132.635 201.103 126.911 201.103C121.188 201.103 116.551 196.482 116.551 190.785C116.551 185.088 121.188 180.467 126.911 180.467C132.635 180.467 137.272 185.088 137.272 190.785Z" stroke="#39B077"/>
<ellipse cx="49.7343" cy="77.4506" rx="3.8788" ry="3.86364" fill="#39B077"/>
<path d="M60.0963 77.451C60.0963 83.1477 55.4595 87.7692 49.7356 87.7692C44.0118 87.7692 39.375 83.1477 39.375 77.451C39.375 71.7543 44.0118 67.1328 49.7356 67.1328C55.4595 67.1328 60.0963 71.7543 60.0963 77.451Z" stroke="#39B077"/>
<ellipse cx="165.215" cy="273.934" rx="3.8788" ry="3.86364" fill="#39B077"/>
<path d="M175.577 273.934C175.577 279.631 170.94 284.253 165.216 284.253C159.492 284.253 154.855 279.631 154.855 273.934C154.855 268.238 159.492 263.616 165.216 263.616C170.94 263.616 175.577 268.238 175.577 273.934Z" stroke="#39B077"/>
<ellipse cx="377.879" cy="180.533" rx="3.8788" ry="3.86364" fill="#39B077"/>
<path d="M388.241 180.533C388.241 186.23 383.604 190.851 377.88 190.851C372.156 190.851 367.52 186.23 367.52 180.533C367.52 174.836 372.156 170.215 377.88 170.215C383.604 170.215 388.241 174.836 388.241 180.533Z" stroke="#39B077"/>
<ellipse cx="187.73" cy="220.227" rx="3.8788" ry="3.86364" fill="#39B077"/>
<path d="M198.092 220.227C198.092 225.924 193.456 230.546 187.732 230.546C182.008 230.546 177.371 225.924 177.371 220.227C177.371 214.531 182.008 209.909 187.732 209.909C193.456 209.909 198.092 214.531 198.092 220.227Z" stroke="#39B077"/>
</g>
<defs>
<clipPath id="clip0_3289_19675">
<rect width="649" height="340" fill="white"/>
</clipPath>
</defs>
</svg>
