<svg width="355" height="181" viewBox="0 0 355 181" fill="none" xmlns="http://www.w3.org/2000/svg">
<g clip-path="url(#clip0_2201_3305)">
<path d="M157.179 59.3526L155.648 61.386L154.628 62.4029L152.588 63.5211L152.281 64.4363C152.281 64.4363 151.465 65.25 151.567 65.7587C151.67 66.2674 151.67 67.1822 151.67 67.1822C151.67 67.1822 150.241 68.5041 149.629 68.9106C149.017 69.3172 148.2 70.2325 148.2 70.2325C148.2 70.2325 147.69 70.8429 147.384 71.0462C147.078 71.249 146.568 71.8593 146.16 72.4697C145.751 73.08 145.343 73.4861 145.139 73.7911C144.935 74.096 144.323 74.808 144.017 75.9266C143.711 77.0456 142.894 78.367 142.894 78.367L142.69 78.8753C142.792 80.6042 142.792 80.9091 142.996 81.5195C143.2 82.1294 143.405 81.9256 143.2 83.2479C142.996 84.5693 142.996 85.078 142.792 85.6884C142.588 86.2978 141.976 87.4164 141.772 87.9255C141.568 88.4338 142.18 89.3486 142.18 89.3486C142.18 89.3486 142.487 90.6709 142.282 90.9759C142.078 91.2812 142.384 91.8911 142.384 91.8911C142.384 91.8911 143.609 92.6027 144.017 93.0097C144.425 93.4163 145.14 94.0266 145.242 94.3316C145.344 94.637 146.16 96.0605 146.262 96.3654C146.364 96.6704 147.181 97.7885 147.385 98.0939C147.589 98.3993 148.609 99.5179 148.609 99.5179C148.609 99.5179 149.935 100.534 150.242 100.941C150.548 101.348 151.466 101.551 151.772 101.856C152.078 102.161 152.792 102.059 153.2 102.364C153.609 102.669 154.425 102.161 154.833 102.364C155.241 102.568 156.364 102.161 156.67 101.958C156.976 101.755 157.69 101.043 158.201 101.348C158.711 101.652 159.017 101.348 159.425 101.449C159.833 101.551 160.445 101.043 160.853 101.043C161.262 101.043 162.282 100.636 162.588 100.636C162.894 100.636 163.914 100.025 164.323 100.025C164.73 100.025 165.241 99.6195 165.751 99.8224C166.261 100.025 166.057 99.4162 166.975 99.7207C167.894 100.025 168.2 99.7207 168.506 100.025C168.812 100.331 169.221 100.026 169.527 100.433C169.833 100.839 170.343 101.144 170.445 101.551C170.546 101.958 171.159 102.365 171.159 102.365L171.771 102.466C171.771 102.466 172.588 101.856 172.792 102.263C172.996 102.67 173.914 102.569 173.914 102.569L174.832 103.585L175.139 103.992C175.139 103.992 175.751 105.619 175.649 106.229C175.547 106.839 175.547 108.161 175.241 108.466C174.935 108.771 174.731 110.093 174.731 110.093C174.731 110.093 174.322 110.499 175.241 111.313C176.159 112.127 176.771 112.838 177.077 113.244C177.384 113.651 178.2 114.77 178.301 115.482C178.404 116.193 178.608 116.6 179.016 117.515C179.424 118.431 179.934 118.532 180.036 119.55C180.139 120.566 180.342 120.567 180.24 121.278C180.138 121.99 179.832 122.091 180.138 122.6C180.444 123.108 180.852 124.024 180.751 124.328C180.649 124.633 180.444 125.955 180.444 125.955L180.24 126.566L179.322 128.295L178.71 129.209C178.506 129.921 178.098 130.633 178.2 131.65C178.301 132.667 177.69 132.666 178.506 133.683C179.322 134.7 179.73 135.819 180.24 136.734C180.751 137.649 181.057 138.564 181.158 139.174C181.261 139.784 181.669 139.988 181.873 140.801C182.076 141.615 182.179 142.021 182.179 142.53C182.179 143.038 182.076 144.36 182.281 144.665C182.485 144.97 182.587 145.886 182.689 146.292C182.791 146.7 182.383 146.801 182.995 147.513C183.608 148.225 184.016 148.631 184.424 149.14C184.832 149.649 184.73 149.445 185.036 150.157C185.342 150.868 185.75 151.276 185.853 151.885C185.955 152.495 186.056 154.02 186.363 154.732C186.669 155.444 187.077 156.156 187.077 156.156C187.077 156.156 188.2 156.868 188.608 156.766C189.015 156.665 189.832 155.75 190.445 156.055C191.057 156.36 191.567 156.055 192.077 156.055C192.587 156.055 193.097 155.444 193.608 155.444C194.118 155.444 194.832 154.631 195.241 154.834C195.649 155.037 196.158 154.63 196.669 154.122C197.179 153.614 197.485 153.208 198.403 152.394C199.322 151.58 199.22 151.58 199.832 151.072C200.444 150.563 201.057 149.444 201.771 149.241C202.485 149.038 202.689 148.327 202.893 147.818C203.097 147.309 203.199 147.004 203.505 146.597C203.812 146.191 203.607 146.7 204.118 145.378C204.628 144.055 205.241 143.548 205.751 143.242C206.261 142.937 206.567 142.327 206.873 142.225C207.179 142.123 207.689 142.53 207.485 141.615C207.282 140.7 207.485 139.378 207.282 139.073C207.077 138.767 206.771 139.784 206.873 138.259C206.976 136.734 208.098 135.208 208.098 135.208C208.098 135.208 209.628 133.277 210.139 132.972C210.649 132.667 210.751 132.362 211.466 131.955C212.179 131.549 213.71 130.532 213.71 130.023C213.71 129.514 214.323 128.192 214.323 127.887C214.323 127.582 214.323 127.277 214.119 125.548C213.915 123.82 214.323 124.226 213.711 122.6C213.099 120.973 212.996 118.939 212.588 118.431C212.18 117.922 212.384 116.6 212.384 116.193C212.384 115.787 213.099 114.77 213.405 114.363C213.711 113.956 215.037 112.329 215.037 112.329C215.037 112.329 217.077 109.991 217.792 108.873C218.506 107.754 219.22 106.737 219.73 106.331C220.241 105.924 221.465 105.008 222.179 103.991C222.894 102.975 224.322 101.043 224.425 100.737C224.526 100.433 225.342 99.4158 225.342 99.4158C225.342 99.4158 226.465 98.0934 226.669 97.3819C226.873 96.6699 227.893 92.7043 227.689 92.9076C227.486 93.1114 226.261 93.3142 225.852 93.4158C225.445 93.5179 226.465 93.9241 223.505 93.7212C220.547 93.5175 219.016 94.0262 219.016 94.0262C218.097 93.8224 217.383 94.8394 217.077 93.4158C216.771 91.9928 216.567 91.1791 215.955 90.1622C215.343 89.1453 214.934 88.7387 214.017 87.4164C213.099 86.095 213.2 86.7044 212.383 85.6884C211.567 84.6714 211.363 84.9759 210.853 83.6545C210.343 82.3326 209.935 82.8413 209.322 81.0108C208.71 79.1798 208.302 78.9765 207.996 77.96C207.689 76.9435 207.282 76.6377 207.077 75.7228C206.873 74.8076 204.527 70.1304 204.22 69.825C203.914 69.5205 203.404 67.8928 203.506 68.1982C203.608 68.5032 205.037 69.5201 205.037 69.5201C205.037 69.5201 205.853 69.2147 206.159 69.2147C206.465 69.2147 207.69 70.3337 207.69 70.7399C207.69 71.1469 209.834 73.0791 210.343 74.5026C210.853 75.9261 211.467 76.9431 211.568 77.3497C211.669 77.7562 212.69 79.3835 213.099 79.9939C213.506 80.6042 214.833 81.824 215.037 82.4343C215.241 83.0446 217.18 85.078 217.18 86.3999C217.18 87.7218 218.097 89.4502 218.2 89.8568C218.302 90.2634 220.138 90.7726 220.138 90.7726L222.588 90.1622C222.588 90.1622 226.261 87.823 226.669 87.823C227.077 87.823 230.343 86.2978 230.343 86.2978C230.343 86.2978 231.669 85.078 232.587 84.3665C233.505 83.6545 234.526 82.3331 234.73 81.7223C234.934 81.112 235.342 81.0108 236.158 80.095C236.975 79.1798 238.097 78.2649 237.383 77.6546C236.669 77.0447 236.26 77.248 235.24 76.2311C234.22 75.2146 234.322 75.4179 233.607 74.0956C232.893 72.7742 233.709 71.2485 232.178 72.7742C230.648 74.2993 231.26 74.7059 229.73 75.0118C228.2 75.3163 227.587 76.3332 226.873 75.3163C226.159 74.2993 225.445 74.9097 225.036 73.384C224.628 71.8589 224.321 71.7568 224.22 71.1474C224.118 70.537 224.22 70.537 223.403 69.0114C222.587 67.4862 223.199 65.1474 223.709 66.4693C224.22 67.7912 225.036 67.9945 226.363 68.9097C227.689 69.8246 228.302 70.537 229.526 70.6387C230.75 70.7399 231.771 70.6387 231.975 70.8415C232.179 71.0452 232.382 70.7403 232.893 70.9431C233.403 71.1469 233.607 70.6387 233.811 71.4514C234.015 72.265 235.137 72.3667 235.647 72.8749C236.158 73.3831 236.158 73.1803 237.485 73.3831C238.812 73.5869 240.649 73.5869 240.649 73.5869L242.587 73.4848L244.832 73.6876C244.832 73.6876 246.465 74.6029 246.872 74.6029C247.28 74.6029 247.382 75.7219 248.403 76.3318C249.423 76.9422 249.627 77.0434 250.239 77.7553C250.853 78.4673 250.75 78.7723 251.566 79.4838C252.383 80.1962 253.71 79.3826 253.914 79.0781C254.117 78.7727 255.137 78.2645 254.934 79.0781C254.73 79.8913 255.954 79.5859 255.648 81.5186C255.342 83.4499 255.137 82.9416 255.648 84.264C256.158 85.5858 258.403 89.6531 258.505 90.8733C258.607 92.0935 259.219 91.6869 259.321 92.806C259.423 93.9241 260.035 94.3307 260.035 95.1443C260.035 95.9579 260.75 96.1608 260.851 96.7716C260.954 97.3819 262.076 96.8728 262.382 96.7716C262.689 96.6695 264.117 95.3476 264.117 95.3476C264.117 95.3476 264.73 95.1448 264.627 94.1274C264.525 93.1114 264.627 93.3142 264.627 91.789C264.627 90.2639 264.015 90.2639 264.321 88.7392C264.627 87.214 265.443 86.2983 265.648 85.5867C265.852 84.8752 266.668 83.655 267.076 83.5529C267.484 83.4512 269.729 82.3331 270.24 81.6207C270.75 80.9091 271.566 80.0955 272.382 79.2823C273.198 78.4691 274.627 77.4522 274.933 77.7571C275.239 78.0621 275.137 77.9604 275.648 77.9604C276.158 77.9604 277.076 78.3675 277.79 78.4691C278.505 78.5708 279.934 80.2992 280.24 81.2145C280.546 82.1298 280.342 81.9261 281.464 83.2484C282.587 84.5698 283.607 83.7562 283.607 85.3834C283.607 87.0107 283.607 86.9086 284.117 87.5189C284.628 88.1293 285.24 86.4004 285.852 86.6041C286.464 86.8078 286.566 86.4008 287.076 88.0276C287.586 89.6549 287.892 89.6549 287.994 91.2817C288.096 92.9085 287.892 91.3833 287.892 92.7048C287.892 94.0271 287.79 94.1287 287.994 95.3485C288.198 96.5696 288.911 96.9762 288.81 97.1795C288.81 97.1795 289.422 95.451 289.218 94.2304C289.015 93.0106 289.218 91.2822 289.728 90.7739C290.238 90.2648 290.749 89.757 291.157 91.0788C291.565 92.4003 291.769 91.3838 292.687 92.909C293.606 94.4346 294.422 94.1287 294.524 94.8407C294.626 95.5527 295.138 95.6548 295.851 96.2642C296.565 96.8746 297.177 96.163 297.994 95.5527C298.811 94.9424 301.055 92.7052 301.157 91.7899C301.259 90.8751 302.177 91.0779 300.545 88.7401C298.912 86.4013 298.912 85.5876 297.177 84.1641C295.444 82.7406 294.423 82.6389 295.75 80.8084C297.076 78.9778 297.689 77.758 298.505 78.2667C299.321 78.775 300.749 78.6729 300.749 80.7072C300.749 82.7406 300.341 84.9777 301.769 82.5373C303.197 80.0968 303.912 78.6733 303.503 79.0808C303.096 79.4874 304.422 78.2672 304.422 78.2672C304.422 78.2672 304.524 77.3519 306.259 76.9453C307.993 76.5378 308.503 76.335 309.116 76.03C309.728 75.7247 311.463 73.6908 311.769 72.776C312.075 71.8607 312.892 70.2339 312.688 69.5223C312.484 68.8099 311.463 65.3534 311.259 65.4546C311.055 65.5567 311.157 65.5567 309.831 64.1332C308.504 62.7097 307.586 61.6928 307.382 61.0824C307.178 60.4721 306.667 60.3704 307.279 59.5573C307.892 58.7441 308.198 58.8457 308.3 58.1337C308.402 57.4222 309.218 56.8119 307.687 57.3206C306.157 57.8288 307.279 57.5243 305.953 57.4227C304.626 57.3206 301.157 58.1342 302.892 55.9991C304.626 53.8636 305.136 52.5422 305.442 52.5422C305.749 52.5422 307.28 50.8133 307.381 52.4401C307.484 54.0669 308.095 53.6599 308.198 54.6768C308.3 55.6938 310.341 53.5587 310.341 53.5587C310.341 53.5587 311.055 53.762 311.565 54.2702C312.075 54.7785 312.075 56.4057 312.075 56.4057C312.075 56.4057 311.667 55.897 312.79 56.7107C313.912 57.5248 315.136 57.1173 315.136 58.8462C315.136 60.5746 315.136 60.6767 315.85 61.0833C316.565 61.4899 317.278 61.2871 317.892 60.7784C318.504 60.2701 319.524 58.4396 319.524 58.4396C319.524 58.4396 319.626 57.7276 317.993 56.7107C316.361 55.6942 315.34 54.9827 314.729 54.474C314.116 53.9657 314.32 52.4406 314.932 51.8298C315.545 51.2194 315.85 50.9145 315.646 50.1013C315.442 49.2872 315.953 48.6774 317.483 48.779C319.014 48.8811 319.32 48.6778 319.32 48.6778C319.32 48.6778 319.627 48.8807 319.627 48.2708C319.627 47.6609 321.565 44.8134 321.054 44.8134C320.544 44.8134 321.158 44.1019 320.85 42.9833C320.544 41.8643 321.871 40.1362 320.749 39.3226C319.626 38.509 319.32 38.1019 318.606 36.8822C317.892 35.6615 317.993 35.4587 315.34 35.1533C312.688 34.8483 311.463 35.7636 310.851 34.9504C310.238 34.1368 309.933 36.1702 309.525 33.7297C309.117 31.2893 310.137 29.662 310.137 29.662C310.137 29.662 311.77 28.6456 312.177 27.9336C312.585 27.2216 314.218 26.9166 315.545 27.4253C316.872 27.9336 318.81 27.8319 320.443 28.1378C322.076 28.4423 321.974 29.4592 322.79 28.1378C323.606 26.815 322.79 26.2056 323.402 25.4936C324.015 24.7816 324.729 23.663 325.239 24.3745C325.749 25.087 326.77 25.7981 327.587 24.8828C328.403 23.968 328.709 23.8663 328.709 23.8663L329.116 24.2734C329.116 24.2734 330.034 23.7642 330.034 24.679C330.034 25.5948 330.953 26.6117 330.443 27.3232C329.932 28.0357 329.219 27.9336 329.219 29.662C329.219 31.3914 329.219 31.086 330.34 32.51C331.463 33.933 332.177 32.7128 332.381 34.2384C332.586 35.7636 332.789 35.4591 333.912 36.4756C335.035 37.4921 334.83 37.4921 335.647 38.1024C336.463 38.7127 336.872 39.3231 336.872 38.3061C336.872 37.2892 336.974 36.781 336.872 35.8657C336.769 34.9509 337.688 34.2384 337.075 32.7133C336.463 31.1881 336.973 31.2897 335.749 30.1712C334.524 29.053 333.707 30.3749 333.3 28.7477C332.892 27.1208 335.238 26.4089 335.851 26.2056C336.463 26.0027 337.381 24.782 337.585 25.5957C337.789 26.4089 336.055 29.358 339.014 26.2056C341.973 23.0536 340.647 24.3755 340.647 24.3755C340.647 24.3755 342.177 24.1722 342.483 24.3755C342.789 24.5792 343.606 23.4602 343.299 23.5623C342.993 23.6644 340.035 21.935 340.035 21.935L337.891 20.7152C337.891 20.7152 338.606 20.2065 339.116 20.3086C339.627 20.4103 339.729 19.2917 340.239 19.1896C340.749 19.088 344.218 19.9021 344.933 20.3086C345.647 20.7152 348.198 20.8169 347.891 20.6136C347.585 20.4098 345.953 19.1901 345.851 18.783C345.749 18.3764 342.177 17.5628 341.055 17.6645C339.933 17.7656 338.913 18.0706 337.995 17.7656C337.076 17.4607 335.75 16.6471 335.035 16.6471C334.321 16.6471 325.342 14.9186 324.934 15.0203C324.526 15.1219 323.913 17.0537 323.607 16.7487C323.301 16.4438 322.791 16.4433 321.362 16.0367C319.934 15.6301 317.995 15.3248 315.443 15.1219C312.893 14.9186 311.159 15.3252 310.444 14.5116C309.73 13.6984 308.2 14.0033 306.465 13.9012C304.731 13.8 302.69 13.9012 301.771 13.9012C300.853 13.9012 298.711 13.8 298.2 13.6979C297.69 13.5958 297.078 12.8843 296.466 12.7831C295.853 12.681 295.955 12.4782 294.731 12.2749C293.507 12.0711 293.609 10.7497 293.201 11.8678C292.793 12.9869 292.996 12.6815 292.384 13.0881C291.772 13.4951 291.16 14.3083 290.751 14.3083C290.344 14.3083 288.711 14.4099 288.404 14.2066C288.098 14.0033 287.588 13.8 286.567 13.8C285.547 13.8 285.547 13.9012 284.22 13.6979C282.894 13.4946 281.873 13.5958 280.649 12.9864C279.425 12.3761 279.425 11.9695 278.404 12.0711C277.385 12.1732 277.385 11.8678 275.955 11.8678C274.527 11.8678 272.793 12.6815 271.874 12.7831C270.956 12.8848 268.915 12.681 268.201 12.3761C267.486 12.0711 267.282 11.3596 264.629 11.6641C261.976 11.9695 260.446 11.9695 260.956 11.1558C261.466 10.3427 262.078 9.52903 262.384 9.42738C262.691 9.32574 263.404 8.8175 262.894 8.6142C262.384 8.41046 261.874 8.10597 260.65 8.00387C259.425 7.90222 259.526 8.41046 257.69 8.20716C255.854 8.00387 258.711 7.49563 254.936 7.59728C251.161 7.69938 250.242 8.00387 249.834 8.00387C249.426 8.00387 248.915 7.19069 247.895 8.41046C246.875 9.63068 245.445 10.3422 243.405 10.4439C241.365 10.546 241.262 10.2406 239.324 10.9521C237.385 11.6636 236.161 10.7488 236.569 12.3756C236.977 14.0024 237.487 14.6128 237.487 14.9177C237.487 15.2227 236.569 17.2565 235.447 16.0363C234.324 14.8161 232.283 10.0368 233.202 13.2909C234.12 16.5445 236.16 17.6635 234.222 18.1718C232.284 18.68 232.487 17.9685 232.181 17.7647C231.875 17.5615 232.181 16.1379 232.079 15.3243C231.976 14.5111 231.773 14.0024 231.365 13.5958C230.957 13.1888 231.058 12.5789 230.242 12.3756C229.426 12.1723 230.14 11.7653 228.814 11.7653C227.487 11.7653 226.365 10.9516 226.671 12.7822C226.977 14.6123 227.283 13.3925 228.099 15.121C228.915 16.8495 230.446 15.6292 229.324 16.8495C228.201 18.0697 225.242 17.6631 224.528 17.1549C223.814 16.6462 224.018 17.3582 222.691 16.4429C221.364 15.5276 221.773 14.8156 220.243 15.5276C218.712 16.2396 218.202 17.5615 217.589 17.0528C216.977 16.5441 215.549 17.7643 215.038 17.1549C214.528 16.5445 212.487 16.5445 212.079 17.1549C211.671 17.7647 210.447 17.6631 208.712 18.4767C206.978 19.2899 207.487 18.5779 205.345 20.3068C203.201 22.0353 201.977 23.4588 201.263 22.3402C200.549 21.2221 196.671 19.2899 198.202 18.9845C199.733 18.6796 200.447 18.0697 201.263 18.7812C202.08 19.4928 203.407 19.2899 203.61 18.7812C203.814 18.2725 204.733 17.7643 203.508 17.1544C202.283 16.5441 202.181 16.9507 200.243 16.2391C198.304 15.5271 200.243 15.7309 197.59 15.3238C194.937 14.9173 193.814 14.714 193.1 14.5107C192.386 14.3074 191.365 14.5107 190.345 14.409C189.324 14.3074 188.611 14.1041 187.692 14.2057C186.774 14.3074 186.264 14.1041 185.039 15.0194C183.814 15.9346 182.896 16.3412 182.08 17.0528C181.264 17.7643 179.121 19.1883 178.509 19.697C177.896 20.2052 175.753 21.832 175.549 22.4423C175.345 23.0527 175.753 23.5609 174.937 23.9675C174.12 24.3741 173.304 24.3741 172.692 24.4757C172.079 24.5774 172.692 23.5605 172.079 24.5774C171.467 25.5943 171.671 29.255 172.181 28.7463C172.691 28.2376 172.385 26.6112 174.63 28.1369C176.875 29.6616 178.304 29.4583 178.202 30.8818C178.1 32.3053 179.732 32.2037 179.936 32.5091C180.14 32.8136 181.161 32.102 181.161 32.102C181.161 32.102 183.406 30.6785 183.406 29.967C183.406 29.255 184.834 27.6282 184.834 27.6282C184.834 27.6282 183.813 27.1199 183.813 26.103C183.813 25.0865 184.12 24.7807 184.324 23.7638C184.528 22.7473 183.201 23.7642 186.263 21.8316C189.323 19.8998 189.527 21.2221 189.527 21.2221C189.527 21.2221 189.935 21.6287 189.425 22.2386C188.915 22.8489 187.997 24.4762 187.793 24.679C187.588 24.8828 188.711 26.5096 189.221 26.5096C189.731 26.5096 190.751 26.1026 191.364 26.2042C191.976 26.3063 192.996 25.8997 193.302 26.103C193.609 26.3063 194.323 26.9162 193.812 27.4249C193.302 27.9331 192.179 28.543 191.364 28.3402C190.547 28.1373 189.323 26.7129 190.037 28.7467C190.751 30.7806 189.935 31.2888 189.323 31.1872C188.711 31.0855 187.384 30.0691 187.588 31.5942C187.793 33.1189 186.262 34.1359 185.956 34.1359C185.649 34.1359 185.038 34.0342 185.038 34.0342C185.038 34.0342 184.119 33.9321 183.609 33.9321C183.099 33.9321 182.078 34.4404 181.772 34.8474C181.466 35.254 181.058 34.9495 180.548 34.9495C180.038 34.9495 180.548 34.3392 179.527 34.1359C178.507 33.9326 177.895 33.7293 177.283 34.1359C176.67 34.5425 175.752 34.7458 175.344 34.4408C174.936 34.1359 175.548 33.4234 174.731 33.8309C173.915 34.2375 173.303 35.3561 172.997 35.4582C172.691 35.5594 173.915 35.4582 172.691 35.5594C171.467 35.6615 170.957 35.9669 170.344 36.1697C169.732 36.3735 170.548 37.5933 169.426 37.9998C168.303 38.4064 169.12 37.4916 167.997 38.4064C166.875 39.3222 166.67 40.1353 166.263 40.237C165.854 40.3391 165.957 40.5419 165.038 40.6436C164.12 40.7452 164.222 40.8469 163.711 40.9485C163.201 41.0502 163.814 41.2539 162.691 41.0502C161.568 40.8469 160.752 41.2539 160.956 41.6605C161.16 42.0671 164.936 43.1857 162.079 43.084C159.222 42.9824 160.14 43.4906 160.752 43.8972C161.365 44.3038 161.67 44.7104 161.977 44.8125C162.283 44.9141 162.793 46.1348 162.793 46.1348C162.793 46.1348 163.609 46.0327 163.099 46.7447C162.589 47.4567 163.303 47.66 162.793 48.5753C162.283 49.4905 162.283 48.8802 161.875 49.0835C161.467 49.2863 160.854 49.9988 159.732 49.3884C158.609 48.7781 157.794 48.4732 156.467 48.372C155.14 48.2699 156.058 48.067 155.14 48.7781C154.222 49.4905 154.018 50.3037 154.12 51.2185C154.222 52.1334 154.324 53.354 154.018 53.9644C153.712 54.5743 153.712 55.1846 153.915 56.0999C154.12 57.0147 154.732 57.4222 154.732 57.4222C154.732 57.4222 156.161 57.6251 156.467 57.7272C156.773 57.8288 157.385 57.5239 158.201 58.0316C159.018 58.5403 159.834 58.7441 160.344 58.1337C160.854 57.5239 162.895 56.8119 163.508 56.202C164.12 55.5917 164.528 55.3888 164.222 54.7785C163.916 54.1681 164.834 52.643 165.344 52.338C165.854 52.0331 166.977 51.7277 166.977 51.7277L168.201 49.8976C168.201 49.8976 169.222 48.7786 169.732 48.8806C170.242 48.9823 173.099 49.9997 172.895 48.6778C172.691 47.3555 173.099 46.9489 173.405 47.4571C173.711 47.9654 174.527 47.7621 174.527 47.7621C174.527 47.7621 174.935 47.5592 175.241 47.8642C175.547 48.1687 175.955 49.4914 176.568 49.7959C177.18 50.1013 177.69 50.4063 178.099 50.6091C178.507 50.8129 178.915 50.6091 179.732 51.3211C180.548 52.0331 181.364 52.4401 181.466 52.7446C181.569 53.0496 182.283 53.7615 182.283 53.7615C182.283 53.7615 182.997 53.9648 182.793 54.3719C182.589 54.7785 181.569 55.9991 181.058 56.202C180.548 56.4053 179.222 55.9982 179.732 56.4053C180.241 56.8119 180.956 57.3206 181.262 57.0152C181.569 56.7102 183.507 54.6764 183.507 54.6764C183.507 54.6764 183.405 54.778 183.507 54.1677C183.609 53.5582 183.507 52.8463 184.017 53.1512C184.527 53.4566 184.834 53.8632 185.038 53.4566C185.242 53.0496 185.446 53.2533 184.935 52.9484C184.425 52.643 183.201 50.9145 182.588 50.8129C181.976 50.7108 180.445 49.6938 180.445 49.6938C180.445 49.6938 180.139 49.3889 179.425 48.5757C178.71 47.7621 178.507 47.9654 178.302 47.2534C178.098 46.5419 177.485 45.6266 178.608 45.8299C179.731 46.0332 180.445 46.7447 181.465 47.355C182.486 47.9654 182.282 48.1682 183.2 48.7786C184.118 49.3889 184.221 49.9992 184.935 49.8976C185.649 49.7959 186.466 50.3042 186.466 51.2194C186.466 52.1347 186.669 53.1512 186.873 53.3549C187.078 53.5587 187.689 53.9653 187.894 54.3719C188.098 54.7785 188.506 55.7954 188.812 56.202C189.118 56.6086 189.424 56.914 189.73 57.4227C190.036 57.9309 190.138 57.3206 190.444 57.5243C190.751 57.7276 191.159 57.6255 191.159 57.2189C191.159 56.8123 191.26 56.1003 191.26 56.1003C191.26 56.1003 192.689 55.6938 192.281 55.49C191.873 55.2867 190.648 54.0665 190.751 53.6599C190.853 53.2533 190.751 52.4401 191.26 52.5418C191.771 52.643 192.281 53.5582 193.403 52.7446C194.526 51.931 195.852 51.5244 195.444 52.7446C195.036 53.9648 195.547 54.1677 195.444 55.49C195.342 56.8123 195.853 56.4053 196.567 57.1173C197.281 57.8293 197.791 57.9314 198.301 58.1342C198.812 58.3379 199.628 58.2363 200.445 58.3379C201.261 58.4396 201.771 58.0325 202.486 58.2363C203.199 58.4396 204.832 58.1342 205.138 58.3379C205.445 58.5412 206.669 57.9314 206.771 58.6429C206.873 59.3549 207.281 58.5412 206.975 60.168C206.669 61.7949 206.261 62.9134 206.261 62.9134C205.138 65.0489 204.73 65.5576 204.22 65.6593C203.71 65.7609 203.404 66.0659 202.486 65.9642C201.568 65.8621 200.445 65.9642 199.119 65.6593C197.792 65.3539 195.343 65.9642 194.323 65.3539C193.302 64.744 191.874 65.2522 191.261 64.5407C190.649 63.8287 189.629 63.9304 189.221 63.5238C188.813 63.1172 188.609 61.9991 188.609 63.6259C188.609 65.2531 187.69 65.3543 187.486 66.168C187.282 66.9812 187.792 66.5746 186.669 66.4729C185.547 66.3708 185.241 66.9811 183.608 65.7614C181.975 64.5412 181.159 64.5412 180.343 64.0325C179.526 63.5238 178.71 64.9473 177.894 63.3209C177.078 61.6937 175.955 63.0155 175.853 61.6937C175.751 60.3713 175.853 60.4739 175.955 59.6603C176.058 58.8466 177.18 58.1351 176.67 57.8302C176.159 57.5252 176.567 57.0165 175.853 57.3219C175.139 57.6269 174.119 57.7285 173.303 58.0335C172.486 58.3388 175.139 58.0335 171.16 58.3388C167.18 58.6438 166.057 59.0504 166.057 59.0504C166.057 59.0504 165.751 58.8471 165.241 59.2537C164.731 59.6603 164.016 60.2706 163.302 59.9657C162.588 59.6603 162.18 59.7619 161.568 59.864C160.956 59.9657 160.548 59.3558 159.834 59.864C159.119 60.3718 158.303 60.5755 157.997 60.3718C157.679 60.164 157.167 59.3508 157.167 59.3508L157.179 59.3526Z" fill="#B3D1C9"/>
<path d="M225.444 126.26C225.138 127.379 224.015 129.005 224.015 129.005L221.974 130.022C221.974 130.022 221.261 130.633 220.852 130.734C220.444 130.836 219.424 131.345 219.424 131.345C219.424 131.345 218.506 131.141 218.811 132.056C219.117 132.971 219.22 134.09 219.117 134.395C219.016 134.7 219.016 135.31 219.016 136.124C219.016 136.937 218.71 137.954 218.199 138.157C217.689 138.361 217.179 138.564 217.281 139.276C217.383 139.988 217.383 142.123 217.383 142.123L218.71 144.157C218.71 144.157 219.118 143.852 219.935 143.852C220.75 143.852 221.567 143.141 221.567 143.141C221.567 143.141 222.486 143.343 222.383 142.226C222.281 141.106 222.792 139.785 222.689 139.48C222.587 139.175 223.608 137.852 223.608 137.548C223.608 137.243 224.628 135.82 224.628 135.311C224.628 134.803 225.342 133.989 225.444 133.379C225.546 132.769 225.648 131.346 225.852 130.939C226.057 130.532 226.159 130.125 226.159 129.719C226.159 129.312 226.159 128.499 226.159 128.499L225.433 126.258L225.444 126.26Z" fill="#B3D1C9"/>
<path d="M305.34 139.989C305.034 140.395 304.83 144.768 304.626 145.276C304.422 145.785 304.013 148.429 304.218 149.038C304.422 149.649 304.728 151.886 304.524 152.598C304.32 153.309 304.626 155.546 304.115 155.445C303.606 155.343 303.402 155.547 303.402 155.851C303.402 156.157 304.115 156.766 304.115 156.766C304.115 156.766 305.341 156.767 305.851 156.665C306.361 156.563 307.381 156.054 308.198 156.054C309.014 156.054 309.525 155.444 310.238 155.444C310.953 155.444 312.484 154.936 312.892 155.139C313.3 155.342 313.912 153.919 314.626 154.224C315.34 154.529 316.871 153.512 317.585 153.512C318.299 153.512 318.606 152.393 319.422 152.597C320.238 152.801 321.769 152.191 322.484 152.495C323.197 152.801 324.32 151.478 324.83 152.495C325.341 153.512 326.871 153.919 326.871 154.427C326.871 154.935 326.768 156.054 326.768 156.054L327.993 155.952C327.993 155.952 329.931 154.732 330.238 154.732C330.544 154.732 331.258 153.715 331.258 154.224C331.258 154.732 330.645 155.851 330.442 156.359C330.238 156.868 330.646 157.478 330.646 157.478C330.646 157.478 331.667 157.986 331.258 158.901C330.85 159.817 331.36 159.614 331.258 160.325C331.156 161.037 331.258 160.731 331.666 161.138C332.074 161.545 332.789 162.258 333.401 162.155C334.014 162.053 334.217 161.444 334.727 161.749C335.237 162.054 336.257 161.85 336.563 162.257C336.871 162.664 334.625 163.681 338.503 161.953C342.38 160.223 342.787 159.817 343.298 159.206C343.809 158.596 344.421 157.986 344.829 157.579C345.237 157.173 344.931 157.274 346.155 156.359C347.379 155.444 347.379 155.851 348.503 154.122C349.625 152.394 350.441 151.784 350.646 151.478C350.85 151.173 351.258 151.072 351.36 149.851C351.462 148.631 352.278 147.512 352.278 147.106C352.278 146.7 352.584 146.09 352.482 145.377C352.38 144.665 352.89 143.649 352.278 142.632C351.665 141.615 352.584 141.209 351.665 140.801C350.747 140.395 350.135 140.598 349.931 139.886C349.726 139.174 348.91 139.276 348.604 137.344C348.298 135.413 347.073 135.208 347.073 135.208C347.073 135.208 345.849 134.7 346.155 134.497C346.462 134.294 346.563 132.87 346.462 132.463C346.359 132.056 346.359 131.141 346.054 130.532C345.748 129.921 345.543 129.108 345.237 128.396C344.931 127.684 344.421 127.48 344.217 126.667C344.013 125.854 343.707 125.548 343.605 125.345C343.502 125.142 343.298 124.126 343.095 125.243C342.891 126.362 342.482 128.497 342.482 128.497C342.482 128.497 341.665 130.226 341.359 130.735C341.053 131.242 340.747 132.565 340.237 132.463C339.727 132.361 339.42 132.972 339.013 132.869C338.604 132.767 337.992 132.971 337.686 132.666C337.38 132.361 336.564 131.548 336.155 131.446C335.747 131.344 335.441 130.531 335.135 130.531C334.828 130.531 334.318 129.819 334.421 129.412C334.522 129.006 334.624 128.091 334.727 127.684C334.828 127.277 335.441 126.361 335.441 126.361C335.441 126.361 335.441 125.752 334.931 125.752C334.421 125.752 334.318 125.752 333.196 125.649C332.074 125.547 331.768 125.446 331.359 125.446C330.952 125.446 331.768 125.243 330.645 125.548C329.523 125.854 329.013 126.667 328.298 127.379C327.585 128.09 328.197 127.887 327.585 128.09C326.972 128.294 327.075 127.582 326.666 128.701C326.258 129.819 326.871 130.124 326.563 130.328C326.257 130.531 324.115 129.616 324.115 129.616C324.115 129.616 324.625 129.514 324.217 129.006C323.809 128.497 323.401 127.786 322.789 128.091C322.176 128.396 321.665 128.599 321.258 129.108C320.85 129.616 320.85 130.023 320.544 130.429C320.238 130.836 319.422 130.836 319.319 131.243C319.217 131.65 319.217 132.666 318.912 132.768C318.606 132.87 318.504 132.362 318.198 132.26C317.892 132.159 317.993 131.345 317.79 131.854C317.586 132.362 317.382 132.26 317.076 133.073C316.769 133.887 316.667 134.599 316.361 134.701C316.055 134.803 316.361 134.904 315.442 135.413C314.525 135.921 314.32 135.921 312.994 136.531C311.668 137.142 311.974 137.141 311.056 137.243C310.138 137.345 309.933 137.65 309.321 137.751C308.708 137.853 308.301 137.954 307.688 138.565C307.076 139.175 306.566 139.378 306.158 139.48C305.75 139.582 305.36 139.981 305.36 139.981L305.34 139.989Z" fill="#B3D1C9"/>
<path d="M311.359 99.8228C310.951 100.434 309.625 102.263 309.115 102.365C308.604 102.467 308.094 102.976 307.686 102.874C307.278 102.771 306.36 102.874 306.054 104.195C305.748 105.517 305.237 106.229 304.93 106.127C304.624 106.026 305.44 108.059 303.706 107.246C301.972 106.433 302.584 107.958 302.38 108.365C302.176 108.771 302.686 109.89 302.788 110.297C302.891 110.704 303.196 111.416 303.604 112.025C304.012 112.635 304.318 113.347 305.033 113.145C305.747 112.94 307.991 113.145 307.991 113.145C307.991 113.145 308.808 113.449 309.318 113.449C309.828 113.449 309.93 113.246 310.236 113.246C310.542 113.246 311.154 112.229 311.052 112.128C310.95 112.025 310.645 111.721 311.256 111.11C311.869 110.5 312.583 110.297 312.685 109.585C312.787 108.874 312.481 108.874 312.787 108.466C313.093 108.059 313.807 108.162 313.604 107.754C313.399 107.348 313.807 107.45 313.399 106.635C312.992 105.822 312.481 105.517 312.889 104.5C313.297 103.483 313.706 103.28 313.604 102.67C313.501 102.059 314.114 101.856 313.399 101.144C312.686 100.433 312.379 100.229 311.869 100.025L311.366 99.8174L311.359 99.8228Z" fill="#B3D1C9"/>
<path d="M331.36 109.992C331.769 109.89 333.197 108.873 333.3 110.704C333.402 112.534 333.503 112.025 334.116 113.042C334.728 114.059 335.135 114.365 335.85 113.856C336.564 113.347 337.38 113.347 337.584 112.433C337.789 111.518 337.789 111.518 338.401 111.518C339.014 111.518 339.217 111.416 339.525 111.823C339.83 112.229 340.033 111.823 341.361 112.535C342.687 113.247 343.809 113.042 344.626 113.755C345.443 114.466 345.851 114.366 346.973 114.772C348.095 115.178 347.585 114.568 348.605 115.687C349.626 116.805 349.219 117.11 349.728 117.619C350.238 118.127 350.647 117.212 350.442 118.432C350.238 119.652 348.81 118.432 350.953 120.16C353.095 121.889 353.402 122.195 354.115 122.702C354.83 123.211 355.34 123.822 354.728 123.822C354.115 123.822 352.177 123.822 351.974 123.516C351.769 123.211 350.851 123.007 350.238 122.296C349.627 121.585 348.3 121.076 347.995 120.466C347.688 119.855 347.28 119.652 346.77 119.652C346.26 119.652 345.75 120.262 345.035 120.974C344.32 121.686 344.628 120.568 343.708 120.872C342.789 121.178 341.77 120.77 341.259 120.364C340.749 119.957 340.852 119.347 340.036 119.652C339.219 119.957 338.709 119.754 339.015 119.144C339.321 118.533 339.117 117.72 339.117 117.72C339.117 117.72 339.424 116.703 338.71 116.5C337.995 116.297 337.995 115.585 337.281 115.381C336.566 115.178 335.445 114.67 335.445 114.67C335.445 114.67 335.343 114.67 335.036 114.568C334.73 114.466 334.73 114.466 333.914 114.263C333.098 114.059 332.485 114.262 332.077 113.754C331.668 113.246 331.873 112.534 331.873 112.534C331.873 112.534 333.505 112.737 331.873 111.517L330.24 110.297C330.24 110.297 330.443 110.195 330.342 109.992C330.238 109.784 331.362 109.988 331.362 109.988L331.36 109.992Z" fill="#B3D1C9"/>
<path d="M285.443 101.548C285.443 101.548 285.953 102.057 286.769 101.955C287.585 101.853 288.197 103.582 288.708 104.192C289.218 104.802 289.525 105.107 290.647 105.819C291.769 106.53 291.667 105.209 293.197 107.344C294.728 109.479 294.013 108.158 294.728 109.479C295.442 110.802 295.85 111.513 296.258 111.819C296.666 112.124 296.973 112.937 297.075 113.242C297.177 113.547 297.891 114.462 297.891 114.767C297.891 115.072 298.095 115.886 297.483 116.598C296.871 117.31 296.36 117.411 296.36 117.411C296.36 117.411 295.136 116.801 294.728 116.191C294.319 115.581 293.81 115.072 293.095 113.853C292.381 112.632 291.565 111.31 291.157 110.7C290.749 110.089 290.136 109.479 289.83 108.87C289.524 108.259 288.708 106.429 288.3 106.225C287.892 106.022 287.789 105.412 287.075 104.7C286.361 103.988 286.463 103.378 286.157 102.972C285.851 102.565 285.137 101.649 285.137 101.649L285.436 101.55L285.443 101.548Z" fill="#B3D1C9"/>
<path d="M86.9822 180.865C86.2677 180.458 84.7372 179.746 84.2272 179.34C83.7172 178.933 82.1868 176.695 82.1868 176.695L81.0639 174.56C81.0639 174.56 79.7379 172.933 80.0439 172.323C80.3499 171.713 80.9623 171.306 80.9623 171.001C80.9623 170.696 81.5743 169.882 81.0639 169.577C80.5539 169.272 80.5539 169.171 80.2474 168.256C79.9414 167.341 79.9414 166.526 79.5334 166.323C79.125 166.121 78.819 164.798 78.411 164.697C78.003 164.594 77.5945 163.883 77.5945 163.883L76.9821 155.646C76.9821 155.646 76.7776 151.884 76.574 151.07C76.3696 150.257 76.8801 148.529 76.3696 147.003C75.8596 145.478 76.472 143.648 76.1656 143.038C75.8596 142.427 76.3696 140.699 76.0636 139.072C75.7576 137.446 77.2881 135.412 76.0636 134.802C74.8391 134.191 75.7576 133.276 74.7371 133.276C73.7171 133.276 73.0027 132.767 72.0842 132.056C71.1658 131.344 69.4309 130.022 68.9209 129.513C68.4109 129.006 66.7779 127.683 66.2679 127.277C65.7579 126.87 65.2475 125.141 64.8395 124.633C64.4315 124.125 64.2275 122.6 63.615 121.684C63.0026 120.769 62.1866 119.244 61.9821 118.939C61.7781 118.634 59.5332 115.99 59.5332 115.99L59.7372 114.363C59.7372 114.363 61.2677 113.448 61.0637 113.143C60.8597 112.838 61.1661 112.532 60.4512 111.923C59.7367 111.312 59.8387 110.194 60.4512 109.686C61.0637 109.177 61.9817 107.55 61.9817 107.55L63.5121 105.008C63.5121 105.008 64.737 103.685 64.737 102.771C64.737 101.856 66.4715 101.246 65.451 100.432C64.4306 99.6182 64.941 98.9066 64.6346 98.2963C64.3281 97.6864 64.5326 97.2798 65.451 96.6695C66.3695 96.0591 68.0019 93.8224 68.0019 93.8224C68.0019 93.8224 69.2264 93.5171 69.5324 93.5171C69.8384 93.5171 70.3489 90.2625 71.2673 92.398C72.1858 94.5335 72.4918 93.415 72.1858 94.9401C71.8793 96.4653 72.5938 96.1608 73.0018 95.7542C73.4098 95.3467 72.7973 96.0591 73.6138 94.2281C74.4298 92.398 74.1242 91.7881 74.6342 92.2968C75.1442 92.8055 75.3482 92.9072 76.2667 93.2121C77.1847 93.5171 77.4911 93.415 77.7967 94.0253C78.1027 94.6356 78.0011 93.822 79.7356 94.1274C81.4701 94.4328 83.919 93.5171 83.613 94.5335C83.307 95.5505 82.6945 94.4319 84.123 95.5505C85.5514 96.6695 85.7559 96.8723 86.5719 97.0761C87.3879 97.2794 88.1023 97.1777 89.3273 98.3979C90.5517 99.6177 90.8577 99.7198 91.1637 100.329C91.4697 100.94 91.9797 100.533 92.4902 101.143C93.0002 101.754 93.7146 101.754 94.4286 101.754C95.1426 101.754 94.4286 101.143 95.5511 101.957C96.674 102.77 97.49 102.871 98 104.499C98.51 106.127 99.5305 106.024 98.714 107.651C97.898 109.279 96.2655 109.99 96.9795 109.889C97.6935 109.787 99.0205 109.176 99.4285 109.278C99.8365 109.38 100.04 108.973 100.653 109.278C101.265 109.583 101.367 108.872 101.265 109.583C101.163 110.295 101.163 109.583 101.163 110.295C101.163 111.007 100.959 109.583 102.183 109.889C103.408 110.194 102.693 109.278 104.122 110.6C105.551 111.922 105.551 111.516 106.06 112.227C106.571 112.939 107.081 111.821 107.387 112.126C107.694 112.43 108.612 112.227 109.53 112.431C110.449 112.634 109.836 111.821 111.265 112.736C112.693 113.651 114.122 113.346 114.428 114.159C114.734 114.972 115.551 114.667 115.958 115.176C116.366 115.685 116.57 114.972 116.979 115.685C117.387 116.396 118.612 116.193 118.407 116.904C118.203 117.617 118.713 117.21 118.509 118.226C118.305 119.244 117.59 120.871 116.979 121.277C116.366 121.684 116.367 122.192 115.958 122.7C115.55 123.209 115.652 122.192 115.142 123.616C114.632 125.04 114.734 125.243 114.326 126.564C113.918 127.886 114.224 126.564 113.918 127.886C113.612 129.208 113.816 130.022 113.51 131.547C113.204 133.072 113.306 133.072 113.102 134.191C112.898 135.31 113.612 133.683 112.693 136.021C111.775 138.36 111.673 138.258 111.367 139.275C111.061 140.293 111.469 139.478 110.347 140.089C109.225 140.7 109.837 140.495 108.51 140.902C107.184 141.309 105.551 141.717 105.041 141.818C104.531 141.919 102.49 142.529 103.103 143.749C103.715 144.97 103.715 145.173 103.103 146.699C102.49 148.223 101.572 148.732 101.572 149.444C101.572 150.155 101.164 150.867 101.062 151.375C100.96 151.884 101.98 150.867 100.756 152.392C99.5318 153.917 99.4298 153.511 99.0214 154.426C98.6134 155.341 99.0214 154.629 98.6134 155.341C98.2054 156.052 97.1849 156.357 97.1849 156.357C97.1849 156.357 97.2864 156.866 96.8784 156.663C96.47 156.46 96.5724 156.764 95.0415 156.357C93.5111 155.951 93.3071 154.935 93.1031 155.646C92.8991 156.357 93.2051 156.765 94.1235 157.476C95.0415 158.188 96.5724 158.391 96.164 159.104C95.756 159.816 95.756 159.816 95.45 160.222C95.1435 160.629 95.858 160.324 95.1435 160.629C94.4295 160.934 94.0211 162.257 93.7151 162.257C93.4091 162.257 93.2046 162.765 92.7966 162.562C92.3886 162.358 91.3686 161.646 91.1642 162.053C90.9602 162.459 90.5517 161.544 90.6537 162.968C90.7562 164.391 90.9602 165.205 90.4497 165.51C89.9397 165.815 88.7148 165.51 88.7148 165.51L88.5108 165.002L87.7968 165.205C87.7968 165.205 87.4908 166.425 88.0008 166.628C88.5108 166.832 88.4088 167.034 88.9188 167.645C89.4293 168.255 89.1233 169.374 89.1233 169.374C89.1233 169.374 89.1233 169.679 88.6133 170.187C88.1033 170.696 87.8988 171.103 87.7968 171.408C87.6943 171.713 87.0823 173.035 88.0008 172.933C88.9188 172.831 89.6337 172.322 89.6337 173.95C89.6337 175.576 90.0417 175.17 89.5317 176.288C89.0213 177.407 88.6133 177.509 88.5113 178.525C88.4097 179.542 88.6137 179.644 88.8177 180.254C89.0217 180.864 89.5322 180.559 89.0217 180.864C88.514 181.154 86.9862 180.851 86.9862 180.851L86.9822 180.865Z" fill="#B3D1C9"/>
<path d="M60.6564 98.0923L59.9424 97.0758C59.9424 97.0758 59.6364 96.465 59.1259 96.3638C58.6155 96.2626 57.493 94.9403 57.493 94.9403C57.493 94.9403 56.983 94.5337 56.983 93.8222C56.983 93.1102 56.5746 91.9921 56.8806 90.7719C57.187 89.5521 57.289 88.0265 57.187 87.6194C57.0846 87.2129 57.697 87.1112 56.983 86.7042C56.2686 86.2976 54.8401 86.1959 53.9217 86.1959C53.0037 86.1959 51.8807 86.5013 51.6767 86.6025C51.4727 86.7042 52.7992 83.5522 53.0032 83.044C53.2072 82.5357 54.1257 80.2981 54.1257 79.9936C54.1257 79.6882 54.4317 79.5866 53.8197 79.1804C53.2077 78.7734 52.1872 78.5701 51.5747 78.875C50.9627 79.1804 51.0647 78.4685 50.5547 79.6882C50.0447 80.9089 49.5343 82.2308 48.9218 82.4341C48.3098 82.6378 47.0854 83.2477 47.0854 83.2477C47.0854 83.2477 45.5549 83.146 45.0445 83.0444C44.5345 82.9427 42.3915 81.8242 41.9835 81.1126C41.5755 80.4007 41.3715 78.875 41.3715 78.164C41.3715 77.452 42.4935 75.3169 42.3915 74.8082C42.2895 74.3 43.5145 72.2661 43.412 71.9608C43.3095 71.6558 43.616 70.6389 43.922 70.2323C44.228 69.8257 45.7589 69.317 46.1669 68.9104C46.5749 68.5034 47.2894 67.9956 48.0034 67.7918C48.7174 67.5881 49.3303 67.3852 49.8403 67.3852C50.3503 67.3852 51.6767 66.2667 51.8807 67.3852C52.0852 68.5034 53.0037 68.0968 53.5137 68.1984C54.0237 68.3005 54.1261 68.8088 54.9421 67.4869C55.7586 66.1646 56.5746 65.758 56.5746 66.0629C56.5746 66.3683 57.901 65.9617 58.105 66.2667C58.309 66.5716 58.7175 66.0629 59.4315 66.6733C60.1459 67.2836 61.1659 67.3852 61.0639 67.6897C60.9619 67.9947 61.4719 67.9947 61.4719 68.3001C61.4719 68.605 61.8804 67.5881 61.8804 69.4182C61.8804 71.2488 62.3904 72.3673 62.3904 72.3673C62.3904 72.3673 63.1044 73.893 63.4104 73.5876C63.7164 73.2826 64.3284 72.4694 64.3284 72.4694C64.3284 72.4694 65.3489 71.8591 64.6349 69.7236C63.9204 67.5885 64.4309 66.9782 64.2269 66.2662C64.0224 65.5542 64.0224 65.1472 65.2469 64.2324C66.4713 63.3175 69.4302 61.2837 70.1447 60.8771C70.8587 60.4705 72.4911 59.3519 72.4911 59.3519C72.4911 59.3519 73.1031 59.047 73.2056 58.2334C73.3076 57.4202 75.2461 55.9962 75.3485 55.5896C75.451 55.183 76.7774 54.1665 76.7774 54.1665C76.7774 54.1665 78.2054 53.3525 78.1034 52.8447C78.0014 52.3364 79.9403 51.4216 80.2463 51.4216C80.5523 51.4216 82.1852 51.9294 82.1852 51.0141C82.1852 50.0993 82.1853 49.8955 83.2057 49.0824C84.2257 48.2692 85.5522 47.0485 86.0626 47.0485C86.5726 47.0485 88.3075 46.1341 89.0215 45.9304C89.736 45.7266 91.9809 44.7097 89.94 45.9304C87.8991 47.1502 89.2255 46.4386 88.8175 47.4556C88.41 48.472 88.1031 49.7943 90.042 48.2687C91.9809 46.7436 91.8785 46.4382 92.5929 46.337C93.3074 46.2353 92.7969 46.6419 94.3274 46.1332C95.8583 45.625 95.9603 45.4217 95.9603 45.4217C95.9603 45.4217 96.6747 44.8114 96.2663 44.5069C95.8583 44.2015 96.6747 43.7949 95.1438 44.4048C93.6134 45.0151 93.7154 45.1168 92.6949 44.8114C91.6749 44.5064 90.144 44.6076 91.2665 43.5907C92.3889 42.5742 93.8174 42.2688 92.8989 41.8622C91.9809 41.4556 89.634 41.9643 89.328 42.0655C89.0215 42.1672 88.3075 41.9639 87.6951 42.0655C87.0831 42.1672 87.2871 41.2528 87.6951 41.049C88.1035 40.8453 89.43 40.235 91.0624 39.8284C92.6949 39.4218 96.6747 39.3201 97.5927 39.3201C98.5107 39.3201 99.7352 39.5239 100.45 39.0152C101.164 38.507 102.593 37.6938 102.797 37.2863C103.001 36.8797 103.817 36.2698 103.817 36.2698C103.817 36.2698 104.735 35.3545 104.225 34.9479C103.715 34.5413 103.205 33.6261 102.797 33.8294C102.389 34.0327 102.695 35.2533 101.879 33.931C101.062 32.6096 101.164 32.4058 100.756 32.1009C100.348 31.796 99.9397 31.9988 100.246 30.5757C100.552 29.1522 100.45 28.5419 100.45 28.5419C100.45 28.5419 100.756 27.3221 100.45 27.2205C100.144 27.1184 99.9401 26.8139 99.4301 27.1184C98.9196 27.4233 96.0627 28.8473 95.4507 29.1522C94.8383 29.4572 94.0218 27.932 94.3278 27.2205C94.6343 26.508 94.4298 26.9151 94.0218 25.8986C93.6138 24.8817 91.9814 24.6779 91.3689 24.6779C90.7565 24.6779 89.3284 23.7626 88.92 24.373C88.512 24.9829 86.3695 26.9146 85.9606 27.1184C85.5526 27.3221 84.9406 25.3899 84.6346 28.5419C84.3282 31.6948 85.7571 32.6096 84.1246 32.8129C82.4922 33.0162 81.0632 33.931 81.0632 33.931C81.0632 33.931 79.7372 34.0331 79.7372 34.8463C79.7372 35.6604 79.2272 37.5917 78.6143 37.795C78.0023 37.9987 76.4714 37.6938 75.9614 37.0834C75.4514 36.4731 76.0634 34.2364 76.0634 34.2364L76.9819 33.3211C76.9819 33.3211 70.4516 32.3046 70.5531 31.8976C70.6556 31.491 68.6147 30.7795 68.4107 30.1691C68.2067 29.5588 68.1042 28.2369 68.3087 27.7287C68.5127 27.2205 71.2676 24.78 72.6961 24.2718C74.1245 23.7631 76.5734 22.645 77.2879 22.4412C78.0023 22.2379 79.2263 22.3396 79.6348 21.8313C80.0428 21.3226 80.1448 20.4078 80.1448 20.4078C80.1448 20.4078 79.9408 18.9838 80.3488 19.1871C80.7568 19.3909 81.4713 19.6958 81.5732 20.0008C81.6757 20.3057 81.6757 21.0177 82.3897 20.2036C83.1042 19.3904 84.0226 19.085 84.8386 18.6789C85.6551 18.2719 86.8791 18.374 87.594 17.9674C88.308 17.5608 89.5324 17.1537 89.6344 16.1368C89.7365 15.1203 89.3284 15.4253 88.818 15.3232C88.308 15.222 89.022 15.4253 87.2875 16.2385C85.5526 17.0516 86.0631 16.4418 84.8386 17.0516C83.6142 17.662 83.5117 17.7636 83.4102 17.2554C83.3077 16.7467 83.6142 15.9335 83.6142 15.9335C83.6142 15.9335 83.7166 15.8314 83.0022 15.6286C82.2877 15.4253 82.2877 15.7302 82.1857 14.8154C82.0837 13.9001 82.6957 12.5782 81.6757 12.9848C80.6553 13.3914 79.7372 12.6799 79.0228 14.7133C78.3083 16.7467 75.8594 18.8826 75.247 18.374C74.635 17.8657 74.533 17.7636 74.0225 17.7636C73.5121 17.7636 72.7981 17.1537 71.8796 17.0521C70.9611 16.9504 68.2058 16.9504 67.4922 17.0521C66.7778 17.1542 65.9618 16.6455 65.3489 17.2558C64.7369 17.8657 63.8189 18.6794 63.8189 18.9847C63.8189 19.2897 62.9004 17.8657 62.5944 17.9678C62.2884 18.0695 61.4715 17.5612 60.5539 17.5612C59.6355 17.5612 59.023 17.0525 58.7175 17.0525C58.4115 17.0525 59.023 16.2389 58.7175 16.1373C58.4115 16.0361 51.7783 15.8323 51.7783 15.8323C51.7783 15.8323 49.6358 15.0191 48.8198 15.1208C48.0034 15.2224 45.7589 15.3236 44.0235 15.629C42.2886 15.934 39.7377 16.9509 38.9217 17.0525C38.1053 17.1546 36.2688 17.1546 35.9628 16.646C35.6564 16.1377 36.0648 16.2394 35.6563 16.1377C35.2483 16.0365 35.5548 15.8328 34.6363 15.1212C33.7179 14.4093 35.0448 13.7994 33.2079 13.7994C31.3714 13.7994 30.249 13.6973 28.6165 13.7994C26.9836 13.901 23.6167 14.7142 23.2087 14.6125C22.8007 14.5109 19.5353 15.1212 19.0249 14.8163C18.5149 14.5109 15.9635 15.9344 15.4539 15.8328C14.9439 15.7311 13.005 15.9349 12.495 16.2398C11.9846 16.5452 9.53566 17.1546 10.3521 17.6633C11.1681 18.1716 11.0661 18.6798 11.1681 18.9852C11.2706 19.2901 10.3521 20.0017 10.3521 20.0017C10.3521 20.0017 10.1477 20.0017 9.02566 19.5951C7.90321 19.188 6.67875 18.9852 6.16829 19.2901C5.65829 19.5951 4.73984 20.2059 4.94384 20.6125C5.14829 21.0191 6.5763 21.9343 6.78075 21.6289C6.98475 21.324 7.4952 20.7141 8.10721 20.8158C8.71966 20.9179 9.63812 20.4092 8.82166 21.4261C8.00521 22.4426 7.29075 22.9513 6.78075 23.0534C6.27075 23.1546 5.04629 23.2562 3.92383 23.3583C2.80092 23.4604 2.90293 22.9517 1.88292 23.9686C0.862919 24.9851 0.454465 24.3752 0.250464 25.4938C0.0464637 26.6119 -0.157537 26.6119 0.250464 26.9173C0.658465 27.2223 -0.565991 27.3239 0.352465 27.6289C1.27047 27.9343 2.39292 28.2392 2.29092 28.5437C2.18847 28.8491 3.31138 28.1375 2.69892 28.9503C2.08647 29.7644 1.67892 30.4754 2.90293 29.6623C4.12738 28.8491 4.84138 29.4585 5.86184 28.9503C6.8823 28.442 7.90275 28.3404 8.51475 27.9338C9.12721 27.5268 9.43321 26.9173 10.3517 26.6115C11.2701 26.3065 10.6577 26.7136 10.7597 27.2218C10.8617 27.7301 10.7597 27.8317 11.3721 27.4247C11.9841 27.0181 11.9841 27.3235 12.8006 26.8148C13.6166 26.3065 14.535 25.7978 15.1475 26.1028C15.7595 26.4082 15.9635 26.4082 16.3719 26.4082C16.7799 26.4082 15.8619 26.3061 16.78 26.4082C17.6984 26.5094 16.372 26.1028 19.4329 26.8148C22.4942 27.5263 23.3107 27.0181 23.5142 28.1366C23.7187 29.2552 24.1267 28.0345 24.6367 28.7465C25.1467 29.4581 25.4531 28.8486 25.7591 30.0684C26.0651 31.2891 25.7591 34.6443 25.5551 35.0509C25.3511 35.4575 25.2491 35.4575 25.3511 36.3728C25.4531 37.2876 26.6776 41.6607 26.2696 41.9652C25.8616 42.2697 24.9431 42.3718 24.9431 42.3718L24.4331 44.2019C24.4331 44.2019 23.6171 45.7271 22.9027 46.5407C22.1882 47.3539 21.2702 48.3713 20.7598 49.0824C20.2498 49.7943 19.8413 51.015 19.1273 51.7266C18.4133 52.4381 17.8009 52.1331 18.0049 53.6583C18.2089 55.1835 18.0049 56.8103 18.2089 57.9293C18.4133 59.0479 18.9233 60.5731 19.3313 61.1834C19.7393 61.7933 20.0458 61.7933 20.7598 62.3015C21.4742 62.8098 22.3927 63.4205 22.2902 63.9288C22.1882 64.437 22.3922 67.5899 22.3922 67.5899C22.3922 67.5899 23.0047 68.6064 23.1062 69.7249C23.2087 70.844 23.9227 71.9621 23.9227 71.9621L24.5351 73.2844C24.5351 73.2844 24.8411 73.3865 25.2496 74.1993C25.6576 75.0129 25.6576 75.0129 25.7596 75.419C25.8621 75.8265 25.8621 75.7244 25.8621 75.8265C25.8621 75.9277 25.7596 74.0976 25.5556 73.5889C25.3516 73.0807 25.3516 72.4708 25.1476 71.8605C24.9436 71.2501 25.2496 70.5381 24.6376 69.6233C24.0256 68.7085 24.0256 68.6064 23.7196 67.6911C23.4136 66.7763 23.0051 65.7593 23.4136 65.5556C23.8216 65.3527 24.1276 64.0309 24.9441 65.5556C25.7601 67.0808 25.8625 66.6746 25.9645 67.8948C26.0661 69.1151 26.3725 69.5221 26.6785 70.0299C26.9845 70.5381 27.6985 72.2675 28.107 72.9786C28.515 73.6906 28.107 72.572 29.025 73.9955C29.9434 75.419 30.0459 75.724 30.5559 76.8425C31.0659 77.9611 31.3723 77.9611 31.6783 78.7743C31.9843 79.5884 31.7803 79.3846 31.5759 80.2995C31.3719 81.2143 31.7799 82.2317 31.7799 82.2317C31.7799 82.2317 33.2083 82.7399 33.3103 83.0449C33.4123 83.3498 34.8408 83.858 35.0453 84.2651C35.2493 84.6721 36.5757 85.1799 36.5757 85.1799C36.5757 85.1799 37.6982 85.8919 38.1057 86.0952C38.5142 86.2985 39.7391 86.5022 39.7391 86.5022C39.7391 86.5022 40.5551 86.706 40.8611 86.8072C41.1671 86.9088 42.0855 86.9088 42.0855 86.9088C42.0855 86.9088 42.902 86.2989 43.208 86.5022C43.514 86.7051 44.2285 86.0952 44.5345 86.6034C44.8405 87.1121 45.4529 87.1121 45.7589 87.5191C46.0649 87.9257 46.3709 87.9257 46.8814 88.434C47.3918 88.9422 47.9018 88.8406 48.4118 89.2472C48.9218 89.6537 49.3298 89.6537 49.9423 89.6537C50.5543 89.6537 50.5543 89.6537 50.9627 89.7559C51.3703 89.8575 51.5747 89.4505 51.9827 89.9596C52.3907 90.4678 52.6967 90.7728 53.0027 91.281C53.3087 91.7892 54.0232 91.7893 54.1252 92.6029C54.2272 93.4161 54.4312 93.3153 54.4312 94.0264C54.4312 94.7384 54.8392 95.0433 55.1457 95.2471C55.4512 95.4499 56.5737 96.4664 56.5737 96.4664L58.1041 96.7718L59.3286 97.6871L60.6206 98.0937L60.6564 98.0923Z" fill="#B3D1C9"/>
<path d="M93.359 3.62759L99.4813 2.86501C99.4813 2.86501 101.624 2.86501 102.695 2.10243C103.767 1.33984 102.695 1.33984 105.91 0.729959C109.124 0.119622 108.206 -0.185321 109.889 0.119622C111.573 0.425016 112.032 0.425016 113.869 0.729959C115.705 1.0349 116.164 0.577714 117.848 1.0349C119.531 1.49254 120.297 1.33984 121.674 1.33984H125.96C128.103 1.33984 130.092 0.119622 130.857 0.882205C131.623 1.64479 132.082 1.33984 134.684 1.64479C137.286 1.94973 138.357 1.33939 139.429 1.64479C140.5 1.94973 142.337 1.49254 144.48 1.64479C146.622 1.79703 147.694 1.49254 148.459 1.49254C149.224 1.49254 149.989 0.424565 151.061 1.33984C152.132 2.25512 153.51 1.0349 153.662 2.25512C153.816 3.47535 155.805 2.56007 153.816 3.47535C151.826 4.39063 152.132 4.23793 150.754 5.45815C149.377 6.67838 151.673 7.7459 148.765 8.81388C145.856 9.8814 145.397 8.20354 144.632 10.0341C143.867 11.8642 144.632 12.3218 144.479 13.2371C144.326 14.152 144.02 14.3047 143.102 15.0672C142.184 15.8298 142.184 15.0672 140.041 15.5249C137.898 15.9825 136.367 16.4402 135.449 16.4402C134.531 16.4402 132.541 17.2027 131.929 17.5077C131.316 17.8131 133 18.2703 129.786 19.1855C126.572 20.1008 125.806 19.9486 124.888 21.1684C123.969 22.389 124.275 22.5417 123.663 23.3043C123.051 24.0669 121.215 27.1177 120.296 26.3551C119.378 25.5925 118.918 25.7448 118.153 24.9822C117.388 24.2196 116.929 23.1521 116.47 22.5417C116.01 21.9314 115.857 20.4062 115.704 19.4909C115.552 18.5757 114.173 16.4406 115.704 16.7456C117.235 17.0505 118.153 16.8982 118.612 16.5933C119.072 16.2879 119.531 15.2204 119.531 15.2204C119.531 15.2204 119.378 13.5425 118.918 12.6272C118.459 11.712 118.766 10.9494 118 10.0346C117.235 9.11927 117.235 9.27197 116.164 8.35669C115.092 7.44141 115.398 6.98377 113.715 6.83152C112.031 6.67928 111.572 6.22119 110.959 6.37388C110.347 6.52613 108.358 5.30591 110.5 5.15366C112.643 5.00096 114.633 5.30591 114.633 5.30591C114.633 5.30591 117.388 4.08568 116.47 3.93344C115.552 3.78074 117.847 2.40782 115.704 2.86546C113.561 3.3231 111.113 3.93344 110.5 4.08568C109.888 4.23793 108.358 4.39063 106.827 4.84827C105.297 5.30591 103.46 5.15366 102.542 6.22119C101.623 7.28871 102.542 7.44141 101.623 7.28871C100.705 7.13647 102.388 6.22119 100.246 7.28871C98.1031 8.35669 98.7156 8.20399 97.6444 7.89905C96.5727 7.59411 95.8074 7.13647 95.8074 7.13647C95.8074 7.13647 97.1856 6.98377 95.1954 6.83152C93.2057 6.67928 93.2057 6.67928 92.4405 5.76355C91.6753 4.84827 92.1345 4.84827 92.5933 4.54332C93.0466 4.23793 93.3549 3.62759 93.3549 3.62759H93.359Z" fill="#B3D1C9"/>
<path d="M89.9907 10.4912C89.2254 11.2538 87.3885 12.3218 87.8482 12.7794C88.3074 13.2371 88.6134 14.9149 89.5319 14.4573C90.4499 13.9996 89.3787 12.4745 92.8988 13.6947C96.4194 14.9149 96.113 13.5424 96.8782 15.3726C97.6434 17.2027 98.2554 18.5751 97.7962 19.0332C97.3374 19.4909 97.1842 19.9485 95.6533 20.4061C94.1228 20.8638 93.5104 21.4741 94.582 22.2363C95.6533 22.9988 97.6434 23.7614 98.5614 24.2195C99.4799 24.6767 102.235 24.8298 100.857 23.3047C99.4794 21.7795 101.163 21.3214 101.163 21.3214C101.163 21.3214 103.765 23.3047 102.847 21.0165C101.929 18.7287 101.316 18.7287 101.929 18.7287C102.541 18.7287 103.765 19.4913 103.765 19.4913L104.378 18.2711L103.765 16.2883L101.776 14.3055C101.776 14.3055 103.459 12.7803 101.163 12.4754C98.8674 12.1704 99.0202 12.1704 97.7957 11.4074C96.5713 10.6448 96.4185 10.3399 94.1224 10.7975C91.8267 11.2551 91.0614 11.5601 91.0614 11.5601L89.9961 10.4912H89.9907Z" fill="#B3D1C9"/>
<path d="M55.8594 12.3217C56.7778 11.4065 59.2267 9.2714 60.1452 9.88129C61.0632 10.4912 62.4404 9.42365 63.5121 10.3389C64.5833 11.2542 65.8078 12.3217 66.7263 12.6267C67.6447 12.9316 68.7159 11.8641 69.6344 12.3217C70.5524 12.7794 73.7665 10.034 73.1545 12.1695C72.5421 14.305 73.9198 14.9149 72.2361 15.0676C70.5524 15.2203 68.7159 16.4405 67.9503 15.9829C67.185 15.5252 66.5726 15.0676 65.3481 15.6779C64.1237 16.2878 64.7361 16.2878 63.3584 15.9829C61.9812 15.6779 61.6752 16.2878 61.3692 15.8302C61.0627 15.373 60.1447 15.5252 60.2975 14.1523C60.4503 12.7798 60.9095 12.9321 59.9911 12.9321C59.0731 12.9321 58.3078 13.0848 57.6954 12.6271C57.0879 12.1695 55.8639 12.3217 55.8639 12.3217H55.8594Z" fill="#B3D1C9"/>
<ellipse cx="44.1694" cy="28.384" rx="2.06395" ry="2.05682" fill="#39B077"/>
<ellipse cx="44.1694" cy="28.384" rx="2.06395" ry="2.05682" fill="#39B077"/>
<path d="M49.4488 28.3841C49.4488 31.287 47.0869 33.6432 44.1697 33.6432C41.2525 33.6432 38.8906 31.287 38.8906 28.3841C38.8906 25.4812 41.2525 23.125 44.1697 23.125C47.0869 23.125 49.4488 25.4812 49.4488 28.3841Z" stroke="#39B077"/>
<ellipse cx="82.146" cy="46.8957" rx="2.06395" ry="2.05682" fill="#39B077"/>
<path d="M87.4253 46.8958C87.4253 49.7987 85.0634 52.1549 82.1463 52.1549C79.2291 52.1549 76.8672 49.7987 76.8672 46.8958C76.8672 43.9929 79.2291 41.6367 82.1463 41.6367C85.0634 41.6367 87.4253 43.9929 87.4253 46.8958Z" stroke="#39B077"/>
<ellipse cx="44.9936" cy="65.8185" rx="2.06395" ry="2.05682" fill="#39B077"/>
<path d="M50.273 65.8187C50.273 68.7215 47.9111 71.0778 44.9939 71.0778C42.0767 71.0778 39.7148 68.7215 39.7148 65.8187C39.7148 62.9158 42.0767 60.5596 44.9939 60.5596C47.9111 60.5596 50.273 62.9158 50.273 65.8187Z" stroke="#39B077"/>
<ellipse cx="21.7183" cy="60.3322" rx="2.06395" ry="2.05682" fill="#39B077"/>
<path d="M26.9976 60.3323C26.9976 63.2352 24.6357 65.5914 21.7185 65.5914C18.8013 65.5914 16.4395 63.2352 16.4395 60.3323C16.4395 57.4294 18.8013 55.0732 21.7185 55.0732C24.6357 55.0732 26.9976 57.4294 26.9976 60.3323Z" stroke="#39B077"/>
<ellipse cx="160.576" cy="55.5334" rx="2.06395" ry="2.05682" fill="#39B077"/>
<path d="M165.855 55.5335C165.855 58.4364 163.493 60.7926 160.576 60.7926C157.659 60.7926 155.297 58.4364 155.297 55.5335C155.297 52.6306 157.659 50.2744 160.576 50.2744C163.493 50.2744 165.855 52.6306 165.855 55.5335Z" stroke="#39B077"/>
<ellipse cx="257.958" cy="28.4972" rx="2.06395" ry="2.05682" fill="#39B077"/>
<path d="M263.238 28.4974C263.238 31.4003 260.876 33.7565 257.959 33.7565C255.042 33.7565 252.68 31.4003 252.68 28.4974C252.68 25.5945 255.042 23.2383 257.959 23.2383C260.876 23.2383 263.238 25.5945 263.238 28.4974Z" stroke="#39B077"/>
<ellipse cx="240.621" cy="63.6672" rx="2.06395" ry="2.05682" fill="#39B077"/>
<path d="M245.9 63.6673C245.9 66.5702 243.538 68.9264 240.621 68.9264C237.704 68.9264 235.342 66.5702 235.342 63.6673C235.342 60.7644 237.704 58.4082 240.621 58.4082C243.538 58.4082 245.9 60.7644 245.9 63.6673Z" stroke="#39B077"/>
<ellipse cx="312.453" cy="51.843" rx="2.06395" ry="2.05682" fill="#39B077"/>
<path d="M317.732 51.8431C317.732 54.746 315.37 57.1022 312.453 57.1022C309.536 57.1022 307.174 54.746 307.174 51.8431C307.174 48.9402 309.536 46.584 312.453 46.584C315.37 46.584 317.732 48.9402 317.732 51.8431Z" stroke="#39B077"/>
<ellipse cx="67.5308" cy="101.565" rx="2.06395" ry="2.05682" fill="#39B077"/>
<path d="M72.8101 101.565C72.8101 104.468 70.4482 106.824 67.531 106.824C64.6138 106.824 62.252 104.468 62.252 101.565C62.252 98.6619 64.6138 96.3057 67.531 96.3057C70.4482 96.3057 72.8101 98.6619 72.8101 101.565Z" stroke="#39B077"/>
<ellipse cx="26.4643" cy="41.2316" rx="2.06395" ry="2.05682" fill="#39B077"/>
<path d="M31.7437 41.2317C31.7437 44.1346 29.3818 46.4908 26.4646 46.4908C23.5474 46.4908 21.1855 44.1346 21.1855 41.2317C21.1855 38.3289 23.5474 35.9727 26.4646 35.9727C29.3818 35.9727 31.7437 38.3289 31.7437 41.2317Z" stroke="#39B077"/>
<ellipse cx="87.9116" cy="145.829" rx="2.06395" ry="2.05682" fill="#39B077"/>
<path d="M93.191 145.829C93.191 148.732 90.8291 151.088 87.9119 151.088C84.9947 151.088 82.6328 148.732 82.6328 145.829C82.6328 142.927 84.9947 140.57 87.9119 140.57C90.8291 140.57 93.191 142.927 93.191 145.829Z" stroke="#39B077"/>
<ellipse cx="201.074" cy="96.1076" rx="2.06395" ry="2.05682" fill="#39B077"/>
<path d="M206.353 96.1077C206.353 99.0106 203.991 101.367 201.074 101.367C198.157 101.367 195.795 99.0106 195.795 96.1077C195.795 93.2048 198.157 90.8486 201.074 90.8486C203.991 90.8486 206.353 93.2048 206.353 96.1077Z" stroke="#39B077"/>
<ellipse cx="99.896" cy="117.238" rx="2.06395" ry="2.05682" fill="#39B077"/>
<path d="M105.175 117.239C105.175 120.141 102.813 122.498 99.8963 122.498C96.9791 122.498 94.6172 120.141 94.6172 117.239C94.6172 114.336 96.9791 111.979 99.8963 111.979C102.813 111.979 105.175 114.336 105.175 117.239Z" stroke="#39B077"/>
</g>
<defs>
<clipPath id="clip0_2201_3305">
<rect width="355" height="181" fill="white"/>
</clipPath>
</defs>
</svg>
